<svg width="207" height="153" viewBox="0 0 207 153" fill="none" xmlns="http://www.w3.org/2000/svg">
<path opacity="0.1" d="M88.3847 10.2705C81.6198 7.51547 74.4708 5.209 67.1726 5.50255C56.4346 5.92556 46.1497 12.391 41.0974 21.8849C36.8168 29.9274 36.289 39.3557 34.4453 48.2807C32.1739 59.2789 27.8241 69.73 23.1759 79.9514C20.6788 85.4341 18.0453 91.0498 17.6358 97.0685C17.0661 105.423 21.0537 113.75 27.3054 119.313C33.5571 124.876 41.8655 127.802 50.1956 128.442C54.631 128.783 59.2647 128.468 63.205 126.4C67.3728 124.212 70.4104 120.257 74.5946 118.102C78.473 116.096 83.0084 115.823 87.3619 116.084C93.0641 116.425 98.683 117.621 104.031 119.632C110.116 121.922 115.774 125.237 121.845 127.558C127.917 129.879 134.7 131.175 140.906 129.237C146.73 127.414 151.342 123.001 155.497 118.525C162.317 111.178 168.537 103.294 174.098 94.9498C177.845 89.3268 181.332 83.3938 182.99 76.839C186.157 64.3093 181.798 50.1715 172.127 41.6129C164.119 34.524 153.364 31.4462 142.839 29.5792C133.242 27.8762 122.146 27.7705 113.311 23.3326C104.885 19.0934 97.219 13.8697 88.3847 10.2705Z" fill="#6BDE78"/>
<path fill-rule="evenodd" clip-rule="evenodd" d="M156.769 29.0484C156.607 28.7549 156.738 22.0324 159.337 21.9285C161.934 21.8264 159.215 28.7585 159.215 28.7585L159.066 30.3995L159.172 33.2876L158.85 38.1704C158.85 38.1704 158.804 40.3073 157.566 41.3101L154.472 45.954V45.9923H154.451L154.412 46.0507C154.321 46.3296 153.173 47.5093 153.173 47.5093C153.173 47.5093 149.879 49.7046 148.821 50.0875C147.764 50.4704 146.373 52.4322 146.373 52.4322L144.979 55.2273C144.979 55.2273 142.491 57.0707 142.249 57.5575C142.082 57.8912 142.095 58.4819 142.118 58.8211C142.129 58.9742 142.144 59.0745 142.144 59.0745L142.249 59.1638C142.235 59.2143 142.226 59.2663 142.224 59.3188L142.249 59.3407C142.226 59.4386 142.215 59.5391 142.217 59.6397C142.22 59.8786 142.238 60.1502 142.255 60.3508C142.268 60.5204 142.278 60.6371 142.278 60.6371L142.763 62.8633C142.841 63.1016 142.902 63.3454 142.945 63.5926L143.047 63.5616C143.081 63.7567 143.112 63.9664 143.141 64.1907L143.045 64.2344V64.28C143.39 67.0788 143.208 71.792 143.208 71.792C143.208 71.792 143.966 78.2428 143.602 78.5382C143.238 78.8336 143.54 79.8364 143.54 79.8364C143.812 80.4091 143.976 81.0272 144.024 81.6597C144.023 82.1547 144.148 82.6418 144.388 83.0745L144.268 85.9918L144.57 92.3314C144.57 92.3314 145.296 94.1037 144.812 94.7801C144.328 95.4566 144.359 97.1376 144.359 97.1376C144.179 97.2634 144.006 97.371 143.836 97.4658V97.6482L143.951 100.598V100.764C143.951 100.764 143.964 100.844 143.975 100.977V101.05C143.974 101.058 143.974 101.065 143.975 101.072V101.136C143.974 101.153 143.974 101.169 143.975 101.185V101.266V101.504V101.607V101.636V101.681V101.741C143.975 101.745 143.975 101.747 143.976 101.748C143.976 101.751 143.977 101.753 143.975 101.772C143.973 101.784 143.971 101.795 143.968 101.807C143.964 101.825 143.96 101.843 143.96 101.862V101.885C143.958 101.898 143.955 101.911 143.951 101.923C143.946 101.944 143.94 101.964 143.94 101.984C143.938 101.995 143.933 102.007 143.929 102.018C143.922 102.039 143.915 102.06 143.915 102.081C143.916 102.084 143.916 102.088 143.915 102.092V102.101C143.9 102.117 143.9 102.135 143.9 102.152C143.899 102.158 143.899 102.164 143.9 102.17C143.9 102.173 143.9 102.175 143.9 102.177C143.898 102.183 143.895 102.189 143.893 102.195C143.886 102.209 143.88 102.223 143.88 102.237V102.252C143.864 102.303 143.844 102.354 143.824 102.405V102.422C143.821 102.428 143.817 102.435 143.813 102.441C143.805 102.454 143.798 102.466 143.798 102.478L143.785 102.504C143.783 102.509 143.779 102.515 143.775 102.521C143.769 102.532 143.762 102.542 143.762 102.553C143.758 102.562 143.753 102.571 143.747 102.58C143.745 102.585 143.741 102.59 143.738 102.595C143.731 102.605 143.724 102.615 143.724 102.626L143.707 102.653C143.704 102.658 143.701 102.662 143.697 102.667C143.69 102.677 143.682 102.687 143.682 102.697C143.675 102.706 143.669 102.716 143.663 102.726L143.634 102.768L143.616 102.795L143.585 102.837L143.565 102.865C143.555 102.879 143.543 102.892 143.531 102.905L143.511 102.932L143.471 102.974L143.452 102.996L143.39 103.056L143.37 103.076L143.325 103.116L143.294 103.142C143.281 103.153 143.268 103.163 143.254 103.173C143.243 103.182 143.232 103.191 143.219 103.198L143.179 103.227L143.143 103.253L143.101 103.279L143.061 103.304L143.017 103.328L142.976 103.35L142.93 103.373L142.885 103.393L142.837 103.413L142.788 103.433C142.772 103.441 142.756 103.447 142.739 103.452L142.688 103.47L142.635 103.486L142.55 103.512L142.479 103.53L142.42 103.541L142.362 103.554L142.302 103.563L142.24 103.574H142.178H142.115H142.049H141.982H141.914H141.631H141.545H141.478H141.378H141.319L141.154 103.554C141.154 103.554 139.092 103.862 139.022 103.045C139.013 103.003 139.013 102.948 139.013 102.914V102.808C139.013 102.802 139.013 102.795 139.013 102.788C139.013 102.783 139.013 102.778 139.013 102.773V102.644V102.624V102.484V102.467V102.432V102.387V102.143V102.05V101.805V101.791V101.734C139.026 101.328 139.046 100.954 139.059 100.744C139.07 100.627 139.07 100.562 139.07 100.562C139.07 100.562 139.772 99.5006 139.659 99.1031C139.547 98.7057 139.568 97.3564 139.568 97.3564C139.568 97.3564 139.643 97.1832 139.738 96.9371L139.745 96.9188C139.758 96.8874 139.771 96.8539 139.783 96.8204C139.739 96.7654 139.698 96.7082 139.659 96.649C139.659 96.649 139.872 94.9387 139.508 93.5822C139.295 92.7024 139.274 91.7868 139.448 90.8983C139.448 90.8983 139.385 88.1816 139.235 87.7987C139.086 87.4158 139.026 86.2945 139.086 85.8824C139.146 85.4704 138.693 84.5259 138.693 84.5259C138.693 84.5259 138.691 83.348 138.48 83.0818C138.269 82.8156 138.027 80.9285 138.027 80.9285L136.571 75.6209C136.571 75.6209 135.97 72.4101 135.726 71.7008C135.483 70.9916 135.18 71.1392 135.18 71.1392L134.238 74.9116L133.573 81.3971C133.24 82.1337 133.391 83.8458 133.391 83.8458L133.604 86.351L133.253 90.6558C133.252 90.6631 133.252 90.6704 133.253 90.6777C133.253 90.7628 133.294 90.8425 133.364 90.891C133.959 92.1905 134.138 93.6426 133.877 95.0481C133.744 95.2378 133.6 95.4203 133.448 95.5951C133.451 95.6049 133.454 95.6147 133.457 95.6246C133.467 95.6574 133.477 95.691 133.488 95.7246C133.672 96.2971 133.945 96.9444 133.945 96.9444C133.945 96.9444 133.97 98.2936 133.855 98.6911C133.741 99.0886 134.443 100.15 134.443 100.15C134.443 100.15 134.454 100.221 134.454 100.332C134.467 100.542 134.487 100.917 134.5 101.322V101.379V101.391V101.639V101.731V101.975V102.073V102.212V102.232V102.36C134.499 102.372 134.499 102.385 134.5 102.398V102.502C134.491 102.547 134.491 102.591 134.491 102.633C134.423 103.45 132.361 103.142 132.361 103.142L132.196 103.16H132.136L132.037 103.169H131.968H131.884H131.597H131.53H131.462H131.397H131.333H131.269L131.209 103.16H131.147L131.089 103.147L131.033 103.136L130.962 103.118L130.876 103.093L130.822 103.076L130.771 103.058L130.721 103.04L130.672 103.02L130.627 103L130.581 102.978L130.536 102.956L130.492 102.934L130.45 102.908L130.408 102.885L130.368 102.859L130.33 102.834L130.29 102.804L130.256 102.779L130.215 102.746L130.186 102.722C130.17 102.709 130.155 102.695 130.141 102.68C130.133 102.675 130.127 102.669 130.121 102.662L130.059 102.602L130.039 102.58L130.001 102.536L129.979 102.511L129.946 102.471L129.924 102.443L129.895 102.401L129.875 102.374L129.848 102.332C129.844 102.325 129.842 102.321 129.838 102.316C129.836 102.313 129.833 102.309 129.83 102.303C129.827 102.299 129.823 102.294 129.82 102.29C129.812 102.279 129.804 102.269 129.804 102.259L129.788 102.232L129.762 102.186L129.748 102.159L129.724 102.11L129.713 102.084C129.711 102.079 129.707 102.074 129.704 102.068C129.696 102.055 129.688 102.041 129.688 102.028C129.687 102.022 129.687 102.017 129.688 102.011C129.666 101.96 129.648 101.909 129.629 101.858L129.629 101.858V101.844C129.627 101.835 129.624 101.827 129.621 101.819C129.616 101.806 129.611 101.794 129.611 101.782C129.61 101.774 129.61 101.766 129.611 101.758C129.61 101.754 129.608 101.749 129.606 101.745C129.602 101.732 129.597 101.719 129.597 101.707C129.598 101.703 129.598 101.699 129.597 101.696C129.594 101.687 129.591 101.678 129.588 101.669C129.581 101.645 129.573 101.621 129.573 101.597C129.571 101.588 129.568 101.578 129.566 101.569C129.559 101.545 129.553 101.522 129.553 101.497C129.552 101.49 129.552 101.483 129.553 101.475C129.551 101.466 129.549 101.457 129.547 101.448C129.543 101.427 129.538 101.406 129.538 101.384V101.355V101.295V101.249V101.22V101.118V100.879V100.843C129.539 100.828 129.539 100.813 129.538 100.799C129.538 100.782 129.538 100.766 129.538 100.75V100.686C129.538 100.679 129.538 100.671 129.538 100.664V100.589C129.549 100.456 129.564 100.376 129.564 100.376V100.208L129.682 97.1595V96.9772C129.391 96.9075 129.111 96.7989 128.849 96.6545C128.786 95.9116 128.601 95.1842 128.303 94.5011C127.788 93.2631 128.394 88.2509 128.394 88.2509L127.94 85.0072C127.94 85.0072 127.91 83.0673 127.819 82.7956C127.728 82.5239 127.758 80.6076 127.758 80.6076L127.819 78.5747C127.032 75.9783 127.425 71.8813 127.425 71.8813C127.425 71.8813 127.305 65.3357 127.547 65.0403C127.653 64.9113 127.654 64.505 127.656 64.0495C127.656 63.7517 127.657 63.4329 127.688 63.1569C127.69 63.1324 127.694 63.1086 127.698 63.0854C127.704 63.053 127.709 63.0217 127.709 62.9909L127.688 62.98C127.697 62.7661 127.759 62.558 127.87 62.3747L127.962 62.4111C128.277 61.7967 128.275 60.1229 128.246 59.4373C128.23 59.0471 128.505 58.4145 128.763 57.9076C128.936 57.5735 129.102 57.2948 129.175 57.1729L129.184 57.1582V56.9759V56.7935C129.171 56.3924 129.153 55.902 129.131 55.4808C129.085 54.6111 129.766 53.1232 129.766 53.1232L131.02 50.1148C130.898 49.5405 131.593 48.0217 131.593 48.0217C131.469 47.7992 132.199 45.6058 132.379 45.3979C132.56 45.1901 132.864 43.6421 132.864 43.6421C133.239 43.1115 133.785 40.4149 133.785 40.4149C133.785 40.4149 134.405 36.9816 134.54 36.1392C134.674 35.2969 136.198 33.3697 136.247 33.3095L136.227 33.3459C136.775 32.9696 137.236 32.4789 137.577 31.9074C138.196 30.9046 138.62 30.2117 138.62 30.2117C138.62 30.2117 139.299 28.6345 140.371 27.7065C141.116 27.0847 141.915 26.5318 142.759 26.0546L147.187 23.4892C147.187 23.4892 148.183 22.769 148.878 22.5776C149.059 22.5277 149.662 22.0573 150.433 21.4555C152.622 19.7474 156.167 16.9805 155.284 19.7606C154.09 23.5202 150.45 24.5522 150.45 24.5522C150.45 24.5522 148.017 26.308 147.669 26.8678C147.322 27.4275 144.331 29.7869 143.545 30.0968C142.759 30.4068 142.155 30.921 142.366 31.6138C142.381 31.6823 142.381 31.7532 142.366 31.8217C142.534 31.8179 142.701 31.8002 142.866 31.7688C143.205 31.6903 143.497 31.4795 143.68 31.1835C143.74 31.061 143.809 30.9433 143.887 30.8316C144.168 30.4797 144.712 30.4888 145.161 30.5782C145.616 30.6683 146.059 30.8064 146.484 30.9902C146.764 31.126 147.053 31.2423 147.349 31.3385C147.68 31.428 148.033 31.4411 148.383 31.4541C148.911 31.4737 149.433 31.4931 149.862 31.7724C150.221 32.0166 150.464 32.3966 150.536 32.8245C150.603 33.2472 150.546 33.6801 150.374 34.0716C150.34 34.1521 150.303 34.2333 150.266 34.3152C150.103 34.6712 149.935 35.0381 150.059 35.3953C150.115 35.5532 150.222 35.6845 150.328 35.8161C150.394 35.8973 150.46 35.9786 150.514 36.0663C150.719 36.427 150.755 36.8603 150.61 37.2496C150.64 37.2059 150.669 37.1603 150.696 37.1147C150.675 37.1975 150.648 37.2786 150.614 37.3572C150.423 37.7689 150.123 38.1206 149.748 38.3746C149.61 38.4839 149.451 38.5639 149.282 38.6098C149.229 38.621 149.175 38.6259 149.122 38.6244C148.999 38.6317 148.878 38.5977 148.778 38.5278C148.739 38.5989 148.699 38.67 148.656 38.7393C148.253 39.3799 147.68 39.8952 147.001 40.2271C146.954 40.3893 146.916 40.548 146.885 40.7011C146.949 40.7328 147.01 40.7707 147.067 40.8142L147.112 42.1707C147.112 42.1707 147.149 42.2272 147.205 42.302C147.325 42.4588 147.536 42.7068 147.671 42.6666C147.868 42.6083 149.378 42.7542 149.378 42.7542C149.378 42.7542 149.91 42.9839 150.106 42.6958C150.303 42.4077 151.42 41.6784 151.42 41.6784L151.517 41.5745C151.901 41.1715 153.348 39.702 154.502 39.2461C154.502 39.2461 155.273 38.6864 155.137 37.8313C155 36.9761 156.18 32.376 156.18 32.376C156.18 32.376 156.931 29.342 156.769 29.0484ZM141.101 36.5002C141.101 35.821 141.278 35.1536 141.614 34.5639L141.709 34.4107L141.432 34.3414C141.353 34.3225 141.276 34.2969 141.201 34.2648C140.751 35.0142 140.316 35.6724 140.187 35.8675C140.162 35.904 140.149 35.9259 140.149 35.9259L140.133 35.9404C140.02 36.0936 140.103 36.987 140.103 36.987C140.103 36.987 140.557 37.3116 140.588 37.782C140.613 38.174 141.061 38.7647 141.214 38.958C141.274 38.7603 141.376 38.578 141.514 38.4238C141.242 37.8817 141.101 37.2836 141.101 36.6771V36.5987V36.5002Z" fill="url(#paint0_linear)"/>
<path d="M150.43 34.0717C150.458 34.0097 150.479 33.9441 150.501 33.8784C150.432 34.0235 150.371 34.1727 150.319 34.3251C150.358 34.2394 150.396 34.1556 150.43 34.0717Z" fill="url(#paint1_linear)"/>
<path d="M142.423 38.4074C142.423 38.4074 141.853 41.1278 140.803 41.4797C139.753 41.8316 142.077 44.9439 142.077 44.9439L146.894 44.6795L146.982 43.6713C146.982 43.6713 146.072 41.6529 147.595 39.1969C149.118 36.7409 142.423 38.4074 142.423 38.4074Z" fill="#F6BAC2"/>
<path d="M134.868 102.637C134.802 103.448 132.809 103.142 132.809 103.142C129.504 103.601 130.05 100.356 130.05 100.356V100.19L130.165 97.1633L130.197 96.3191C130.197 96.3191 133.837 94.6526 133.745 95.0027C133.71 95.134 133.786 95.4494 133.892 95.7903C134.074 96.3574 134.334 96.9992 134.334 96.9992C134.334 96.9992 134.356 98.3375 134.247 98.7313C134.138 99.1251 134.817 100.179 134.817 100.179C134.817 100.179 134.817 100.245 134.828 100.361C134.881 101.119 134.895 101.878 134.868 102.637Z" fill="#B77983"/>
<path d="M141.24 103.514C141.24 103.514 139.247 103.822 139.181 103.009C139.151 102.249 139.163 101.487 139.216 100.728C139.216 100.619 139.225 100.546 139.225 100.546C139.225 100.546 139.904 99.4918 139.795 99.098C139.685 98.7042 139.707 97.364 139.707 97.364C139.707 97.364 139.778 97.1945 139.871 96.9502C140.066 96.4378 140.359 95.6064 140.299 95.3694C140.211 95.0175 143.846 96.684 143.846 96.684L143.882 97.6284L143.993 100.555V100.721C143.993 100.721 144.547 103.975 141.24 103.514Z" fill="#B77983"/>
<path d="M154.902 20.4062C153.745 24.1349 150.232 25.1596 150.232 25.1596C150.232 25.1596 147.881 26.9063 147.546 27.4533C147.211 28.0003 144.321 30.3487 143.56 30.6568C142.799 30.965 142.219 31.4755 142.422 32.161C142.604 32.7974 140.613 35.9116 140.313 36.3747L140.277 36.433L139.649 37.0912L137.518 38.1724L135.781 37.6163L135.561 35.5268L136.482 33.8859C137.015 33.5098 137.46 33.0228 137.787 32.4582C138.386 31.4627 138.795 30.7772 138.795 30.7772C138.795 30.7772 139.452 29.2128 140.488 28.2902C141.204 27.6731 141.976 27.1238 142.794 26.6492L147.073 24.0966C147.073 24.0966 148.035 23.38 148.711 23.1849C149.386 22.9899 156.056 16.6776 154.902 20.4062Z" fill="#F6BAC2"/>
<path opacity="0.05" d="M137.518 36.8287L140.364 36.258C140.333 36.2899 140.315 36.3321 140.313 36.3765L140.277 36.4348L139.649 37.0931L137.518 38.1743L135.781 37.6182L135.561 35.5287L136.482 33.8877C135.61 35.711 136.46 37.0055 136.46 37.0055L137.518 36.8287Z" fill="black"/>
<path opacity="0.05" d="M154.163 46.2478C154.155 46.2668 154.149 46.2863 154.143 46.3061C154.116 46.3713 154.081 46.4326 154.038 46.4884L152.889 47.05L151.137 47.2323L150.227 45.0243L150.833 42.6048L151.168 42.1526L151.26 42.0505C151.295 42.4881 151.471 44.7709 151.461 45.4565C151.446 46.2168 152.007 46.2769 152.007 46.2769L154.163 46.2478Z" fill="black"/>
<path d="M154.076 46.4156C154.068 46.4347 154.061 46.4541 154.056 46.474C153.968 46.7511 152.86 47.9216 152.86 47.9216C152.86 47.9216 149.677 50.1005 148.656 50.4743C147.635 50.848 146.29 52.799 146.29 52.799L144.947 55.5758C144.947 55.5758 142.539 57.3991 142.306 57.8878C142.144 58.2196 142.157 58.7994 142.18 59.1422C142.18 59.2935 142.202 59.3938 142.202 59.3938L141.492 60.1359L140.926 60.7267L140.129 61.5581L138.831 61.3758L134.787 60.7321L134.012 60.2945L129.708 57.8659C129.708 57.8659 129.708 57.7146 129.697 57.483C129.697 57.3809 129.697 57.2642 129.686 57.1348C129.673 56.7409 129.655 56.2505 129.635 55.8329C129.591 54.9705 130.248 53.4936 130.248 53.4936L131.459 50.5089C131.342 49.94 132.014 48.4322 132.014 48.4322C131.897 48.2134 132.598 46.0345 132.773 45.8303C132.947 45.6261 133.24 44.0891 133.24 44.0891C133.604 43.564 134.13 40.8874 134.13 40.8874C134.13 40.8874 134.729 37.4942 134.858 36.6464C134.988 35.7986 136.46 33.8987 136.507 33.8403C135.457 35.7694 136.376 37.1733 136.376 37.1733L137.428 36.991L140.276 36.4349C140.145 36.5224 140.233 37.4869 140.233 37.4869C140.485 37.6791 140.652 37.9624 140.699 38.2764C140.726 38.7049 141.245 39.3704 141.341 39.4889L141.356 39.5053C141.43 39.0934 141.681 38.7348 142.042 38.5244L142.699 39.4032L142.919 40.4553C142.919 40.4553 142.859 40.6029 142.48 40.8947C142.102 41.1864 142.641 41.9467 142.641 41.9467C142.823 42.2548 142.875 43.3944 142.875 43.3944C143.358 42.9714 144.115 42.9714 144.115 42.9714C144.423 42.6614 144.675 42.2998 144.859 41.9029C144.89 41.7713 144.98 41.6613 145.102 41.6044C145.225 41.5475 145.367 41.55 145.487 41.6112C145.707 41.4199 145.947 41.2531 146.202 41.1135C146.554 40.9311 146.961 41.2958 146.961 41.2958L147.005 42.6432C147.005 42.6432 147.04 42.6979 147.096 42.7727C147.211 42.9331 147.416 43.1793 147.546 43.1373C147.728 43.079 149.194 43.2248 149.194 43.2248C149.194 43.2248 149.706 43.4436 149.895 43.1665C150.084 42.8894 151.169 42.1582 151.169 42.1582C151.169 42.1582 151.378 44.8731 151.378 45.6316C151.378 46.3901 151.924 46.4521 151.924 46.4521L154.076 46.4156Z" fill="#D39999"/>
<path d="M142.131 44.9004C142.276 44.9004 142.394 44.7828 142.394 44.6378C142.394 44.4928 142.276 44.3752 142.131 44.3752C141.987 44.3752 141.869 44.4928 141.869 44.6378C141.869 44.7828 141.987 44.9004 142.131 44.9004Z" fill="#4B4442"/>
<path d="M140.218 48.7182C140.363 48.7182 140.48 48.6007 140.48 48.4557C140.48 48.3107 140.363 48.1931 140.218 48.1931C140.074 48.1931 139.956 48.3107 139.956 48.4557C139.956 48.6007 140.074 48.7182 140.218 48.7182Z" fill="#4B4442"/>
<path d="M136.453 56.8921C136.597 56.8921 136.715 56.7745 136.715 56.6295C136.715 56.4845 136.597 56.3669 136.453 56.3669C136.308 56.3669 136.191 56.4845 136.191 56.6295C136.191 56.7745 136.308 56.8921 136.453 56.8921Z" fill="#4B4442"/>
<path d="M138.233 52.7678C138.378 52.7678 138.495 52.6502 138.495 52.5052C138.495 52.3602 138.378 52.2427 138.233 52.2427C138.088 52.2427 137.971 52.3602 137.971 52.5052C137.971 52.6502 138.088 52.7678 138.233 52.7678Z" fill="#4B4442"/>
<path opacity="0.05" d="M133.907 95.7903C132.538 97.4204 131.06 97.393 130.179 97.1633L130.212 96.3191C130.212 96.3191 133.852 94.6526 133.759 95.0027C133.725 95.134 133.794 95.4494 133.907 95.7903Z" fill="black"/>
<path opacity="0.05" d="M143.882 97.6355C141.558 98.9811 140.195 97.4039 139.878 96.9572C140.073 96.4449 140.366 95.6135 140.306 95.3764C140.219 95.0245 143.853 96.691 143.853 96.691L143.882 97.6355Z" fill="black"/>
<path d="M144.816 94.7986C144.35 95.4714 144.377 97.1379 144.377 97.1379C141.37 99.3021 139.794 96.6693 139.794 96.6693C139.794 96.6693 139.998 94.9736 139.649 93.628C139.442 92.7548 139.422 91.8475 139.59 90.966C139.59 90.966 139.532 88.2748 139.385 87.8956C139.237 87.5163 139.181 86.4041 139.239 85.9939C139.297 85.5836 138.861 84.6501 138.861 84.6501C138.861 84.6501 138.861 83.4795 138.655 83.217C138.449 82.9544 138.218 81.0801 138.218 81.0801L136.819 75.8162C136.819 75.8162 136.234 72.6291 136.001 71.9271C135.768 71.2252 135.475 71.371 135.475 71.371L134.635 75.1434L133.992 81.5779C133.67 82.3072 133.81 84.0065 133.81 84.0065L134.014 86.4916L133.675 90.7618C133.674 90.7691 133.674 90.7764 133.675 90.7837C133.675 90.867 133.714 90.9456 133.781 90.9952C134.355 92.2891 134.526 93.7267 134.271 95.1195C132.052 98.3376 129.366 96.6693 129.366 96.6693C129.307 95.9345 129.13 95.2141 128.841 94.536C128.345 93.3071 128.929 88.3368 128.929 88.3368L128.49 85.1187C128.49 85.1187 128.461 83.1878 128.374 82.9307C128.286 82.6737 128.315 80.7665 128.315 80.7665L128.374 78.7481C127.615 76.1736 127.993 72.1095 127.993 72.1095C127.993 72.1095 127.877 65.6167 128.112 65.3232C128.281 65.1117 128.174 64.149 128.246 63.4543C128.254 63.2434 128.313 63.0376 128.417 62.8544L128.447 62.8252C128.827 62.3567 128.827 60.486 128.796 59.753C128.781 59.3664 129.045 58.7392 129.296 58.236C129.478 57.8823 129.644 57.5906 129.706 57.4848L129.731 57.4429C129.731 57.4429 131.395 57.8531 135.803 59.959C136.592 60.3504 137.439 60.6133 138.311 60.7376C138.745 60.7957 139.184 60.8024 139.62 60.7576C140.284 60.6936 140.926 60.4845 141.501 60.145C141.805 59.9713 142.08 59.7504 142.315 59.4904C142.255 59.6728 142.291 60.2963 142.315 60.6683C142.326 60.8378 142.339 60.9527 142.339 60.9527L142.825 63.1224C142.904 63.3797 142.965 63.6424 143.007 63.9083C143.041 64.1016 143.07 64.3112 143.098 64.5337C143.438 67.3087 143.256 71.9855 143.256 71.9855C143.256 71.9855 143.984 78.3907 143.636 78.6825C143.289 78.9742 143.576 79.9697 143.576 79.9697C143.84 80.5404 143.999 81.1545 144.044 81.7821C144.041 82.2722 144.162 82.755 144.395 83.186L144.277 86.0814L144.583 92.3626C144.583 92.3626 145.283 94.1258 144.816 94.7986Z" fill="#8499F0"/>
<path opacity="0.05" d="M141.392 84.2106C141.392 84.2106 143.603 82.9343 144.086 83.5087C144.568 84.083 141.392 84.2106 141.392 84.2106Z" fill="black"/>
<path opacity="0.05" d="M142.728 84.9124C142.728 84.9124 142.364 85.0947 143.167 85.3281C143.969 85.5614 142.728 84.9124 142.728 84.9124Z" fill="black"/>
<path opacity="0.05" d="M129.357 81.4028C129.282 81.4247 131.197 82.6974 132.926 81.6435C132.918 81.6435 129.788 81.2715 129.357 81.4028Z" fill="black"/>
<path opacity="0.05" d="M132.831 83.8369C132.831 83.8369 132.307 84.8689 131.233 85.0221C130.159 85.1752 132.831 83.8369 132.831 83.8369Z" fill="black"/>
<path opacity="0.05" d="M139.86 86.0759C139.86 86.0759 142.379 90.0872 141.897 91.0335C141.414 91.9798 139.86 86.0759 139.86 86.0759Z" fill="black"/>
<path opacity="0.05" d="M135.612 61.7478L135.35 69.6007C135.35 69.6007 136.904 69.5351 137.17 66.9478C137.435 64.3606 137.63 62.2529 137.63 62.2529L135.612 61.7478Z" fill="black"/>
<path d="M135.525 61.5723L135.262 69.4252C135.262 69.4252 136.817 69.3596 137.082 66.7705C137.348 64.1814 137.547 62.0773 137.547 62.0773L135.525 61.5723Z" fill="#8499F0"/>
<path opacity="0.05" d="M132.372 61.9244C132.372 61.9244 131.146 65.2191 128.339 63.6237C128.347 63.4128 128.406 63.2069 128.51 63.0238C129.278 63.3466 131.058 63.8188 131.786 61.6819L132.372 61.9244Z" fill="black"/>
<path opacity="0.05" d="M132.285 61.5725C132.285 61.5725 131.058 64.8672 128.252 63.2718C128.26 63.0609 128.318 62.855 128.423 62.6719C129.191 62.9965 130.971 63.4669 131.699 61.3318L132.285 61.5725Z" fill="black"/>
<path d="M132.285 61.7475C132.285 61.7475 131.058 65.0422 128.252 63.4468C128.26 63.2359 128.318 63.0301 128.423 62.847C129.191 63.1715 130.971 63.6419 131.699 61.5068L132.285 61.7475Z" fill="#8499F0"/>
<path opacity="0.05" d="M143.023 64.7086C139.94 66.1781 138.81 62.7139 138.81 62.7139L139.538 62.7357C139.665 64.9511 142.102 64.3548 142.937 64.0832C142.966 64.2837 142.996 64.4861 143.023 64.7086Z" fill="black"/>
<path opacity="0.05" d="M143.198 64.4462C140.116 65.914 138.984 62.4497 138.984 62.4497L139.712 62.4716C139.84 64.6869 142.277 64.0925 143.112 63.8208C143.141 64.0141 143.17 64.2238 143.198 64.4462Z" fill="black"/>
<path d="M143.111 64.5334C140.029 66.0011 138.897 62.5369 138.897 62.5369L139.625 62.5587C139.753 64.7759 142.19 64.1797 143.025 63.908C143.054 64.1013 143.083 64.3109 143.111 64.5334Z" fill="#8499F0"/>
<path opacity="0.1" d="M132.285 61.7475C132.285 61.7475 131.058 65.0422 128.252 63.4468C128.26 63.2359 128.318 63.0301 128.423 62.847C129.191 63.1715 130.971 63.6419 131.699 61.5068L132.285 61.7475Z" fill="white"/>
<path opacity="0.1" d="M143.111 64.5334C140.029 66.0011 138.897 62.5369 138.897 62.5369L139.625 62.5587C139.753 64.7759 142.19 64.1797 143.025 63.908C143.054 64.1013 143.083 64.3109 143.111 64.5334Z" fill="white"/>
<path opacity="0.05" d="M134.89 102.026C134.89 102.25 134.89 102.46 134.868 102.633C134.802 103.444 132.809 103.138 132.809 103.138C130.989 103.392 130.334 102.516 130.118 101.68C130.049 101.408 130.016 101.128 130.017 100.848C130.016 100.681 130.027 100.514 130.05 100.349V100.183C130.442 100.064 130.868 100.151 131.182 100.414C131.992 101.072 133.066 100.567 133.066 100.567C133.066 100.567 133.854 100.633 134.158 100.896C134.329 101.043 134.611 100.688 134.826 100.349C134.839 100.567 134.859 100.963 134.871 101.386C134.886 101.603 134.89 101.822 134.89 102.026Z" fill="black"/>
<path opacity="0.05" d="M131.694 101.979C131.694 101.979 131.148 102.515 130.117 101.687C130.049 101.415 130.016 101.136 130.017 100.855C130.543 101.257 131.519 101.979 131.694 101.979Z" fill="black"/>
<path opacity="0.05" d="M134.889 102.026C134.8 102.095 134.685 102.124 134.573 102.106C134.461 102.088 134.362 102.025 134.298 101.931C134.51 101.769 134.705 101.586 134.88 101.384C134.886 101.603 134.889 101.822 134.889 102.026Z" fill="black"/>
<path opacity="0.05" d="M139.161 102.401C139.161 102.627 139.161 102.837 139.181 103.008C139.246 103.822 141.239 103.513 141.239 103.513C143.059 103.769 143.714 102.893 143.931 102.055C144.038 101.62 144.061 101.168 143.998 100.724V100.558C143.606 100.441 143.181 100.528 142.865 100.789C142.055 101.448 140.983 100.943 140.983 100.943C140.983 100.943 140.195 101.01 139.891 101.273C139.72 101.42 139.437 101.065 139.225 100.726C139.212 100.944 139.19 101.34 139.177 101.763C139.163 101.976 139.159 102.195 139.161 102.401Z" fill="black"/>
<path opacity="0.05" d="M142.357 102.351C142.357 102.351 142.903 102.887 143.931 102.059C144 101.788 144.034 101.509 144.033 101.229C143.505 101.629 142.53 102.351 142.357 102.351Z" fill="black"/>
<path opacity="0.05" d="M139.161 102.402C139.25 102.471 139.365 102.5 139.476 102.482C139.588 102.464 139.687 102.401 139.751 102.307C139.538 102.145 139.343 101.962 139.168 101.76C139.163 101.977 139.159 102.196 139.161 102.402Z" fill="black"/>
<path opacity="0.05" d="M136.759 46.4155C136.759 46.4155 133.956 54.1664 135.035 54.8392C136.114 55.512 136.759 46.4155 136.759 46.4155Z" fill="black"/>
<path opacity="0.05" d="M138.802 44.0232C138.802 44.0232 138.275 46.5977 138.538 46.8311C138.802 47.0645 138.802 44.0232 138.802 44.0232Z" fill="black"/>
<path opacity="0.05" d="M144.463 50.0198C144.463 50.0198 141.018 53.2361 141.251 53.5004C141.484 53.7648 144.463 50.0198 144.463 50.0198Z" fill="black"/>
<path opacity="0.05" d="M147.096 42.9403C145.791 43.3396 142.741 44.2731 142.706 44.2658L142.876 43.5693C143.358 43.1463 144.115 43.1463 144.115 43.1463C144.423 42.8363 144.675 42.4747 144.859 42.0778C144.89 41.9462 144.98 41.8362 145.103 41.7793C145.225 41.7224 145.367 41.7249 145.487 41.7861C145.708 41.5955 145.947 41.4286 146.203 41.2884C146.554 41.106 146.961 41.4707 146.961 41.4707L147.005 42.8163C147.005 42.8163 147.04 42.8655 147.096 42.9403Z" fill="black"/>
<path d="M147.096 42.7689C145.791 43.1682 142.741 44.1017 142.706 44.0926L142.876 43.3979C143.358 42.9749 144.115 42.9749 144.115 42.9749C144.423 42.6649 144.675 42.3033 144.859 41.9065C144.89 41.7748 144.98 41.6648 145.103 41.6079C145.225 41.551 145.367 41.5535 145.487 41.6147C145.707 41.4235 145.947 41.2566 146.203 41.117C146.554 40.9346 146.961 41.2993 146.961 41.2993L147.005 42.6467C147.005 42.6467 147.04 42.6905 147.096 42.7689Z" fill="#D39999"/>
<path opacity="0.05" d="M142.553 42.0395C142.735 42.3476 142.786 43.4872 142.786 43.4872L142.279 43.892L141.314 41.106L141.27 39.6583L141.252 39.5762L141.267 39.5926C141.34 39.181 141.591 38.8228 141.953 38.6135L142.61 39.4905L142.83 40.5426C142.83 40.5426 142.77 40.6903 142.392 40.982C142.013 41.2737 142.553 42.0395 142.553 42.0395Z" fill="black"/>
<path d="M142.643 41.9467C142.825 42.2549 142.878 43.3944 142.878 43.3944L142.37 43.8047L141.405 41.0187L141.362 39.571L141.342 39.4889L141.356 39.5053C141.43 39.0934 141.681 38.7348 142.042 38.5244L142.699 39.4032L142.919 40.4553C142.919 40.4553 142.859 40.603 142.481 40.8947C142.102 41.1864 142.643 41.9467 142.643 41.9467Z" fill="#D39999"/>
<path opacity="0.05" d="M149.078 37.1808C149.077 39.3607 147.313 41.1271 145.137 41.1265C142.961 41.1258 141.197 39.3583 141.198 37.1784C141.198 34.9985 142.962 33.2316 145.138 33.2316C146.186 33.2227 147.194 33.636 147.935 34.3786C148.676 35.1213 149.088 36.1309 149.078 37.1808Z" fill="black"/>
<path d="M149.078 37.0037C149.079 38.6013 148.119 40.042 146.646 40.6538C145.173 41.2655 143.477 40.9277 142.349 39.798C141.221 38.6683 140.884 36.9692 141.495 35.4933C142.105 34.0174 143.543 33.0555 145.138 33.0562C146.185 33.0504 147.191 33.4644 147.931 34.2059C148.671 34.9475 149.084 35.9549 149.078 37.0037Z" fill="#F6BAC2"/>
<path opacity="0.05" d="M149.078 37.0037C149.08 37.7273 148.881 38.4372 148.505 39.0549C148.447 38.951 148.412 38.8306 148.354 38.7249C148.272 38.5772 148.083 38.4532 147.943 38.5426C147.884 38.5906 147.839 38.6536 147.814 38.7249C147.699 38.9674 147.495 39.2099 147.227 39.2044C146.989 39.1789 146.791 39.0094 146.729 38.7778C146.673 38.5499 146.663 38.313 146.7 38.0813C146.74 37.6072 146.747 37.0602 146.396 36.7411C146.169 36.575 145.91 36.4588 145.635 36.4002C145.367 36.3127 145.089 36.1741 144.98 35.9152C144.907 35.7329 144.925 35.5396 144.86 35.3682C144.722 35.0895 144.458 34.8951 144.152 34.8467C143.804 35.1345 143.363 35.2855 142.912 35.2716C142.499 35.2618 142.089 35.1968 141.693 35.0783C142.567 33.5077 144.389 32.7266 146.126 33.1782C147.864 33.6299 149.077 35.2001 149.078 36.9982V37.0037Z" fill="black"/>
<path d="M144.859 35.1966C144.925 35.379 144.907 35.5759 144.98 35.7436C145.087 36.0025 145.367 36.1411 145.635 36.2286C145.909 36.287 146.168 36.4025 146.396 36.5677C146.747 36.8886 146.74 37.4356 146.699 37.9097C146.663 38.1415 146.672 38.3783 146.729 38.6062C146.792 38.8373 146.99 39.0063 147.227 39.0328C147.495 39.0328 147.699 38.7958 147.813 38.5533C147.839 38.4821 147.884 38.4191 147.943 38.371C148.083 38.278 148.272 38.402 148.354 38.5533C148.411 38.7112 148.49 38.8603 148.589 38.9964C148.72 39.1101 148.9 39.151 149.067 39.1058C149.232 39.0607 149.385 38.9812 149.517 38.8724C149.882 38.6181 150.171 38.2697 150.354 37.8641C150.535 37.4535 150.515 36.982 150.301 36.5878C150.165 36.3581 149.948 36.1739 149.863 35.9205C149.713 35.4847 149.994 35.0362 150.167 34.6095C150.332 34.2193 150.386 33.7906 150.321 33.3715C150.254 32.95 150.019 32.5735 149.672 32.3268C148.98 31.8655 148.044 32.1189 147.244 31.8965C146.957 31.8022 146.678 31.6871 146.408 31.5519C146 31.37 145.572 31.2331 145.134 31.1434C144.699 31.0559 144.173 31.045 143.899 31.3932C143.823 31.5049 143.756 31.6219 143.698 31.7433C143.525 32.0348 143.241 32.2438 142.912 32.3231C142.677 32.3796 142.432 32.365 142.184 32.3997C141.939 32.4167 141.716 32.545 141.578 32.7479C141.458 32.9667 141.509 33.2329 141.538 33.4773C141.567 33.7216 141.553 34.0133 141.356 34.1646C141.263 34.2357 141.136 34.2704 141.079 34.3707C141.026 34.4916 141.061 34.6334 141.165 34.7153C141.267 34.7928 141.386 34.8453 141.512 34.8684C141.965 35.01 142.435 35.0903 142.908 35.1073C143.387 35.1229 143.854 34.9509 144.208 34.6278C144.177 34.6587 143.977 34.646 143.94 34.6442C144.293 34.6825 144.727 34.8393 144.859 35.1966Z" fill="#7E646B"/>
<g opacity="0.05">
<path d="M149.741 38.4292C149.609 38.5378 149.456 38.6178 149.291 38.6644C149.124 38.7078 148.946 38.6663 148.815 38.5531C148.715 38.4174 148.635 38.2682 148.578 38.1101C148.496 37.9624 148.307 37.8384 148.167 37.9277C148.109 37.9766 148.064 38.0393 148.037 38.1101C147.925 38.3526 147.719 38.5951 147.451 38.5896C147.213 38.5643 147.016 38.3946 146.954 38.163C146.898 37.9352 146.887 37.6984 146.924 37.4665C146.965 36.9924 146.971 36.4472 146.621 36.1263C146.394 35.9602 146.134 35.8441 145.859 35.7854C145.593 35.6979 145.313 35.5593 145.204 35.3004C145.131 35.118 145.149 34.9248 145.084 34.7534C144.976 34.4635 144.672 34.3049 144.376 34.2319C144.026 34.5177 143.587 34.6691 143.136 34.6586C142.662 34.6401 142.193 34.5592 141.74 34.4179C141.614 34.3946 141.495 34.3428 141.393 34.2666C141.371 34.2469 141.352 34.2249 141.336 34.2009C141.256 34.2354 141.186 34.29 141.132 34.3596C141.079 34.4805 141.114 34.6223 141.218 34.7042C141.32 34.7817 141.439 34.8342 141.565 34.8573C142.018 34.9989 142.488 35.0792 142.961 35.0962C143.411 35.1082 143.851 34.9574 144.199 34.6713C144.496 34.7443 144.801 34.9011 144.909 35.191C144.974 35.3733 144.956 35.5702 145.029 35.738C145.138 35.9969 145.417 36.1354 145.684 36.223C145.959 36.2813 146.218 36.3969 146.445 36.5621C146.796 36.883 146.789 37.43 146.749 37.904C146.712 38.1358 146.722 38.3727 146.778 38.6005C146.841 38.8316 147.039 39.0007 147.277 39.0272C147.544 39.0272 147.748 38.7902 147.863 38.5477C147.889 38.4764 147.933 38.4135 147.992 38.3653C148.132 38.2723 148.321 38.3963 148.403 38.5477C148.46 38.706 148.54 38.8552 148.64 38.9907C148.771 39.1044 148.949 39.1454 149.117 39.1001C149.281 39.0551 149.435 38.9755 149.566 38.8667C149.931 38.6124 150.22 38.264 150.403 37.8585C150.436 37.7804 150.462 37.6999 150.482 37.6178C150.295 37.9381 150.043 38.2147 149.741 38.4292Z" fill="black"/>
<path d="M150.105 34.8522C150.143 34.7684 150.18 34.6845 150.214 34.6024C150.249 34.5204 150.262 34.4748 150.282 34.4092C150.215 34.5535 150.156 34.7014 150.105 34.8522Z" fill="black"/>
<path d="M141.595 33.7052C141.777 33.5502 141.789 33.2731 141.76 33.0342C141.739 32.8948 141.727 32.7541 141.726 32.613C141.687 32.651 141.653 32.6939 141.626 32.7407C141.505 32.9595 141.556 33.2257 141.586 33.47C141.595 33.548 141.598 33.6267 141.595 33.7052Z" fill="black"/>
</g>
<path opacity="0.05" d="M142.312 60.8485C141.973 60.8722 141.498 60.8977 140.927 60.9178C140.53 60.9306 140.086 60.9397 139.611 60.9397C139.196 60.9397 138.757 60.9397 138.302 60.9196C136.863 60.8824 135.429 60.7343 134.013 60.4766C132.122 60.1119 130.373 59.4829 129.281 58.4181C129.463 58.0643 129.628 57.7708 129.69 57.6669C129.69 57.5647 129.69 57.4462 129.679 57.3186C131.599 58.2303 137.585 60.7628 142.173 59.3242C142.173 59.4756 142.195 59.5758 142.195 59.5758L142.299 59.6634C142.246 59.853 142.279 60.4766 142.312 60.8485Z" fill="black"/>
<path d="M142.312 60.6736C141.973 60.6973 141.498 60.7228 140.927 60.741C140.53 60.7556 140.086 60.7629 139.611 60.7629C139.196 60.7629 138.757 60.7629 138.302 60.7429C136.863 60.7063 135.429 60.5588 134.013 60.3016C132.122 59.937 130.373 59.3061 129.281 58.2413C129.463 57.8876 129.628 57.5958 129.69 57.4901C129.69 57.388 129.69 57.2713 129.679 57.1418C131.599 58.0535 137.585 60.5879 142.173 59.1566C142.173 59.3079 142.195 59.4082 142.195 59.4082L142.299 59.4957C142.246 59.6781 142.279 60.3016 142.312 60.6736Z" fill="#4B4442"/>
<path d="M51.4731 140.474C51.032 139.942 50.8298 139.251 50.9144 138.565L58.9478 72.7128L59.614 67.243C59.7684 65.9843 60.8306 65.0356 62.0964 65.0258L85.6273 64.869C86.3041 64.8649 86.9508 64.5878 87.4213 64.1003C87.8919 63.6128 88.1466 62.956 88.1279 62.2781L88.1188 62.0283C88.0957 61.3447 88.3505 60.6809 88.825 60.189C89.2996 59.6971 89.9531 59.4193 90.6359 59.4192H115.362C116.75 59.4192 117.877 60.5448 117.88 61.9353C117.879 62.0487 117.872 62.162 117.858 62.2745C117.763 62.9842 117.974 63.7008 118.438 64.2455C118.902 64.7903 119.575 65.1117 120.289 65.1298L144.037 65.7369C144.767 65.7549 145.454 66.0904 145.918 66.6561C146.382 67.2218 146.578 67.9618 146.454 68.6834L134.582 138.151L134.358 139.464C134.302 139.799 134.179 140.119 133.994 140.405L51.4731 140.474Z" fill="#B7B6CC"/>
<g opacity="0.5">
<path d="M95.744 84.362L122.934 44.9349L134.967 53.2633L107.777 92.6904L95.744 84.362Z" fill="url(#paint2_linear)"/>
</g>
<path d="M123.137 45.4678L134.577 53.3858L107.751 92.2849L96.3112 84.3668L123.137 45.4678Z" fill="#F9FAFB"/>
<path d="M123.962 47.3108L132.022 52.9239L126.419 60.999L118.359 55.3858L123.962 47.3108Z" fill="#F7B643"/>
<path opacity="0.5" d="M117.647 57.042L125.735 62.6396L120.147 70.7416L112.06 65.144L117.647 57.042Z" fill="#F7B643"/>
<path opacity="0.3" d="M110.899 66.8242L118.987 72.4218L113.399 80.5238L105.312 74.9263L110.899 66.8242Z" fill="#F7B643"/>
<g opacity="0.5">
<path d="M93.2347 88.4135L106.602 42.5871L120.641 46.697L107.273 92.5234L93.2347 88.4135Z" fill="url(#paint3_linear)"/>
</g>
<path d="M106.974 43.0317L120.321 46.9391L107.133 92.1494L93.7861 88.242L106.974 43.0317Z" fill="#F9FAFB"/>
<path d="M108.726 44.3367L118.161 47.0989L115.404 56.5512L105.969 53.789L108.726 44.3367Z" fill="#F97878"/>
<path opacity="0.5" d="M105.397 55.748L114.832 58.5103L112.075 67.9626L102.639 65.2003L105.397 55.748Z" fill="#F97878"/>
<path opacity="0.3" d="M102.068 67.1577L111.503 69.92L108.746 79.3723L99.3109 76.61L102.068 67.1577Z" fill="#F97878"/>
<g opacity="0.5">
<path d="M93.26 90.9733L97.082 43.3841L111.66 44.5591L107.838 92.1484L93.26 90.9733Z" fill="url(#paint4_linear)"/>
</g>
<path d="M97.5195 43.7444L111.38 44.8616L107.609 91.8111L93.7489 90.6939L97.5195 43.7444Z" fill="#F9FAFB"/>
<path d="M99.4927 44.668L109.291 45.4577L108.503 55.2736L98.7043 54.4839L99.4927 44.668Z" fill="#73B53B"/>
<path opacity="0.5" d="M98.5396 56.5159L108.338 57.3056L107.549 67.1215L97.7512 66.3318L98.5396 56.5159Z" fill="#73B53B"/>
<path opacity="0.3" d="M97.5884 68.3677L107.387 69.1574L106.598 78.9734L96.8 78.1836L97.5884 68.3677Z" fill="#73B53B"/>
<g opacity="0.5">
<path d="M90.7901 45.3335L105.4 44.6663L107.571 92.3598L92.9603 93.027L90.7901 45.3335Z" fill="url(#paint5_linear)"/>
</g>
<path d="M91.2844 45.6318L105.175 44.9975L107.316 92.0499L93.4254 92.6842L91.2844 45.6318Z" fill="white"/>
<path d="M93.3548 46.2974L103.174 45.849L103.622 55.6864L93.8025 56.1348L93.3548 46.2974Z" fill="#6BDE78"/>
<path opacity="0.5" d="M94.2807 57.7967L104.111 57.3044L104.602 67.152L94.7722 67.6444L94.2807 57.7967Z" fill="#6BDE78"/>
<path opacity="0.3" d="M94.4354 70.0506L104.255 69.6021L104.703 79.4396L94.883 79.888L94.4354 70.0506Z" fill="#6BDE78"/>
<path d="M97.1824 107.704L84.8282 112.492L66.772 119.484C66.0895 118.208 65.0848 116.483 63.8418 114.424C59.5648 107.325 52.4886 96.2809 46.1877 86.5755C39.0897 75.6357 32.98 66.4043 32.98 66.4043L37.4026 65.128L73.5296 54.6204L97.1824 107.704Z" fill="#E6ECF8"/>
<path opacity="0.1" d="M97.1825 107.704L84.8283 112.492C77.927 113.932 70.8843 114.581 63.8364 114.424C59.5594 107.325 52.4833 96.2809 46.1824 86.5755L37.4045 65.1207L73.5298 54.6204L97.1825 107.704Z" fill="black"/>
<path d="M106.374 104.725C106.374 104.725 87.1818 116.098 58.5277 113.526L35.6848 57.7327L46.6321 55.8474L84.4773 49.3364L105.953 103.64L106.374 104.725Z" fill="#6BDE78"/>
<path opacity="0.1" d="M105.946 103.647C101.427 103.869 96.1983 103.847 90.9385 103.218C85.2455 102.547 79.5198 101.165 74.6112 98.6309C70.5071 96.514 66.9982 94.2112 63.9387 91.4489C55.9799 84.2779 51.0549 74.02 46.6323 55.8545L84.4775 49.3435L105.946 103.647Z" fill="black"/>
<path d="M120.025 100.527C120.025 100.527 105.879 103.302 91.4787 101.594C85.7857 100.923 80.06 99.541 75.1514 97.0066C71.0473 94.8898 67.5402 92.587 64.4789 89.8247C54.6291 80.947 49.4275 67.3416 44.064 39.8663C44.064 39.8663 67.582 45.5532 90.838 33.0964C90.8307 33.1056 98.6695 82.1121 120.025 100.527Z" fill="#F9FAFB"/>
<path opacity="0.1" d="M91.479 101.594C85.786 100.923 80.0603 99.5407 75.1517 97.0063C71.0476 94.8895 67.5405 92.5867 64.4792 89.8244C72.8658 89.1424 74.0707 84.5496 74.0707 84.5496C80.2878 94.4337 91.479 101.594 91.479 101.594Z" fill="black"/>
<path opacity="0.3" d="M56.2288 49.9528C56.2288 49.9528 75.3533 48.8698 80.6932 44.74L81.5031 47.3473C81.5031 47.3473 68.8669 52.9321 56.2288 52.9995V49.9528Z" fill="#6BDE78"/>
<path opacity="0.3" d="M56.2288 62.8255C56.2288 62.8255 74.7455 61.8099 88.7358 55.04L89.209 56.1231C89.209 56.1231 78.107 62.6158 56.2288 64.3151L56.2288 62.8255Z" fill="#6BDE78"/>
<path opacity="0.3" d="M57.7197 67.8411C57.7197 67.8411 76.2364 66.8256 90.225 60.0557L90.6982 61.1387C90.6982 61.1387 79.5962 67.6296 57.7197 69.3308L57.7197 67.8411Z" fill="#6BDE78"/>
<path opacity="0.3" d="M59.2085 72.8641C59.2085 72.8641 77.7252 71.8485 91.7156 65.0786L92.1869 66.1617C92.1869 66.1617 81.0849 72.6544 59.2085 74.3537L59.2085 72.8641Z" fill="#6BDE78"/>
<path opacity="0.3" d="M60.699 77.887C60.699 77.887 79.2157 76.8715 93.2042 70.1016L93.6774 71.1846C93.6774 71.1846 82.5754 77.6774 60.699 79.3767L60.699 77.887Z" fill="#6BDE78"/>
<path opacity="0.3" d="M62.1873 82.9124C62.1873 82.9124 80.704 81.8969 94.6943 75.127L95.1657 76.21C95.1657 76.21 84.0637 82.7009 62.1873 84.4021V82.9124Z" fill="#6BDE78"/>
<path d="M192.385 145.282C192.385 145.282 184.69 144.817 185.597 150.219C185.597 150.219 185.415 151.173 186.281 151.607C186.281 151.607 186.294 151.206 187.069 151.343C187.346 151.389 187.627 151.403 187.906 151.383C188.284 151.357 188.642 151.209 188.927 150.96C188.927 150.96 191.091 150.065 191.932 146.524C191.932 146.524 192.555 145.751 192.529 145.552L191.231 146.099C191.231 146.099 191.675 147.038 191.326 147.816C191.326 147.816 191.284 146.133 191.035 146.175C190.984 146.175 190.36 146.5 190.36 146.5C190.36 146.5 191.122 148.141 190.542 149.322C190.542 149.322 190.76 147.308 190.116 146.618L189.206 147.153C189.206 147.153 190.098 148.841 189.493 150.219C189.493 150.219 189.648 148.106 189.013 147.282L188.185 147.929C188.185 147.929 189.024 149.594 188.512 150.737C188.512 150.737 188.445 148.276 188.005 148.09C188.005 148.09 187.277 148.73 187.171 149.002C187.171 149.002 187.744 150.209 187.388 150.847C187.388 150.847 187.169 149.206 186.991 149.206C186.991 149.206 186.263 150.3 186.194 151.029C186.194 151.029 186.225 149.92 186.816 149.095C186.399 149.174 186.015 149.374 185.71 149.669C185.71 149.669 185.822 148.899 186.994 148.834C186.994 148.834 187.591 148.01 187.75 147.959C187.75 147.959 186.585 147.862 185.879 148.176C185.879 148.176 186.501 147.446 187.964 147.78L188.782 147.113C188.782 147.113 187.247 146.901 186.598 147.134C186.598 147.134 187.346 146.493 189.002 146.952L189.892 146.42C189.892 146.42 188.585 146.137 187.806 146.237C187.806 146.237 188.627 145.793 190.154 146.274L190.789 145.988C190.789 145.988 189.832 145.805 189.552 145.769C189.271 145.732 189.255 145.663 189.255 145.663C189.862 145.561 190.485 145.63 191.055 145.864C191.055 145.864 192.407 145.368 192.385 145.282Z" fill="#6BDE78"/>
<path opacity="0.1" d="M187.085 153C190.093 153 192.531 152.587 192.531 152.077C192.531 151.568 190.093 151.155 187.085 151.155C184.078 151.155 181.64 151.568 181.64 152.077C181.64 152.587 184.078 153 187.085 153Z" fill="#6BDE78"/>
<path opacity="0.1" d="M148.883 150.317C159.136 150.317 167.447 149.563 167.447 148.633C167.447 147.702 159.136 146.948 148.883 146.948C138.631 146.948 130.319 147.702 130.319 148.633C130.319 149.563 138.631 150.317 148.883 150.317Z" fill="#6BDE78"/>
<path d="M195.969 127.448C195.969 127.448 191.632 127.186 192.147 130.232C192.092 130.549 192.247 130.865 192.531 131.015C192.531 131.015 192.54 130.789 192.977 130.865C193.132 130.891 193.291 130.898 193.448 130.887C193.66 130.873 193.863 130.79 194.023 130.65C194.023 130.65 195.243 130.145 195.718 128.148C195.718 128.148 196.069 127.713 196.054 127.601L195.326 127.913C195.326 127.913 195.576 128.444 195.379 128.883C195.379 128.883 195.355 127.933 195.215 127.955C195.186 127.955 194.835 128.138 194.835 128.138C194.835 128.138 195.264 129.049 194.94 129.729C194.94 129.729 195.064 128.593 194.7 128.203L194.185 128.506C194.185 128.506 194.687 129.458 194.347 130.234C194.347 130.234 194.434 129.042 194.076 128.579L193.61 128.943C193.61 128.943 194.081 129.882 193.792 130.526C193.792 130.526 193.754 129.138 193.506 129.035C193.33 129.185 193.171 129.356 193.035 129.543C193.035 129.543 193.359 130.225 193.159 130.584C193.159 130.584 193.035 129.66 192.935 129.656C192.935 129.656 192.527 130.267 192.485 130.686C192.505 130.297 192.626 129.92 192.837 129.592C192.601 129.637 192.384 129.75 192.212 129.917C192.212 129.917 192.276 129.483 192.94 129.447C192.94 129.447 193.277 128.982 193.366 128.953C193.366 128.953 192.709 128.898 192.311 129.075C192.311 129.075 192.662 128.666 193.486 128.852L193.949 128.475C193.949 128.475 193.082 128.356 192.716 128.488C192.716 128.488 193.139 128.123 194.072 128.389L194.575 128.088C194.188 128.004 193.792 127.97 193.397 127.988C193.397 127.988 193.861 127.736 194.72 128.008L195.084 127.848C195.084 127.848 194.538 127.74 194.385 127.724C194.232 127.707 194.218 127.663 194.218 127.663C194.56 127.606 194.912 127.646 195.233 127.776C195.233 127.776 195.983 127.496 195.969 127.448Z" fill="#6BDE78"/>
<path opacity="0.1" d="M192.984 131.799C194.679 131.799 196.054 131.566 196.054 131.279C196.054 130.992 194.679 130.759 192.984 130.759C191.288 130.759 189.913 130.992 189.913 131.279C189.913 131.566 191.288 131.799 192.984 131.799Z" fill="#6BDE78"/>
<path d="M170.365 130.092C170.365 130.092 165.127 129.775 165.746 133.452C165.68 133.835 165.868 134.216 166.21 134.397C166.21 134.397 166.21 134.123 166.756 134.215C166.944 134.246 167.136 134.256 167.326 134.242C167.583 134.225 167.827 134.124 168.021 133.954C168.021 133.954 169.494 133.345 170.067 130.934C170.067 130.934 170.491 130.409 170.473 130.273L169.579 130.652C169.579 130.652 169.881 131.29 169.643 131.821C169.643 131.821 169.614 130.676 169.444 130.701C169.41 130.701 168.986 130.923 168.986 130.923C168.986 130.923 169.504 132.036 169.113 132.845C169.113 132.845 169.262 131.474 168.824 131.004L168.201 131.368C168.201 131.368 168.807 132.519 168.396 133.456C168.396 133.456 168.502 132.017 168.07 131.45L167.506 131.892C167.506 131.892 168.078 133.024 167.728 133.802C167.728 133.802 167.684 132.127 167.384 132.001C167.384 132.001 166.891 132.437 166.816 132.616C166.816 132.616 167.206 133.438 166.964 133.872C166.964 133.872 166.814 132.756 166.693 132.75C166.693 132.75 166.203 133.491 166.147 133.996C166.171 133.527 166.317 133.074 166.571 132.679C166.287 132.733 166.026 132.87 165.819 133.071C165.819 133.071 165.895 132.548 166.693 132.502C166.693 132.502 167.098 131.941 167.208 131.908C167.208 131.908 166.414 131.841 165.934 132.054C165.934 132.054 166.356 131.562 167.351 131.786L167.908 131.33C167.908 131.33 166.865 131.188 166.421 131.345C166.421 131.345 166.931 130.909 168.059 131.228L168.665 130.863C168.665 130.863 167.775 130.672 167.244 130.741C167.244 130.741 167.805 130.439 168.842 130.767L169.275 130.572C169.275 130.572 168.624 130.444 168.432 130.424C168.241 130.404 168.232 130.351 168.232 130.351C168.645 130.281 169.069 130.328 169.457 130.486C169.457 130.486 170.382 130.149 170.365 130.092Z" fill="#6BDE78"/>
<path opacity="0.1" d="M166.758 135.345C168.805 135.345 170.465 135.064 170.465 134.718C170.465 134.371 168.805 134.09 166.758 134.09C164.71 134.09 163.051 134.371 163.051 134.718C163.051 135.064 164.71 135.345 166.758 135.345Z" fill="#6BDE78"/>
<path opacity="0.1" d="M10.7272 150.25C13.7346 150.25 16.1726 149.837 16.1726 149.328C16.1726 148.818 13.7346 148.405 10.7272 148.405C7.71975 148.405 5.28174 148.818 5.28174 149.328C5.28174 149.837 7.71975 150.25 10.7272 150.25Z" fill="#6BDE78"/>
<path d="M7.0708 145.041C7.0708 145.041 10.1757 144.946 11.113 144.279C12.0503 143.612 15.8905 142.82 16.1235 143.883C16.3565 144.946 20.7918 149.211 17.2847 149.24C13.7775 149.269 9.1365 148.693 8.20102 148.122C7.26554 147.552 7.0708 145.041 7.0708 145.041Z" fill="#A8A8A8"/>
<path opacity="0.2" d="M17.3465 148.867C13.8394 148.896 9.19836 148.32 8.26288 147.749C7.55308 147.315 7.26916 145.756 7.17088 145.038H7.06714C7.06714 145.038 7.2637 147.549 8.19736 148.119C9.13102 148.69 13.7866 149.268 17.2846 149.25C18.2966 149.241 18.646 148.885 18.6278 148.338C18.4858 148.659 18.1 148.861 17.3465 148.867Z" fill="black"/>
<path d="M144.508 29.5932L154.112 -0.000303953L206.975 17.2172L197.371 46.8107L144.508 29.5932Z" fill="url(#paint6_linear)"/>
<path d="M144.939 29.5093L154.411 0.323269L206.543 17.3029L197.072 46.4889L144.939 29.5093Z" fill="#F6F7F9"/>
<g opacity="0.2">
<path d="M160.02 22.1945C163.172 22.1945 165.728 19.6345 165.728 16.4766C165.728 13.3188 163.172 10.7588 160.02 10.7588C156.868 10.7588 154.312 13.3188 154.312 16.4766C154.312 19.6345 156.868 22.1945 160.02 22.1945Z" fill="#6BDE78"/>
</g>
<g opacity="0.2">
<path d="M173.676 15.4473L174.159 13.9579L197.808 21.6601L197.324 23.1496L173.676 15.4473Z" fill="#6BDE78"/>
</g>
<g opacity="0.2">
<path d="M172.444 19.2446L172.927 17.7551L184.974 21.6787L184.49 23.1682L172.444 19.2446Z" fill="#6BDE78"/>
</g>
<g opacity="0.2">
<path d="M171.208 23.0446L171.692 21.5552L191.176 27.9011L190.692 29.3906L171.208 23.0446Z" fill="#6BDE78"/>
</g>
<g opacity="0.2">
<path d="M169.976 26.8433L170.46 25.3539L194.108 33.0561L193.625 34.5456L169.976 26.8433Z" fill="#6BDE78"/>
</g>
<g opacity="0.5">
<path d="M184.85 39.2897L185.785 36.4096L192.329 38.5411L191.394 41.4212L184.85 39.2897Z" fill="#6BDE78"/>
</g>
<path d="M170.946 88.0578C170.943 87.9967 170.937 87.9359 170.928 87.8755C170.928 87.8117 170.908 87.7478 170.897 87.6931C170.873 87.5692 170.848 87.447 170.818 87.3285C170.804 87.272 170.789 87.2136 170.773 87.1589C170.601 86.5121 170.29 85.9106 169.863 85.3958C169.839 85.3666 169.814 85.3393 169.79 85.3119C169.767 85.2846 169.692 85.2062 169.643 85.1569C169.594 85.1077 169.548 85.0639 169.501 85.022C169.453 84.9801 169.41 84.9418 169.366 84.9053C169.279 84.8342 169.197 84.774 169.126 84.723C169.055 84.6719 169.022 84.6537 168.978 84.6282C168.874 84.5658 168.757 84.5278 168.636 84.517L167.881 84.4422L166.849 84.3401L163.16 82.9052L163.014 82.9562C162.906 82.6578 162.815 82.3534 162.741 82.0446C162.853 81.9961 162.953 81.9232 163.033 81.8312C163.119 81.7635 163.188 81.6752 163.233 81.5742C163.326 81.359 163.147 80.9014 163.184 80.6388C163.242 80.2176 163.46 79.811 163.639 79.43C164.017 78.6113 164.294 77.7234 164.248 76.8245C164.203 75.9256 163.793 75.0139 163.036 74.5125C162.645 74.2518 162.184 74.1132 161.777 73.8762C161.46 73.6939 161.182 73.4495 160.879 73.2417C159.368 72.2321 157.438 72.0936 155.798 72.877C155.032 73.2545 154.378 73.8197 153.656 74.2737C152.933 74.7277 152.082 75.0759 151.235 74.941C151.224 74.9754 151.215 75.0108 151.21 75.0468L151.139 75.0376C150.993 75.4351 151.35 75.829 151.685 76.1006C152.309 76.6166 153.017 77.1308 153.831 77.149C154.145 77.149 154.479 77.0888 154.764 77.2183C154.829 77.2471 154.89 77.2838 154.946 77.3277C154.577 78.8102 155.069 80.3748 156.22 81.3772L154.337 80.699C154.337 80.699 154.258 80.7391 154.136 80.8157L151.523 79.0726C151.523 79.0726 146.283 77.1691 144.827 80.1338C143.371 83.0984 151.137 81.5687 151.137 81.5687L152.799 82.4803C152.743 82.8244 152.807 83.1773 152.981 83.4795L157.511 86.2837C156.601 86.5663 155.092 87.0131 154.824 87.0131C154.437 87.0131 153.368 87.3959 152.689 88.9257C152.011 90.4554 149.583 97.9182 147.448 99.1617C145.313 100.405 139.684 108.729 139.684 108.729L139.709 108.794C139.609 108.821 139.511 108.849 139.414 108.882C138.232 109.293 137.209 110.066 136.49 111.092C136.296 111.362 136.259 111.715 136.394 112.019C136.529 112.323 136.815 112.533 137.145 112.57C139.367 112.853 140.581 111.826 141.165 111.051C141.203 111.002 141.238 110.953 141.271 110.904C141.444 110.978 141.638 110.987 141.817 110.929L144.534 108.729C144.534 108.729 142.408 110.825 143.655 112.74L143.56 112.873C141.459 115.878 139.917 119.24 139.01 122.795C139.01 122.795 137.846 123.656 137.749 127.1C137.653 130.544 136.486 136.093 136.486 136.093C136.486 136.093 135.711 142.695 136.195 144.702C136.195 144.702 136.251 144.782 136.355 144.905C136.319 144.948 136.278 144.996 136.235 145.043C135.811 145.503 135.046 146.137 134.156 145.955C132.799 145.667 132.799 148.059 134.739 148.25C135.989 148.372 138.446 148.932 140.039 149.315C140.391 149.404 140.764 149.316 141.039 149.079C141.314 148.841 141.457 148.485 141.422 148.123C141.327 147.266 141.154 146.228 140.839 145.49C140.819 145.444 140.799 145.399 140.779 145.357C140.836 145.302 140.894 145.247 140.95 145.189C140.95 145.189 140.95 140.979 141.631 139.832C141.631 139.832 143.475 131.126 143.376 128.925C143.302 127.204 148.161 120.5 150.276 117.668L150.258 117.561C150.804 116.831 151.142 116.394 151.142 116.394L152.779 126.823C152.779 126.823 153.556 129.118 154.526 130.362C154.526 130.362 158.699 138.302 159.185 140.789C159.549 142.676 160.31 143.791 160.656 144.221L160.53 144.341C160.088 144.748 159.438 145.154 158.699 144.999C157.341 144.711 157.341 147.103 159.281 147.295C160.532 147.419 162.989 147.979 164.58 148.362C164.932 148.45 165.306 148.362 165.581 148.124C165.857 147.887 166 147.53 165.965 147.167C165.854 146.172 165.637 144.934 165.218 144.203C165.185 144.14 165.147 144.079 165.107 144.02C165.255 143.961 165.387 143.868 165.493 143.749C165.493 143.749 162.969 137.721 162.969 136.091C162.969 136.091 161.902 129.873 158.311 127.578C158.311 127.578 158.65 119.8 159.673 115.471C159.698 115.365 159.724 115.26 159.749 115.157C160.702 115.008 161.648 114.811 162.581 114.567L162.678 111.697L163.164 113.992L168.598 110.645C168.598 110.645 168.551 110.041 168.46 109.117C168.412 108.654 168.356 108.11 168.289 107.521C168.234 107.051 168.172 106.551 168.107 106.041C168.088 105.913 168.072 105.784 168.054 105.656C167.983 105.14 167.905 104.619 167.821 104.108C167.788 103.916 167.755 103.727 167.723 103.539C167.677 103.29 167.632 103.045 167.584 102.81C167.561 102.692 167.535 102.573 167.512 102.458C167.488 102.343 167.461 102.228 167.435 102.117C167.41 102.006 167.384 101.898 167.359 101.791C167.344 101.738 167.331 101.685 167.319 101.634C167.291 101.53 167.264 101.428 167.237 101.33C167.123 100.92 167.057 100.5 167.04 100.075C167.04 99.9074 167.04 99.7378 167.04 99.5701C167.04 99.4023 167.066 99.2346 167.089 99.0669C167.1 98.9848 167.115 98.9009 167.131 98.8189C167.193 98.4854 167.285 98.1583 167.406 97.8416C167.466 97.683 167.535 97.5262 167.61 97.3712C167.792 97.0065 167.974 96.6182 168.167 96.2043C168.265 95.9983 168.363 95.7868 168.462 95.5716C168.56 95.3565 168.66 95.1377 168.76 94.9152C169.705 92.8057 170.636 90.4554 170.886 88.9111C170.911 88.7488 170.931 88.5957 170.94 88.4516C170.951 88.3206 170.953 88.1891 170.946 88.0578Z" fill="url(#paint7_linear)"/>
<path d="M154.735 82.3346L151.534 80.1667C151.534 80.1667 146.45 78.2796 145.038 81.2041C143.626 84.1287 151.157 82.619 151.157 82.619L154.358 84.4095L154.735 82.3346Z" fill="#AE6E79"/>
<path d="M120.002 100.322L136.561 74.5178L176.658 100.341L160.1 126.145L120.002 100.322Z" fill="#F9FAFB"/>
<path d="M125.944 98.5219L130.589 91.1965L132.31 92.2916L127.664 99.617L125.944 98.5219Z" fill="#B7B6CC"/>
<path d="M131.443 100.006L141.646 83.9174L143.224 84.9216L133.021 101.01L131.443 100.006Z" fill="#B7B6CC"/>
<path d="M134.814 102.149L145.017 86.061L146.594 87.0652L136.391 103.153L134.814 102.149Z" fill="#B7B6CC"/>
<path d="M138.183 104.296L148.386 88.2075L149.964 89.2116L139.76 105.3L138.183 104.296Z" fill="#B7B6CC"/>
<path d="M141.669 107.406L151.943 91.3948L153.514 92.406L143.239 108.417L141.669 107.406Z" fill="#B7B6CC"/>
<path d="M144.922 108.584L155.125 92.4963L156.703 93.5005L146.5 109.589L144.922 108.584Z" fill="white"/>
<path d="M148.292 110.728L158.496 94.6396L160.073 95.6438L149.87 111.732L148.292 110.728Z" fill="white"/>
<path d="M162.441 101.589L165.083 97.4227L169.242 100.07L166.6 104.235L162.441 101.589Z" fill="#B7B6CC"/>
<path d="M164.204 148.454C162.659 148.077 160.277 147.526 159.065 147.404C157.181 147.222 157.181 144.851 158.5 145.139C159.214 145.294 159.847 144.891 160.275 144.492C160.405 144.367 160.526 144.234 160.639 144.093C160.795 143.903 161.009 143.771 161.249 143.719C161.955 143.566 163.433 143.332 164.326 143.819C164.535 143.949 164.704 144.135 164.814 144.355C165.22 145.085 165.431 146.297 165.542 147.273C165.58 147.626 165.444 147.975 165.179 148.21C164.913 148.445 164.549 148.536 164.204 148.454Z" fill="#BEBED0"/>
<path d="M140.386 149.397C138.842 149.02 136.46 148.469 135.248 148.347C133.364 148.165 133.364 145.794 134.682 146.084C135.545 146.267 136.287 145.645 136.697 145.193C136.748 145.138 136.793 145.085 136.831 145.036C136.988 144.85 137.202 144.722 137.439 144.671C138.145 144.516 139.623 144.283 140.519 144.772C140.784 144.914 140.995 145.227 141.165 145.634C141.469 146.363 141.636 147.384 141.729 148.228C141.763 148.581 141.625 148.928 141.358 149.16C141.091 149.392 140.729 149.48 140.386 149.397Z" fill="#BEBED0"/>
<path opacity="0.1" d="M141.165 145.627C138.917 147.948 136.99 145.583 136.697 145.193C136.748 145.138 136.793 145.085 136.832 145.036C136.988 144.85 137.202 144.722 137.44 144.671C138.146 144.516 139.624 144.283 140.519 144.772C140.785 144.906 141.005 145.22 141.165 145.627Z" fill="black"/>
<path opacity="0.1" d="M164.823 144.355C163.849 145.021 160.572 144.857 160.572 144.857C160.464 144.743 160.364 144.621 160.275 144.492C160.405 144.367 160.526 144.234 160.639 144.093C160.795 143.903 161.009 143.771 161.249 143.719C161.955 143.566 163.433 143.332 164.326 143.819C164.539 143.948 164.711 144.134 164.823 144.355Z" fill="black"/>
<path d="M164.996 143.915C164.335 144.764 160.572 144.575 160.572 144.575C160.572 144.575 159.441 143.442 158.97 140.992C158.499 138.541 154.451 130.712 154.451 130.712C153.51 129.485 152.757 127.222 152.757 127.222L151.157 116.943C151.157 116.943 143.438 127.127 143.533 129.297C143.627 131.467 141.837 140.055 141.837 140.055C141.178 141.187 141.178 145.342 141.178 145.342C138.732 147.895 136.66 144.87 136.66 144.87C136.189 142.89 136.943 136.383 136.943 136.383C136.943 136.383 138.073 130.913 138.166 127.518C138.258 124.123 139.39 123.275 139.39 123.275C140.27 119.775 141.767 116.462 143.811 113.491C144.379 112.676 144.756 112.24 144.756 112.24L160.006 114.033C159.713 114.681 159.493 115.36 159.35 116.056C158.359 120.323 158.029 127.99 158.029 127.99C161.513 130.253 162.548 136.377 162.548 136.377C162.548 137.972 164.996 143.915 164.996 143.915Z" fill="#5C5C8E"/>
<g opacity="0.05">
<path d="M150.317 118.199L150.121 116.943C150.121 116.943 142.402 127.128 142.497 129.297C142.592 131.467 140.802 140.055 140.802 140.055C140.142 141.187 140.142 145.342 140.142 145.342C139.748 145.788 139.238 146.115 138.669 146.289C139.41 146.484 140.307 146.34 141.272 145.342C141.272 145.342 141.272 141.192 141.931 140.055C141.931 140.055 143.72 131.472 143.625 129.297C143.553 127.6 148.264 120.989 150.317 118.199Z" fill="black"/>
<path d="M162.641 136.37C162.641 136.37 161.605 130.24 158.123 127.983C158.123 127.983 158.453 120.316 159.443 116.049C159.587 115.352 159.807 114.673 160.1 114.025L144.85 112.237C144.85 112.237 144.814 112.277 144.748 112.357L158.97 114.029C158.677 114.677 158.458 115.356 158.315 116.053C157.323 120.319 156.993 127.986 156.993 127.986C160.477 130.249 161.512 136.373 161.512 136.373C161.512 137.976 163.96 143.918 163.96 143.918C163.571 144.418 162.104 144.558 160.963 144.589C161.873 144.613 164.543 144.622 165.089 143.918C165.089 143.915 162.641 137.972 162.641 136.37Z" fill="black"/>
</g>
<path d="M141.931 110.907C141.817 111.186 141.667 111.448 141.485 111.688C140.919 112.452 139.742 113.462 137.587 113.185C137.264 113.143 136.986 112.935 136.856 112.636C136.725 112.337 136.761 111.992 136.95 111.726C137.642 110.715 138.635 109.949 139.787 109.538C140.177 109.409 140.581 109.327 140.99 109.294L141.931 110.907Z" fill="#AE6E79"/>
<path d="M161.813 84.5316L154.263 81.7656C154.263 81.7656 152.098 82.8979 152.946 84.5006L160.297 89.1226L161.813 84.5316Z" fill="#42383C"/>
<path opacity="0.1" d="M161.842 84.5623L154.291 81.7964C154.291 81.7964 152.125 82.9268 152.973 84.5313L160.315 89.1516L161.842 84.5623Z" fill="black"/>
<path d="M162.077 79.9735C162.077 79.9735 161.982 84.4059 163.961 85.9156C165.939 87.4253 158.217 88.2731 158.217 88.2731C158.217 88.2731 159.442 83.7459 158.217 81.3884C156.992 79.0308 162.077 79.9735 162.077 79.9735Z" fill="#AE6E79"/>
<path opacity="0.1" d="M160.005 114.02C159.713 114.668 159.493 115.347 159.35 116.044C150.25 117.437 143.907 113.642 143.907 113.642C143.873 113.588 143.84 113.533 143.811 113.478C144.379 112.663 144.756 112.228 144.756 112.228L160.005 114.02Z" fill="black"/>
<path opacity="0.1" d="M141.931 110.907C141.817 111.186 141.667 111.448 141.485 111.688C140.613 111.542 139.916 109.865 139.787 109.547C140.177 109.418 140.581 109.336 140.99 109.303L141.931 110.907Z" fill="black"/>
<path d="M162.83 83.9351L159.441 85.1603L158.029 87.0474C158.029 87.0474 155.117 87.9901 154.735 87.9901C154.352 87.9901 153.322 88.3675 152.664 89.8754C152.005 91.3832 149.651 98.7439 147.58 99.9673C145.509 101.191 140.049 109.397 140.049 109.397C140.049 109.397 140.99 111.95 142.12 111.567L144.756 109.397C144.756 109.397 142.684 111.472 143.907 113.359C143.907 113.359 151.628 117.98 162.266 115.15L162.359 112.322L162.83 114.585L168.108 111.285C168.108 111.285 167.637 105.197 166.787 102.099C166.435 100.796 166.564 99.4099 167.151 98.1951C168.518 95.3416 170.627 90.5755 170.37 88.8379C170.066 86.7903 168.914 85.9006 168.47 85.6325C168.37 85.5711 168.256 85.533 168.139 85.5213L166.415 85.3499L162.83 83.9351Z" fill="#42383C"/>
<path opacity="0.05" d="M157.041 93.4131C157.041 93.4131 155.157 102.183 153.086 103.598C151.015 105.013 145.462 109.54 145.273 110.295" fill="black"/>
<path d="M156.193 93.1301C156.193 93.1301 154.311 101.9 152.24 103.315C150.168 104.73 144.614 109.257 144.426 110.01" fill="#42383C"/>
<path opacity="0.1" d="M157.982 87C157.982 87 164.477 84.8302 166.354 85.3955L157.982 87Z" fill="black"/>
<g opacity="0.05">
<path d="M167.141 98.1971C168.508 95.3436 170.618 90.5775 170.361 88.8399C170.057 86.7924 168.905 85.9026 168.461 85.6346C168.36 85.5731 168.247 85.5351 168.13 85.5234L167.402 85.4504C167.479 85.4681 167.553 85.4983 167.62 85.5398C168.061 85.8096 169.216 86.6976 169.518 88.747C169.775 90.4827 167.666 95.2507 166.301 98.1041C165.714 99.3183 165.585 100.704 165.937 102.006C166.788 105.106 167.26 111.192 167.26 111.192L162.721 114.034L162.835 114.581L168.113 111.281C168.113 111.281 167.642 105.193 166.792 102.095C166.437 100.796 166.561 99.4121 167.141 98.1971Z" fill="black"/>
<path d="M165.56 85.2551L166.376 85.3372L162.83 83.9351L162.512 84.0499L165.56 85.2551Z" fill="black"/>
</g>
<path opacity="0.05" d="M156.193 102.278C156.193 102.278 159.105 100.675 160.053 101.052C161.001 101.43 164.477 100.958 164.477 100.958" fill="black"/>
<path opacity="0.05" d="M161.753 81.1527C161.645 80.2064 162.082 80.3504 162.082 80.3504C162.082 80.3504 156.999 79.4078 158.222 81.7653C158.53 82.415 158.706 83.1198 158.739 83.8384H158.788C160.2 83.8402 161.025 82.2576 161.753 81.1527Z" fill="black"/>
<path d="M158.783 83.4631C161.018 83.4631 162.83 81.6476 162.83 79.408C162.83 77.1685 161.018 75.353 158.783 75.353C156.547 75.353 154.735 77.1685 154.735 79.408C154.735 81.6476 156.547 83.4631 158.783 83.4631Z" fill="#AE6E79"/>
<path opacity="0.1" d="M163.209 80.6077C163.573 79.8 163.844 78.9248 163.8 78.0387C163.757 77.1525 163.36 76.2537 162.625 75.7577C162.246 75.5025 161.798 75.3657 161.403 75.1323C161.096 74.95 160.825 74.7111 160.532 74.5069C159.072 73.5105 157.193 73.3714 155.603 74.1423C154.861 74.5069 154.227 75.074 153.526 75.5207C152.826 75.9674 151.999 76.3102 151.179 76.1789C151.037 76.5709 151.384 76.9575 151.703 77.2273C152.309 77.736 152.995 78.2429 153.785 78.2593C154.091 78.2593 154.413 78.2009 154.695 78.3286C154.882 78.432 155.041 78.5797 155.157 78.7589C155.537 79.2652 155.86 79.8126 156.118 80.3907C156.197 80.6393 156.346 80.8596 156.548 81.0252C156.912 81.2586 157.383 81.0635 157.822 81.0471C158.491 81.0198 159.096 81.4428 159.591 81.8949C160.086 82.3471 160.559 82.8649 161.185 83.1038C161.653 83.2861 162.588 83.2752 162.823 82.7154C162.912 82.5039 162.739 82.0517 162.776 81.7928C162.863 81.3792 163.009 80.9802 163.209 80.6077Z" fill="black"/>
<path d="M163.292 80.511C163.656 79.7033 163.929 78.8281 163.884 77.9438C163.838 77.0595 163.445 76.157 162.71 75.6629C162.33 75.4058 161.882 75.269 161.489 75.0357C161.181 74.8533 160.91 74.6163 160.617 74.4103C159.158 73.4138 157.278 73.2748 155.688 74.0456C154.946 74.4103 154.312 74.9755 153.612 75.4222C152.911 75.8689 152.085 76.2135 151.264 76.0804C151.122 76.4742 151.468 76.8608 151.788 77.1288C152.394 77.6375 153.08 78.1444 153.87 78.1626C154.176 78.1626 154.498 78.1024 154.78 78.2319C154.968 78.3342 155.127 78.4822 155.243 78.6622C155.623 79.1675 155.944 79.7144 156.202 80.2922C156.281 80.5409 156.431 80.7612 156.633 80.9267C156.997 81.1601 157.468 80.965 157.907 80.9486C158.577 80.9231 159.181 81.3461 159.674 81.7983C160.167 82.2504 160.642 82.7664 161.27 83.0053C161.738 83.1876 162.674 83.1767 162.908 82.6169C162.999 82.4054 162.826 81.9532 162.863 81.6943C162.949 81.2815 163.094 80.8831 163.292 80.511Z" fill="#42383C"/>
<path opacity="0.1" d="M133.99 140.393C133.651 140.672 133.224 140.823 132.785 140.82L51.4731 140.474C51.032 139.942 50.8298 139.251 50.9144 138.565L58.9478 72.7126L63.9856 72.6579C64.8521 72.6492 65.6151 73.2277 65.842 74.0655L66.783 77.5443C67.0122 78.3914 67.789 78.9724 68.6648 78.9519L88.7704 78.4687C89.804 78.444 90.6289 77.5973 90.6286 76.5616V74.2569C90.6286 73.2121 91.4677 72.3617 92.5105 72.3498L120.371 72.0489C121.291 72.0404 122.085 72.6919 122.258 73.5969L134.58 138.142L134.66 138.557C134.793 139.246 134.535 139.953 133.99 140.393Z" fill="black"/>
<path d="M119.461 72.9627L91.6006 73.2636C90.5577 73.2746 89.7178 74.1241 89.7168 75.1689V77.4754C89.7162 78.5098 88.8926 79.355 87.8604 79.3807L67.7567 79.8639C66.8799 79.886 66.1018 79.3045 65.873 78.4563L64.9284 74.9793C64.7019 74.1405 63.9375 73.5615 63.0702 73.5717L36.2161 73.8616C35.6592 73.8671 35.1327 74.1168 34.7756 74.5448C34.4184 74.9727 34.2664 75.5361 34.3597 76.0861L45.1632 139.785C45.318 140.699 46.1068 141.369 47.0323 141.373L131.87 141.737C132.438 141.739 132.978 141.487 133.341 141.048C133.704 140.61 133.853 140.032 133.746 139.473L121.348 74.5107C121.176 73.6053 120.381 72.9535 119.461 72.9627Z" fill="#E6E8EE"/>
<path d="M158.699 29.342L158.553 30.9647L158.659 33.8346L158.351 38.6754C158.351 38.6754 158.308 40.7959 157.112 41.7896L154.06 46.4846L154.042 46.4937L152.893 47.0553L151.14 47.2376L150.23 45.0296L150.833 42.6047L151.168 42.1525L151.261 42.0504C151.625 41.6492 153.03 40.1924 154.145 39.7384C154.145 39.7384 154.89 39.1914 154.759 38.3345C154.628 37.4775 155.763 32.9229 155.763 32.9229C155.763 32.9229 156.491 29.9109 156.333 29.6173C156.175 29.3238 156.304 22.656 158.815 22.5539C161.327 22.4518 158.699 29.342 158.699 29.342Z" fill="#F6BAC2"/>
<path opacity="0.1" d="M28.3411 128.197C29.9705 128.197 31.2913 128.015 31.2913 127.791C31.2913 127.566 29.9705 127.384 28.3411 127.384C26.7117 127.384 25.3909 127.566 25.3909 127.791C25.3909 128.015 26.7117 128.197 28.3411 128.197Z" fill="#6BDE78"/>
<path opacity="0.1" d="M17.0406 129.344C18.6699 129.344 19.9908 129.162 19.9908 128.938C19.9908 128.713 18.6699 128.531 17.0406 128.531C15.4112 128.531 14.0903 128.713 14.0903 128.938C14.0903 129.162 15.4112 129.344 17.0406 129.344Z" fill="#6BDE78"/>
<path opacity="0.1" d="M3.73099 127.791C5.36035 127.791 6.68121 127.609 6.68121 127.384C6.68121 127.16 5.36035 126.978 3.73099 126.978C2.10162 126.978 0.780762 127.16 0.780762 127.384C0.780762 127.609 2.10162 127.791 3.73099 127.791Z" fill="#6BDE78"/>
<path opacity="0.1" d="M21.5632 132.495C22.7211 132.495 23.6598 132.366 23.6598 132.207C23.6598 132.048 22.7211 131.919 21.5632 131.919C20.4053 131.919 19.4666 132.048 19.4666 132.207C19.4666 132.366 20.4053 132.495 21.5632 132.495Z" fill="#6BDE78"/>
<path opacity="0.1" d="M9.83541 132.207C10.9934 132.207 11.9321 132.078 11.9321 131.919C11.9321 131.76 10.9934 131.631 9.83541 131.631C8.67747 131.631 7.73877 131.76 7.73877 131.919C7.73877 132.078 8.67747 132.207 9.83541 132.207Z" fill="#6BDE78"/>
<path d="M16.9769 128.848C16.9769 128.848 21.1137 115.261 16.329 109.819C12.749 105.747 8.68494 106.234 6.86494 106.737C5.91252 106.992 5.11956 107.653 4.6955 108.544C4.0585 109.919 4.17316 112.151 8.66492 114.756C16.1834 119.118 16.6511 125.1 16.6511 125.1L16.9769 128.848Z" fill="#6BDE78"/>
<path d="M7.51465 108.665C7.51465 108.665 19.7087 112.493 16.9787 128.848" stroke="#565987"/>
<path d="M14.6384 110.034C14.6384 110.034 12.9586 111.168 13.4936 112.873" stroke="#565987"/>
<path d="M8.73804 111.044C8.73804 111.044 9.76452 109.997 11.0149 110.575" stroke="#565987"/>
<path d="M13.5588 116.306C13.5588 116.306 15.3625 115.394 15.8284 116.537" stroke="#565987"/>
<path d="M18.0198 118.215C18.0198 118.215 16.6657 118.108 16.6421 118.762" stroke="#565987"/>
<path d="M17.1444 128.956C17.1444 128.956 12.2978 119.081 10.9673 119.293C10.3358 119.397 10.0446 120.022 9.91173 120.646C9.74838 121.455 9.84062 122.295 10.1756 123.049C10.8636 124.635 12.7109 127.634 17.1444 128.956Z" fill="#6BDE78"/>
<path d="M11.0037 121.171C11.0037 121.171 16.0887 128.559 17.0716 128.883" stroke="#565987"/>
<path d="M10.5359 122.325H11.7225" stroke="#565987"/>
<path d="M11.9573 125.027L13.8191 125.107" stroke="#565987"/>
<path d="M13.0912 122.865L12.8892 123.836" stroke="#565987"/>
<path d="M15.0696 125.82L15.0332 126.703" stroke="#565987"/>
<path d="M17.0005 128.956C17.0005 128.956 21.8453 119.081 23.1758 119.293C23.8091 119.397 24.1003 120.022 24.2314 120.646C24.3947 121.455 24.3025 122.295 23.9675 123.049C23.2795 124.635 21.4304 127.634 17.0005 128.956Z" fill="#6BDE78"/>
<path d="M23.1412 121.171C23.1412 121.171 18.0452 128.559 17.0715 128.883" stroke="#565987"/>
<path d="M23.6092 122.325H22.4226" stroke="#565987"/>
<path d="M22.1878 125.027L20.3259 125.107" stroke="#565987"/>
<path d="M21.0537 122.865L21.2557 123.836" stroke="#565987"/>
<path d="M19.0757 125.82L19.1121 126.703" stroke="#565987"/>
<path d="M8.67966 131.262C8.5478 131.154 8.45193 131.009 8.40484 130.845C8.35842 130.675 8.43957 130.496 8.59776 130.42C8.77976 130.353 8.96176 130.475 9.10736 130.602C9.25296 130.73 9.41858 130.865 9.60058 130.834C9.40409 130.656 9.31562 130.387 9.36762 130.126C9.37508 130.073 9.39714 130.024 9.43132 129.982C9.5296 129.877 9.70796 129.922 9.82626 130.006C10.1903 130.269 10.3049 130.777 10.3067 131.237C10.325 131.068 10.325 130.898 10.3067 130.73C10.297 130.558 10.3734 130.392 10.5106 130.287C10.5992 130.238 10.6991 130.215 10.8 130.218C10.9691 130.193 11.1405 130.242 11.2713 130.353C11.3988 130.526 11.3913 130.765 11.2531 130.931C11.1137 131.087 10.9488 131.219 10.7654 131.321C10.6262 131.405 10.5074 131.519 10.4178 131.654C10.4068 131.673 10.3982 131.692 10.3923 131.713H9.33304C9.09592 131.593 8.87613 131.441 8.67966 131.262Z" fill="#6BDE78"/>
<path d="M27.1437 127.284C27.0116 127.177 26.9156 127.032 26.8689 126.869C26.8222 126.699 26.9025 126.521 27.06 126.444C27.242 126.376 27.424 126.498 27.5696 126.626C27.7152 126.754 27.879 126.892 28.0665 126.865C27.87 126.687 27.7808 126.42 27.8317 126.159C27.8398 126.106 27.8625 126.056 27.8972 126.015C27.9955 125.91 28.1739 125.955 28.2922 126.037C28.6653 126.302 28.7708 126.81 28.7726 127.27C28.7909 127.101 28.7909 126.93 28.7726 126.761C28.7561 126.591 28.8242 126.423 28.9546 126.312C29.0436 126.265 29.1434 126.242 29.244 126.245C29.4128 126.221 29.5839 126.27 29.7154 126.378C29.8433 126.553 29.835 126.793 29.6954 126.958C29.557 127.115 29.3926 127.247 29.2094 127.348C29.0702 127.431 28.9514 127.545 28.8618 127.68C28.8512 127.699 28.8426 127.719 28.8363 127.74H27.8008C27.5619 127.619 27.3408 127.466 27.1437 127.284Z" fill="#6BDE78"/>
<path d="M20.9901 131.263C20.8583 131.154 20.762 131.009 20.7134 130.845C20.667 130.675 20.7482 130.497 20.9063 130.42C21.0884 130.353 21.2704 130.475 21.416 130.603C21.5616 130.73 21.7235 130.869 21.9128 130.843C21.7166 130.665 21.6276 130.396 21.678 130.136C21.6861 130.083 21.7088 130.033 21.7436 129.992C21.8418 129.886 22.0202 129.932 22.1385 130.015C22.5116 130.278 22.6153 130.787 22.619 131.246C22.6372 131.078 22.6372 130.908 22.619 130.739C22.6047 130.567 22.6762 130.399 22.8101 130.291C22.8986 130.242 22.9985 130.218 23.0995 130.221C23.2686 130.197 23.4399 130.246 23.5708 130.356C23.6985 130.53 23.6902 130.77 23.5508 130.934C23.412 131.091 23.2477 131.223 23.0649 131.325C22.9257 131.408 22.8069 131.522 22.7173 131.658C22.7063 131.676 22.6977 131.696 22.6918 131.717H21.6362C21.4016 131.595 21.1843 131.442 20.9901 131.263Z" fill="#6BDE78"/>
<path d="M3.5383 123.222C3.5383 123.222 3.14336 123.74 3.7203 124.522C4.29724 125.304 4.77408 125.964 4.58116 126.451C4.58116 126.451 3.70938 124.993 2.99958 124.98C2.28977 124.967 2.75751 124.088 3.5383 123.222Z" fill="#6BDE78"/>
<path opacity="0.1" d="M3.5382 123.222C3.50411 123.272 3.47716 123.327 3.45812 123.384C2.76652 124.199 2.39706 124.96 3.06318 124.98C3.68198 124.998 4.42636 126.107 4.6029 126.387C4.59732 126.409 4.59064 126.43 4.58288 126.451C4.58288 126.451 3.7111 124.993 3.0013 124.98C2.2915 124.967 2.75742 124.088 3.5382 123.222Z" fill="black"/>
<path d="M2.80453 123.882C2.80453 124.064 2.82455 124.212 2.85003 124.212C2.87551 124.212 2.89553 124.064 2.89553 123.882C2.89553 123.699 2.87005 123.785 2.84457 123.785C2.81909 123.785 2.80453 123.699 2.80453 123.882Z" fill="#FFD037"/>
<path d="M2.55135 124.101C2.71151 124.188 2.84983 124.239 2.86257 124.217C2.87531 124.196 2.75519 124.108 2.59503 124.021C2.43487 123.933 2.49857 123.997 2.48583 124.021C2.47309 124.044 2.39119 124.013 2.55135 124.101Z" fill="#FFD037"/>
<path d="M5.62559 123.222C5.62559 123.222 6.02235 123.74 5.44359 124.522C4.86483 125.304 4.38981 125.964 4.58273 126.451C4.58273 126.451 5.45451 124.993 6.16431 124.98C6.87411 124.967 6.40637 124.088 5.62559 123.222Z" fill="#6BDE78"/>
<path opacity="0.1" d="M5.62549 123.222C5.65981 123.272 5.68735 123.327 5.70739 123.384C6.39899 124.199 6.76845 124.96 6.10233 124.98C5.48353 124.998 4.73915 126.107 4.56079 126.387C4.56615 126.409 4.57346 126.431 4.58263 126.451C4.58263 126.451 5.45441 124.993 6.16421 124.98C6.87401 124.967 6.40627 124.088 5.62549 123.222Z" fill="black"/>
<path d="M6.36111 123.882C6.36111 124.064 6.34109 124.212 6.31561 124.212C6.29013 124.212 6.27011 124.064 6.27011 123.882C6.27011 123.699 6.29559 123.785 6.32107 123.785C6.34655 123.785 6.36111 123.699 6.36111 123.882Z" fill="#FFD037"/>
<path d="M6.61392 124.101C6.45376 124.188 6.31362 124.239 6.3027 124.217C6.29178 124.196 6.41008 124.108 6.57024 124.021C6.7304 123.933 6.6667 123.997 6.67762 124.021C6.68854 124.044 6.77226 124.013 6.61392 124.101Z" fill="#FFD037"/>
<path d="M6.23539 126.383C6.23539 126.383 5.13064 126.348 4.79758 126.111C4.46452 125.874 3.0977 125.59 3.01398 125.971C2.93026 126.352 1.35414 127.867 2.60084 127.876C3.84754 127.886 5.5001 127.681 5.83316 127.479C6.16623 127.277 6.23539 126.383 6.23539 126.383Z" fill="#A8A8A8"/>
<path opacity="0.2" d="M2.57885 127.744C3.82737 127.755 5.47811 127.55 5.81117 127.346C6.06415 127.193 6.16425 126.639 6.19883 126.382H6.23523C6.23523 126.382 6.16607 127.275 5.83301 127.476C5.49995 127.676 3.84921 127.884 2.60069 127.873C2.23668 127.873 2.11656 127.742 2.12384 127.552C2.17298 127.671 2.3204 127.734 2.57885 127.744Z" fill="black"/>
<path opacity="0.1" d="M6.95766 27.0463C9.13182 27.0463 10.8943 25.2806 10.8943 23.1025C10.8943 20.9244 9.13182 19.1587 6.95766 19.1587C4.7835 19.1587 3.021 20.9244 3.021 23.1025C3.021 25.2806 4.7835 27.0463 6.95766 27.0463Z" fill="#6BDE78"/>
<path opacity="0.1" d="M196.254 58.5624C198.428 58.5624 200.191 56.7967 200.191 54.6186C200.191 52.4405 198.428 50.6748 196.254 50.6748C194.08 50.6748 192.318 52.4405 192.318 54.6186C192.318 56.7967 194.08 58.5624 196.254 58.5624Z" fill="#6BDE78"/>
<path opacity="0.1" d="M125.489 14.5223C127.663 14.5223 129.426 12.7567 129.426 10.5786C129.426 8.40046 127.663 6.63477 125.489 6.63477C123.315 6.63477 121.552 8.40046 121.552 10.5786C121.552 12.7567 123.315 14.5223 125.489 14.5223Z" fill="#6BDE78"/>
<path opacity="0.1" d="M14.8307 51.4694C18.4744 51.4694 21.4282 48.5102 21.4282 44.8599C21.4282 41.2096 18.4744 38.2505 14.8307 38.2505C11.187 38.2505 8.23315 41.2096 8.23315 44.8599C8.23315 48.5102 11.187 51.4694 14.8307 51.4694Z" fill="#6BDE78"/>
<path d="M79.077 107.326L78.844 107.093C78.7937 107.046 78.7651 106.98 78.7651 106.911C78.7651 106.842 78.7937 106.776 78.844 106.728L80.8879 104.679C80.9351 104.628 81.0009 104.6 81.0699 104.6C81.1389 104.6 81.2048 104.628 81.2519 104.679L83.2958 106.726C83.3452 106.774 83.373 106.84 83.373 106.909C83.373 106.978 83.3452 107.043 83.2958 107.091L83.0628 107.325C83.0151 107.374 82.9494 107.402 82.8808 107.402C82.8122 107.402 82.7465 107.374 82.6988 107.325L81.4903 106.048V109.077C81.4908 109.144 81.4646 109.208 81.4174 109.256C81.3703 109.303 81.3061 109.33 81.2392 109.33H80.9025C80.7628 109.33 80.6495 109.217 80.6495 109.077V106.052L79.441 107.328C79.3931 107.377 79.3273 107.405 79.2586 107.405C79.19 107.404 79.1244 107.376 79.077 107.326Z" fill="#F6F7F9"/>
<path fill-rule="evenodd" clip-rule="evenodd" d="M76.3728 106.972C76.3728 104.375 78.4743 102.27 81.0666 102.27C83.6589 102.27 85.7604 104.375 85.7604 106.972C85.7604 109.569 83.6589 111.675 81.0666 111.675C78.4743 111.675 76.3728 109.569 76.3728 106.972ZM85.2144 106.973C85.2144 104.678 83.3574 102.817 81.0666 102.817C78.7767 102.819 76.9208 104.678 76.9188 106.973C76.9188 109.267 78.7758 111.128 81.0666 111.128C83.3574 111.128 85.2144 109.267 85.2144 106.973Z" fill="#F6F7F9"/>
<defs>
<linearGradient id="paint0_linear" x1="160.469" y1="103.601" x2="160.469" y2="18.5772" gradientUnits="userSpaceOnUse">
<stop stop-color="#808080" stop-opacity="0.25"/>
<stop offset="0.54" stop-color="#808080" stop-opacity="0.12"/>
<stop offset="1" stop-color="#808080" stop-opacity="0.1"/>
</linearGradient>
<linearGradient id="paint1_linear" x1="150.501" y1="34.3251" x2="150.501" y2="33.8784" gradientUnits="userSpaceOnUse">
<stop stop-color="#808080" stop-opacity="0.25"/>
<stop offset="0.54" stop-color="#808080" stop-opacity="0.12"/>
<stop offset="1" stop-color="#808080" stop-opacity="0.1"/>
</linearGradient>
<linearGradient id="paint2_linear" x1="107.777" y1="92.6904" x2="135.008" y2="53.2762" gradientUnits="userSpaceOnUse">
<stop stop-color="#808080" stop-opacity="0.25"/>
<stop offset="0.54" stop-color="#808080" stop-opacity="0.12"/>
<stop offset="1" stop-color="#808080" stop-opacity="0.1"/>
</linearGradient>
<linearGradient id="paint3_linear" x1="107.274" y1="92.5216" x2="120.666" y2="46.6949" gradientUnits="userSpaceOnUse">
<stop stop-color="#808080" stop-opacity="0.25"/>
<stop offset="0.54" stop-color="#808080" stop-opacity="0.12"/>
<stop offset="1" stop-color="#808080" stop-opacity="0.1"/>
</linearGradient>
<linearGradient id="paint4_linear" x1="107.837" y1="92.1482" x2="111.666" y2="44.5574" gradientUnits="userSpaceOnUse">
<stop stop-color="#808080" stop-opacity="0.25"/>
<stop offset="0.54" stop-color="#808080" stop-opacity="0.12"/>
<stop offset="1" stop-color="#808080" stop-opacity="0.1"/>
</linearGradient>
<linearGradient id="paint5_linear" x1="107.575" y1="92.3608" x2="105.4" y2="44.6663" gradientUnits="userSpaceOnUse">
<stop stop-color="#808080" stop-opacity="0.25"/>
<stop offset="0.54" stop-color="#808080" stop-opacity="0.12"/>
<stop offset="1" stop-color="#808080" stop-opacity="0.1"/>
</linearGradient>
<linearGradient id="paint6_linear" x1="197.373" y1="46.8113" x2="207.002" y2="17.1947" gradientUnits="userSpaceOnUse">
<stop stop-color="#808080" stop-opacity="0.25"/>
<stop offset="0.54" stop-color="#808080" stop-opacity="0.12"/>
<stop offset="1" stop-color="#808080" stop-opacity="0.1"/>
</linearGradient>
<linearGradient id="paint7_linear" x1="170.94" y1="149.346" x2="170.94" y2="72.3829" gradientUnits="userSpaceOnUse">
<stop stop-color="#808080" stop-opacity="0.25"/>
<stop offset="0.54" stop-color="#808080" stop-opacity="0.12"/>
<stop offset="1" stop-color="#808080" stop-opacity="0.1"/>
</linearGradient>
</defs>
</svg>
