<svg width="1200" height="241" viewBox="0 0 1200 241" fill="none" xmlns="http://www.w3.org/2000/svg">
<path fill-rule="evenodd" clip-rule="evenodd" d="M0 9C0 4.02944 4.02944 0 9 0H1191C1195.97 0 1200 4.02944 1200 9V230C1200 230 871.935 211 555.484 215C239.032 219 0 241 0 241L0 9Z" fill="url(#paint0_linear)"/>
<mask id="mask0" mask-type="alpha" maskUnits="userSpaceOnUse" x="0" y="0" width="1200" height="241">
<path fill-rule="evenodd" clip-rule="evenodd" d="M0 9C0 4.02944 4.02944 0 9 0H1191C1195.97 0 1200 4.02944 1200 9V230C1200 230 871.935 211 555.484 215C239.032 219 0 241 0 241L0 9Z" fill="white"/>
</mask>
<g mask="url(#mask0)">
<path fill-rule="evenodd" clip-rule="evenodd" d="M870.634 200.086L840.034 222.192C838.533 223.276 836.39 222.973 835.272 221.519L831.671 216.837C830.552 215.383 830.865 213.306 832.365 212.222L862.966 190.116C864.467 189.031 866.61 189.334 867.728 190.789L871.329 195.471C872.448 196.925 872.135 199.002 870.634 200.086Z" stroke="#333740" stroke-width="2"/>
<path fill-rule="evenodd" clip-rule="evenodd" d="M856 196.067L840.709 207.136L836.693 201.904C835.538 200.399 835.861 198.249 837.411 197.127L847.066 190.138C848.616 189.016 850.829 189.33 851.984 190.835L856 196.067Z" stroke="#333740" stroke-width="2"/>
<path fill-rule="evenodd" clip-rule="evenodd" d="M897.432 251.785L864.611 231.958C863.002 230.986 862.515 228.929 863.53 227.387L866.797 222.423C867.812 220.881 869.959 220.415 871.568 221.387L904.389 241.214C905.998 242.186 906.485 244.243 905.47 245.785L902.203 250.749C901.188 252.291 899.041 252.757 897.432 251.785Z" stroke="#333740" stroke-width="2"/>
<path fill-rule="evenodd" clip-rule="evenodd" d="M896.93 234.623L881 225.489L884.539 220.386C885.557 218.917 887.711 218.474 889.326 219.399L899.383 225.166C900.998 226.092 901.486 228.051 900.468 229.519L896.93 234.623Z" stroke="#333740" stroke-width="2"/>
<path fill-rule="evenodd" clip-rule="evenodd" d="M998.693 196.1L963.158 207.952C961.415 208.533 959.53 207.534 958.968 205.731L957.16 199.927C956.598 198.124 957.564 196.173 959.307 195.592L994.842 183.741C996.584 183.159 998.47 184.159 999.032 185.962L1000.84 191.766C1001.4 193.569 1000.44 195.519 998.693 196.1Z" stroke="#333740" stroke-width="2"/>
<path fill-rule="evenodd" clip-rule="evenodd" d="M987 186.933L969.188 192.41L967.166 186.424C966.584 184.702 967.585 182.838 969.39 182.283L980.636 178.825C982.442 178.269 984.395 179.225 984.977 180.947L987 186.933Z" stroke="#333740" stroke-width="2"/>
<path fill-rule="evenodd" clip-rule="evenodd" d="M941.556 207.025L957.673 240.157C958.464 241.782 957.77 243.752 956.132 244.536L950.859 247.061C949.221 247.844 947.234 247.156 946.444 245.532L930.327 212.4C929.536 210.775 930.23 208.804 931.868 208.02L937.141 205.496C938.779 204.712 940.766 205.4 941.556 207.025Z" stroke="#333740" stroke-width="2"/>
<path fill-rule="evenodd" clip-rule="evenodd" d="M933.877 220.879L942 237.375L936.069 240.179C934.363 240.986 932.293 240.278 931.469 238.606L926.34 228.19C925.517 226.518 926.24 224.49 927.946 223.683L933.877 220.879Z" stroke="#333740" stroke-width="2"/>
<path fill-rule="evenodd" clip-rule="evenodd" d="M982.328 243.901L998.468 210.009C999.259 208.348 1001.24 207.646 1002.88 208.451L1008.14 211.042C1009.77 211.847 1010.46 213.865 1009.67 215.527L993.533 249.419C992.741 251.081 990.756 251.782 989.122 250.977L983.861 248.386C982.226 247.581 981.537 245.563 982.328 243.901Z" stroke="#333740" stroke-width="2"/>
<path fill-rule="evenodd" clip-rule="evenodd" d="M998 240.467L1006.14 224.806L1012.06 227.478C1013.76 228.247 1014.48 230.174 1013.66 231.762L1008.52 241.65C1007.69 243.238 1005.62 243.908 1003.92 243.139L998 240.467Z" stroke="#333740" stroke-width="2"/>
<path fill-rule="evenodd" clip-rule="evenodd" d="M1153.38 192.554L1178.18 220.418C1179.39 221.784 1179.25 223.877 1177.85 225.069L1173.36 228.906C1171.97 230.098 1169.83 229.955 1168.62 228.589L1143.82 200.725C1142.61 199.359 1142.75 197.265 1144.15 196.074L1148.64 192.237C1150.03 191.045 1152.17 191.188 1153.38 192.554Z" stroke="#333740" stroke-width="2"/>
<path fill-rule="evenodd" clip-rule="evenodd" d="M1151 208.117L1163 222.477L1158.15 226.89C1156.76 228.159 1154.62 228.007 1153.4 226.552L1145.83 217.485C1144.61 216.029 1144.75 213.8 1146.15 212.53L1151 208.117Z" stroke="#333740" stroke-width="2"/>
<path fill-rule="evenodd" clip-rule="evenodd" d="M1211.77 266.225L1193.4 233.337C1192.5 231.724 1193.17 229.715 1194.9 228.873L1200.45 226.161C1202.18 225.319 1204.33 225.949 1205.23 227.562L1223.6 260.45C1224.5 262.063 1223.83 264.072 1222.1 264.914L1216.55 267.626C1214.82 268.469 1212.67 267.838 1211.77 266.225Z" stroke="#333740" stroke-width="2"/>
<path fill-rule="evenodd" clip-rule="evenodd" d="M1041.92 187.738L1077.82 201.769C1079.58 202.457 1080.45 204.452 1079.76 206.203L1077.54 211.839C1076.84 213.59 1074.84 214.46 1073.08 213.772L1037.18 199.74C1035.42 199.052 1034.55 197.057 1035.24 195.306L1037.46 189.67C1038.16 187.919 1040.16 187.05 1041.92 187.738Z" stroke="#333740" stroke-width="2"/>
<path fill-rule="evenodd" clip-rule="evenodd" d="M1046.64 203.209L1064 209.411L1061.6 214.971C1060.9 216.571 1058.9 217.365 1057.14 216.737L1046.18 212.821C1044.42 212.192 1043.55 210.369 1044.24 208.769L1046.64 203.209Z" stroke="#333740" stroke-width="2"/>
<path fill-rule="evenodd" clip-rule="evenodd" d="M1088.8 235.692L1122.93 217.367C1124.6 216.468 1126.72 217.079 1127.63 218.724L1130.58 224.02C1131.49 225.665 1130.87 227.746 1129.2 228.645L1095.07 246.97C1093.4 247.868 1091.28 247.258 1090.36 245.613L1087.42 240.317C1086.51 238.672 1087.13 236.59 1088.8 235.692Z" stroke="#333740" stroke-width="2"/>
<path fill-rule="evenodd" clip-rule="evenodd" d="M1104 242.155L1119.6 233.641L1122.6 239.132C1123.47 240.712 1122.88 242.711 1121.3 243.574L1111.45 248.95C1109.87 249.813 1107.87 249.226 1107 247.646L1104 242.155Z" stroke="#333740" stroke-width="2"/>
<path fill-rule="evenodd" clip-rule="evenodd" d="M1037.08 239.832L1074.81 236.599C1076.66 236.44 1078.31 237.796 1078.47 239.612L1078.99 245.458C1079.15 247.273 1077.77 248.889 1075.92 249.047L1038.19 252.28C1036.34 252.439 1034.69 251.083 1034.53 249.267L1034.01 243.422C1033.85 241.606 1035.23 239.99 1037.08 239.832Z" stroke="#333740" stroke-width="2"/>
<path fill-rule="evenodd" clip-rule="evenodd" d="M430.634 200.086L400.034 222.192C398.533 223.276 396.39 222.973 395.272 221.519L391.671 216.837C390.552 215.383 390.865 213.306 392.365 212.222L422.966 190.116C424.467 189.031 426.61 189.334 427.728 190.789L431.329 195.471C432.448 196.925 432.135 199.002 430.634 200.086Z" stroke="#333740" stroke-width="2"/>
<path fill-rule="evenodd" clip-rule="evenodd" d="M416 196.067L400.709 207.136L396.693 201.904C395.538 200.399 395.861 198.249 397.411 197.127L407.066 190.138C408.616 189.016 410.829 189.33 411.984 190.835L416 196.067Z" stroke="#333740" stroke-width="2"/>
<path fill-rule="evenodd" clip-rule="evenodd" d="M457.432 251.785L424.611 231.958C423.002 230.986 422.515 228.929 423.53 227.387L426.797 222.423C427.812 220.881 429.959 220.415 431.568 221.387L464.389 241.214C465.998 242.186 466.485 244.243 465.47 245.785L462.203 250.749C461.188 252.291 459.041 252.757 457.432 251.785Z" stroke="#333740" stroke-width="2"/>
<path fill-rule="evenodd" clip-rule="evenodd" d="M456.93 234.623L441 225.489L444.539 220.386C445.557 218.917 447.711 218.474 449.326 219.399L459.383 225.166C460.998 226.092 461.486 228.051 460.468 229.519L456.93 234.623Z" stroke="#333740" stroke-width="2"/>
<path fill-rule="evenodd" clip-rule="evenodd" d="M558.693 196.1L523.158 207.952C521.415 208.533 519.53 207.534 518.968 205.731L517.16 199.927C516.598 198.124 517.564 196.173 519.307 195.592L554.842 183.741C556.584 183.159 558.47 184.159 559.032 185.962L560.84 191.766C561.402 193.569 560.436 195.519 558.693 196.1Z" stroke="#333740" stroke-width="2"/>
<path fill-rule="evenodd" clip-rule="evenodd" d="M547 186.933L529.188 192.41L527.166 186.424C526.584 184.702 527.585 182.838 529.39 182.283L540.636 178.825C542.442 178.269 544.395 179.225 544.977 180.947L547 186.933Z" stroke="#333740" stroke-width="2"/>
<path fill-rule="evenodd" clip-rule="evenodd" d="M501.556 207.025L517.673 240.157C518.464 241.782 517.77 243.752 516.132 244.536L510.859 247.061C509.221 247.844 507.234 247.156 506.444 245.532L490.327 212.4C489.536 210.775 490.23 208.804 491.868 208.02L497.141 205.496C498.779 204.712 500.766 205.4 501.556 207.025Z" stroke="#333740" stroke-width="2"/>
<path fill-rule="evenodd" clip-rule="evenodd" d="M493.877 220.879L502 237.375L496.069 240.179C494.363 240.986 492.293 240.278 491.469 238.606L486.34 228.19C485.517 226.518 486.24 224.49 487.946 223.683L493.877 220.879Z" stroke="#333740" stroke-width="2"/>
<path fill-rule="evenodd" clip-rule="evenodd" d="M542.328 243.901L558.468 210.009C559.259 208.348 561.244 207.646 562.878 208.451L568.139 211.042C569.774 211.847 570.463 213.865 569.672 215.527L553.533 249.419C552.741 251.081 550.756 251.782 549.122 250.977L543.861 248.386C542.226 247.581 541.537 245.563 542.328 243.901Z" stroke="#333740" stroke-width="2"/>
<path fill-rule="evenodd" clip-rule="evenodd" d="M558 240.467L566.139 224.806L572.06 227.478C573.764 228.247 574.483 230.174 573.658 231.762L568.519 241.65C567.694 243.238 565.625 243.908 563.921 243.139L558 240.467Z" stroke="#333740" stroke-width="2"/>
<path fill-rule="evenodd" clip-rule="evenodd" d="M713.381 192.554L738.175 220.418C739.391 221.784 739.245 223.877 737.851 225.069L733.364 228.906C731.97 230.098 729.834 229.955 728.619 228.589L703.825 200.725C702.609 199.359 702.755 197.265 704.149 196.074L708.636 192.237C710.03 191.045 712.166 191.188 713.381 192.554Z" stroke="#333740" stroke-width="2"/>
<path fill-rule="evenodd" clip-rule="evenodd" d="M710.997 208.117L723 222.477L718.152 226.89C716.757 228.159 714.62 228.007 713.404 226.552L705.825 217.485C704.609 216.029 704.754 213.8 706.149 212.53L710.997 208.117Z" stroke="#333740" stroke-width="2"/>
<path fill-rule="evenodd" clip-rule="evenodd" d="M771.774 266.225L753.4 233.337C752.499 231.724 753.173 229.715 754.898 228.873L760.452 226.161C762.177 225.319 764.326 225.949 765.227 227.562L783.6 260.45C784.501 262.063 783.827 264.072 782.102 264.914L776.548 267.626C774.823 268.469 772.675 267.838 771.774 266.225Z" stroke="#333740" stroke-width="2"/>
<path fill-rule="evenodd" clip-rule="evenodd" d="M779.474 252.293L771 236.846L776.716 234.004C778.361 233.186 780.409 233.798 781.268 235.364L786.619 245.117C787.478 246.683 786.835 248.633 785.19 249.451L779.474 252.293Z" stroke="#333740" stroke-width="2"/>
<path fill-rule="evenodd" clip-rule="evenodd" d="M601.923 187.738L637.82 201.769C639.58 202.457 640.455 204.452 639.763 206.203L637.536 211.839C636.844 213.59 634.838 214.46 633.077 213.772L597.18 199.74C595.42 199.052 594.545 197.057 595.237 195.306L597.464 189.67C598.156 187.919 600.162 187.05 601.923 187.738Z" stroke="#333740" stroke-width="2"/>
<path fill-rule="evenodd" clip-rule="evenodd" d="M606.641 203.209L624 209.411L621.596 214.971C620.905 216.571 618.9 217.365 617.14 216.737L606.179 212.821C604.419 212.192 603.545 210.369 604.237 208.769L606.641 203.209Z" stroke="#333740" stroke-width="2"/>
<path fill-rule="evenodd" clip-rule="evenodd" d="M648.803 235.692L682.93 217.367C684.604 216.468 686.721 217.079 687.635 218.724L690.578 224.02C691.492 225.665 690.871 227.746 689.198 228.645L655.07 246.97C653.396 247.868 651.279 247.258 650.365 245.613L647.422 240.317C646.508 238.672 647.129 236.59 648.803 235.692Z" stroke="#333740" stroke-width="2"/>
<path fill-rule="evenodd" clip-rule="evenodd" d="M664 242.155L679.599 233.641L682.601 239.132C683.465 240.712 682.878 242.711 681.297 243.574L671.447 248.95C669.866 249.813 667.866 249.226 667.002 247.646L664 242.155Z" stroke="#333740" stroke-width="2"/>
<path fill-rule="evenodd" clip-rule="evenodd" d="M597.083 239.832L634.81 236.599C636.66 236.44 638.306 237.796 638.467 239.612L638.987 245.458C639.149 247.273 637.767 248.889 635.917 249.047L598.19 252.28C596.34 252.439 594.695 251.083 594.533 249.267L594.013 243.422C593.851 241.606 595.233 239.99 597.083 239.832Z" stroke="#333740" stroke-width="2"/>
<path fill-rule="evenodd" clip-rule="evenodd" d="M826.609 221.479L808.358 254.427C807.463 256.043 805.303 256.687 803.557 255.858L797.937 253.191C796.192 252.363 795.496 250.363 796.391 248.748L814.641 215.8C815.537 214.184 817.697 213.541 819.443 214.369L825.063 217.036C826.808 217.864 827.504 219.864 826.609 221.479Z" stroke="#333740" stroke-width="2"/>
<path fill-rule="evenodd" clip-rule="evenodd" d="M811 222.233L802.608 238.549L796.841 235.603C795.182 234.755 794.52 232.707 795.371 231.054L800.67 220.751C801.521 219.097 803.574 218.438 805.233 219.286L811 222.233Z" stroke="#333740" stroke-width="2"/>
<path fill-rule="evenodd" clip-rule="evenodd" d="M1191.57 157.543L1224.39 137.717C1226 136.744 1226.48 134.687 1225.47 133.145L1222.2 128.181C1221.19 126.639 1219.04 126.173 1217.43 127.145L1184.61 146.972C1183 147.944 1182.52 150.001 1183.53 151.543L1186.8 156.508C1187.81 158.05 1189.96 158.516 1191.57 157.543Z" stroke="#333740" stroke-width="2"/>
<path fill-rule="evenodd" clip-rule="evenodd" d="M1192.07 140.381L1208 131.247L1204.46 126.144C1203.44 124.676 1201.29 124.232 1199.67 125.158L1189.62 130.925C1188 131.85 1187.51 133.809 1188.53 135.278L1192.07 140.381Z" stroke="#333740" stroke-width="2"/>
<path fill-rule="evenodd" clip-rule="evenodd" d="M1090.31 101.858L1125.84 113.71C1127.58 114.291 1129.47 113.292 1130.03 111.489L1131.84 105.685C1132.4 103.882 1131.44 101.932 1129.69 101.35L1094.16 89.4989C1092.42 88.9175 1090.53 89.9171 1089.97 91.72L1088.16 97.524C1087.6 99.3269 1088.56 101.277 1090.31 101.858Z" stroke="#333740" stroke-width="2"/>
<path fill-rule="evenodd" clip-rule="evenodd" d="M1102 92.691L1119.81 98.1685L1121.83 92.1824C1122.42 90.46 1121.42 88.5965 1119.61 88.0415L1108.36 84.5831C1106.56 84.0276 1104.6 84.9828 1104.02 86.7049L1102 92.691Z" stroke="#333740" stroke-width="2"/>
<path fill-rule="evenodd" clip-rule="evenodd" d="M1147.44 112.783L1131.33 145.915C1130.54 147.54 1131.23 149.511 1132.87 150.295L1138.14 152.819C1139.78 153.603 1141.77 152.915 1142.56 151.29L1158.67 118.158C1159.46 116.533 1158.77 114.563 1157.13 113.779L1151.86 111.254C1150.22 110.471 1148.23 111.159 1147.44 112.783Z" stroke="#333740" stroke-width="2"/>
<path fill-rule="evenodd" clip-rule="evenodd" d="M1155.12 126.637L1147 143.133L1152.93 145.937C1154.64 146.744 1156.71 146.036 1157.53 144.364L1162.66 133.949C1163.48 132.277 1162.76 130.248 1161.05 129.442L1155.12 126.637Z" stroke="#333740" stroke-width="2"/>
<path fill-rule="evenodd" clip-rule="evenodd" d="M1106.67 149.66L1090.53 115.767C1089.74 114.106 1087.76 113.404 1086.12 114.209L1080.86 116.8C1079.23 117.605 1078.54 119.623 1079.33 121.285L1095.47 155.178C1096.26 156.839 1098.24 157.541 1099.88 156.736L1105.14 154.145C1106.77 153.34 1107.46 151.321 1106.67 149.66Z" stroke="#333740" stroke-width="2"/>
<path fill-rule="evenodd" clip-rule="evenodd" d="M1091 146.225L1082.86 130.564L1076.94 133.236C1075.24 134.005 1074.52 135.933 1075.34 137.52L1080.48 147.409C1081.31 148.996 1083.38 149.666 1085.08 148.897L1091 146.225Z" stroke="#333740" stroke-width="2"/>
<path fill-rule="evenodd" clip-rule="evenodd" d="M935.619 98.3127L910.825 126.176C909.609 127.543 909.755 129.636 911.149 130.827L915.636 134.664C917.03 135.856 919.166 135.713 920.381 134.347L945.175 106.483C946.391 105.117 946.245 103.024 944.851 101.832L940.364 97.9951C938.97 96.8035 936.834 96.9463 935.619 98.3127Z" stroke="#333740" stroke-width="2"/>
<path fill-rule="evenodd" clip-rule="evenodd" d="M938.003 113.875L926 128.235L930.848 132.648C932.243 133.918 934.38 133.766 935.596 132.31L943.175 123.243C944.391 121.787 944.246 119.558 942.851 118.288L938.003 113.875Z" stroke="#333740" stroke-width="2"/>
<path fill-rule="evenodd" clip-rule="evenodd" d="M877.226 171.984L895.6 139.095C896.501 137.483 895.827 135.474 894.102 134.631L888.548 131.92C886.823 131.077 884.674 131.708 883.773 133.32L865.4 166.209C864.499 167.821 865.173 169.83 866.898 170.673L872.452 173.384C874.177 174.227 876.325 173.596 877.226 171.984Z" stroke="#333740" stroke-width="2"/>
<path fill-rule="evenodd" clip-rule="evenodd" d="M869.526 158.051L878 142.604L872.284 139.762C870.639 138.944 868.591 139.556 867.732 141.122L862.381 150.875C861.522 152.441 862.165 154.391 863.81 155.209L869.526 158.051Z" stroke="#333740" stroke-width="2"/>
<path fill-rule="evenodd" clip-rule="evenodd" d="M1047.08 93.4959L1011.18 107.527C1009.42 108.215 1008.55 110.21 1009.24 111.961L1011.46 117.598C1012.16 119.348 1014.16 120.218 1015.92 119.53L1051.82 105.499C1053.58 104.81 1054.45 102.815 1053.76 101.065L1051.54 95.4281C1050.84 93.6775 1048.84 92.8079 1047.08 93.4959Z" stroke="#333740" stroke-width="2"/>
<path fill-rule="evenodd" clip-rule="evenodd" d="M1042.36 108.967L1025 115.169L1027.4 120.73C1028.1 122.33 1030.1 123.124 1031.86 122.495L1042.82 118.579C1044.58 117.95 1045.45 116.127 1044.76 114.527L1042.36 108.967Z" stroke="#333740" stroke-width="2"/>
<path fill-rule="evenodd" clip-rule="evenodd" d="M1000.2 141.45L966.07 123.126C964.396 122.227 962.279 122.838 961.365 124.483L958.422 129.779C957.508 131.423 958.129 133.505 959.802 134.403L993.93 152.728C995.604 153.627 997.721 153.016 998.635 151.371L1001.58 146.075C1002.49 144.43 1001.87 142.349 1000.2 141.45Z" stroke="#333740" stroke-width="2"/>
<path fill-rule="evenodd" clip-rule="evenodd" d="M985 147.913L969.401 139.399L966.399 144.89C965.535 146.47 966.122 148.469 967.703 149.332L977.553 154.708C979.134 155.571 981.134 154.984 981.998 153.405L985 147.913Z" stroke="#333740" stroke-width="2"/>
<path fill-rule="evenodd" clip-rule="evenodd" d="M1051.92 145.59L1014.19 142.357C1012.34 142.198 1010.69 143.554 1010.53 145.37L1010.01 151.216C1009.85 153.032 1011.23 154.647 1013.08 154.806L1050.81 158.039C1052.66 158.197 1054.31 156.841 1054.47 155.026L1054.99 149.18C1055.15 147.364 1053.77 145.749 1051.92 145.59Z" stroke="#333740" stroke-width="2"/>
<path fill-rule="evenodd" clip-rule="evenodd" d="M1043 158.478L1023.61 157.07L1023.01 162.753C1022.84 164.388 1024.31 165.843 1026.27 165.986L1038.52 166.875C1040.48 167.018 1042.23 165.797 1042.4 164.162L1043 158.478Z" stroke="#333740" stroke-width="2"/>
<path fill-rule="evenodd" clip-rule="evenodd" d="M922.599 192.34L925.986 155.321C926.152 153.506 924.786 151.886 922.951 151.722L917.041 151.193C915.205 151.029 913.567 152.38 913.401 154.195L910.014 191.214C909.848 193.029 911.213 194.649 913.049 194.813L918.959 195.342C920.795 195.506 922.433 194.155 922.599 192.34Z" stroke="#333740" stroke-width="2"/>
<path fill-rule="evenodd" clip-rule="evenodd" d="M910.372 181.612L912 162.598L905.659 161.992C903.835 161.818 902.207 163.252 902.042 165.179L901.014 177.184C900.848 179.112 902.206 180.832 904.03 181.006L910.372 181.612Z" stroke="#333740" stroke-width="2"/>
<path fill-rule="evenodd" clip-rule="evenodd" d="M822.391 127.237L840.642 160.185C841.537 161.801 843.697 162.445 845.443 161.617L851.063 158.95C852.808 158.121 853.504 156.122 852.609 154.506L834.359 121.558C833.463 119.943 831.303 119.299 829.557 120.127L823.937 122.794C822.192 123.622 821.496 125.622 822.391 127.237Z" stroke="#333740" stroke-width="2"/>
<path fill-rule="evenodd" clip-rule="evenodd" d="M838 127.991L846.392 144.308L852.159 141.361C853.818 140.513 854.48 138.466 853.629 136.812L848.33 126.51C847.479 124.856 845.426 124.196 843.767 125.044L838 127.991Z" stroke="#333740" stroke-width="2"/>
<path fill-rule="evenodd" clip-rule="evenodd" d="M769.366 109.771L799.966 131.877C801.467 132.961 803.61 132.658 804.728 131.204L808.329 126.522C809.448 125.068 809.135 122.991 807.635 121.907L777.034 99.8006C775.533 98.7164 773.39 99.0195 772.272 100.474L768.671 105.156C767.552 106.61 767.865 108.687 769.366 109.771Z" stroke="#333740" stroke-width="2"/>
<path fill-rule="evenodd" clip-rule="evenodd" d="M784 105.752L799.291 116.821L803.307 111.589C804.462 110.084 804.139 107.934 802.589 106.812L792.934 99.8233C791.384 98.7014 789.171 99.0146 788.016 100.52L784 105.752Z" stroke="#333740" stroke-width="2"/>
<path fill-rule="evenodd" clip-rule="evenodd" d="M742.568 161.47L775.389 141.643C776.998 140.671 777.485 138.614 776.47 137.072L773.203 132.108C772.188 130.566 770.041 130.1 768.432 131.072L735.611 150.899C734.002 151.871 733.515 153.928 734.53 155.47L737.797 160.434C738.812 161.976 740.959 162.442 742.568 161.47Z" stroke="#333740" stroke-width="2"/>
<path fill-rule="evenodd" clip-rule="evenodd" d="M743.07 144.308L759 135.174L755.461 130.071C754.443 128.602 752.289 128.159 750.674 129.084L740.617 134.851C739.002 135.777 738.514 137.736 739.532 139.204L743.07 144.308Z" stroke="#333740" stroke-width="2"/>
<path fill-rule="evenodd" clip-rule="evenodd" d="M788.031 156.959L771.338 190.091C770.52 191.716 771.238 193.687 772.935 194.471L778.396 196.995C780.093 197.779 782.151 197.091 782.969 195.466L799.662 162.334C800.48 160.709 799.762 158.738 798.065 157.954L792.604 155.43C790.907 154.646 788.85 155.334 788.031 156.959Z" stroke="#333740" stroke-width="2"/>
<path fill-rule="evenodd" clip-rule="evenodd" d="M795.631 170.813L787 187.309L793.302 190.113C795.115 190.92 797.314 190.212 798.189 188.54L803.638 178.125C804.513 176.453 803.745 174.425 801.932 173.617L795.631 170.813Z" stroke="#333740" stroke-width="2"/>
<path fill-rule="evenodd" clip-rule="evenodd" d="M641.307 105.785L676.842 117.637C678.585 118.218 680.47 117.219 681.032 115.416L682.84 109.612C683.402 107.809 682.436 105.858 680.693 105.277L645.158 93.4257C643.416 92.8443 641.53 93.8439 640.968 95.6468L639.16 101.451C638.598 103.254 639.564 105.204 641.307 105.785Z" stroke="#333740" stroke-width="2"/>
<path fill-rule="evenodd" clip-rule="evenodd" d="M653 96.6178L670.812 102.095L672.834 96.1092C673.416 94.3868 672.415 92.5232 670.61 91.9683L659.364 88.5098C657.558 87.9544 655.605 88.9096 655.023 90.6317L653 96.6178Z" stroke="#333740" stroke-width="2"/>
<path fill-rule="evenodd" clip-rule="evenodd" d="M698.444 116.71L682.327 149.842C681.536 151.467 682.23 153.437 683.868 154.221L689.141 156.746C690.779 157.529 692.766 156.842 693.556 155.217L709.673 122.085C710.464 120.46 709.77 118.489 708.132 117.705L702.859 115.181C701.221 114.397 699.234 115.085 698.444 116.71Z" stroke="#333740" stroke-width="2"/>
<path fill-rule="evenodd" clip-rule="evenodd" d="M706.123 130.564L698 147.06L703.931 149.864C705.637 150.671 707.707 149.963 708.531 148.291L713.66 137.875C714.483 136.204 713.76 134.175 712.054 133.368L706.123 130.564Z" stroke="#333740" stroke-width="2"/>
<path fill-rule="evenodd" clip-rule="evenodd" d="M657.672 153.586L641.532 119.694C640.741 118.033 638.756 117.331 637.122 118.136L631.861 120.727C630.226 121.532 629.537 123.55 630.328 125.212L646.467 159.104C647.259 160.766 649.244 161.467 650.878 160.663L656.139 158.071C657.774 157.266 658.463 155.248 657.672 153.586Z" stroke="#333740" stroke-width="2"/>
<path fill-rule="evenodd" clip-rule="evenodd" d="M642 150.152L633.861 134.491L627.94 137.163C626.236 137.932 625.517 139.86 626.342 141.447L631.481 151.336C632.306 152.923 634.375 153.593 636.079 152.824L642 150.152Z" stroke="#333740" stroke-width="2"/>
<path fill-rule="evenodd" clip-rule="evenodd" d="M486.619 102.239L461.825 130.103C460.609 131.469 460.755 133.562 462.149 134.754L466.636 138.591C468.03 139.783 470.166 139.64 471.381 138.274L496.175 110.41C497.391 109.044 497.245 106.95 495.851 105.759L491.364 101.922C489.97 100.73 487.834 100.873 486.619 102.239Z" stroke="#333740" stroke-width="2"/>
<path fill-rule="evenodd" clip-rule="evenodd" d="M489.003 117.802L477 132.162L481.848 136.575C483.243 137.844 485.38 137.692 486.596 136.237L494.175 127.17C495.391 125.714 495.246 123.485 493.851 122.215L489.003 117.802Z" stroke="#333740" stroke-width="2"/>
<path fill-rule="evenodd" clip-rule="evenodd" d="M428.226 175.91L446.6 143.022C447.501 141.409 446.827 139.4 445.102 138.558L439.548 135.846C437.823 135.004 435.674 135.634 434.773 137.247L416.4 170.136C415.499 171.748 416.173 173.757 417.898 174.599L423.452 177.311C425.177 178.154 427.325 177.523 428.226 175.91Z" stroke="#333740" stroke-width="2"/>
<path fill-rule="evenodd" clip-rule="evenodd" d="M420.526 161.978L429 146.531L423.284 143.689C421.639 142.871 419.591 143.483 418.732 145.049L413.381 154.802C412.522 156.368 413.165 158.318 414.81 159.136L420.526 161.978Z" stroke="#333740" stroke-width="2"/>
<path fill-rule="evenodd" clip-rule="evenodd" d="M598.077 97.4227L562.18 111.454C560.42 112.142 559.545 114.137 560.237 115.888L562.464 121.524C563.156 123.275 565.162 124.145 566.923 123.457L602.82 109.425C604.58 108.737 605.455 106.742 604.763 104.991L602.536 99.3548C601.844 97.6043 599.838 96.7347 598.077 97.4227Z" stroke="#333740" stroke-width="2"/>
<path fill-rule="evenodd" clip-rule="evenodd" d="M593.359 112.894L576 119.096L578.404 124.656C579.095 126.256 581.1 127.051 582.86 126.422L593.821 122.506C595.581 121.877 596.455 120.054 595.763 118.454L593.359 112.894Z" stroke="#333740" stroke-width="2"/>
<path fill-rule="evenodd" clip-rule="evenodd" d="M551.197 145.377L517.07 127.052C515.396 126.153 513.279 126.764 512.365 128.409L509.422 133.705C508.508 135.35 509.129 137.431 510.802 138.33L544.93 156.655C546.604 157.554 548.721 156.943 549.635 155.298L552.578 150.002C553.492 148.357 552.871 146.276 551.197 145.377Z" stroke="#333740" stroke-width="2"/>
<path fill-rule="evenodd" clip-rule="evenodd" d="M536 151.84L520.401 143.326L517.399 148.817C516.535 150.397 517.122 152.396 518.703 153.259L528.553 158.635C530.134 159.498 532.134 158.911 532.998 157.331L536 151.84Z" stroke="#333740" stroke-width="2"/>
<path fill-rule="evenodd" clip-rule="evenodd" d="M602.917 149.517L565.19 146.284C563.34 146.125 561.694 147.481 561.533 149.297L561.013 155.143C560.851 156.958 562.233 158.574 564.083 158.732L601.81 161.965C603.66 162.124 605.305 160.768 605.467 158.953L605.987 153.107C606.149 151.291 604.767 149.675 602.917 149.517Z" stroke="#333740" stroke-width="2"/>
<path fill-rule="evenodd" clip-rule="evenodd" d="M594 162.405L574.61 160.996L574.014 166.68C573.842 168.315 575.31 169.77 577.275 169.912L589.518 170.802C591.483 170.944 593.232 169.724 593.403 168.088L594 162.405Z" stroke="#333740" stroke-width="2"/>
<path fill-rule="evenodd" clip-rule="evenodd" d="M473.599 196.267L476.986 159.248C477.152 157.433 475.786 155.813 473.951 155.649L468.041 155.12C466.205 154.955 464.567 156.306 464.401 158.122L461.014 195.141C460.848 196.956 462.213 198.576 464.049 198.74L469.959 199.268C471.795 199.433 473.433 198.082 473.599 196.267Z" stroke="#333740" stroke-width="2"/>
<path fill-rule="evenodd" clip-rule="evenodd" d="M461.372 185.538L463 166.525L456.659 165.919C454.835 165.744 453.207 167.179 453.042 169.106L452.014 181.111C451.848 183.039 453.206 184.758 455.03 184.933L461.372 185.538Z" stroke="#333740" stroke-width="2"/>
<path fill-rule="evenodd" clip-rule="evenodd" d="M373.391 131.164L391.642 164.112C392.537 165.728 394.697 166.372 396.443 165.543L402.063 162.877C403.808 162.048 404.504 160.049 403.609 158.433L385.359 125.485C384.463 123.869 382.303 123.226 380.557 124.054L374.937 126.721C373.192 127.549 372.496 129.549 373.391 131.164Z" stroke="#333740" stroke-width="2"/>
<path fill-rule="evenodd" clip-rule="evenodd" d="M389 131.918L397.392 148.235L403.159 145.288C404.818 144.44 405.48 142.393 404.629 140.739L399.33 130.436C398.479 128.782 396.426 128.123 394.767 128.971L389 131.918Z" stroke="#333740" stroke-width="2"/>
<path fill-rule="evenodd" clip-rule="evenodd" d="M761.366 229.537L791.966 251.643C793.467 252.727 795.61 252.424 796.728 250.97L800.329 246.287C801.448 244.833 801.135 242.756 799.635 241.672L769.034 219.566C767.533 218.482 765.39 218.785 764.272 220.239L760.671 224.921C759.552 226.376 759.865 228.453 761.366 229.537Z" stroke="#333740" stroke-width="2"/>
<path fill-rule="evenodd" clip-rule="evenodd" d="M776 225.517L791.291 236.586L795.307 231.355C796.462 229.849 796.139 227.7 794.589 226.578L784.934 219.589C783.384 218.467 781.171 218.78 780.016 220.285L776 225.517Z" stroke="#333740" stroke-width="2"/>
<path fill-rule="evenodd" clip-rule="evenodd" d="M633.307 225.551L668.842 237.402C670.585 237.983 672.47 236.984 673.032 235.181L674.84 229.377C675.402 227.574 674.436 225.624 672.693 225.042L637.158 213.191C635.416 212.61 633.53 213.609 632.968 215.412L631.16 221.216C630.598 223.019 631.564 224.97 633.307 225.551Z" stroke="#333740" stroke-width="2"/>
<path fill-rule="evenodd" clip-rule="evenodd" d="M645 216.383L662.812 221.861L664.834 215.875C665.416 214.152 664.415 212.289 662.61 211.734L651.364 208.275C649.558 207.72 647.605 208.675 647.023 210.397L645 216.383Z" stroke="#333740" stroke-width="2"/>
<path fill-rule="evenodd" clip-rule="evenodd" d="M690.444 236.475L674.327 269.608C673.536 271.232 674.23 273.203 675.868 273.987L681.141 276.511C682.779 277.295 684.766 276.607 685.556 274.982L701.673 241.85C702.464 240.226 701.77 238.255 700.132 237.471L694.859 234.947C693.221 234.163 691.234 234.851 690.444 236.475Z" stroke="#333740" stroke-width="2"/>
<path fill-rule="evenodd" clip-rule="evenodd" d="M649.672 273.352L633.532 239.46C632.741 237.798 630.756 237.097 629.122 237.902L623.861 240.493C622.226 241.298 621.537 243.316 622.328 244.978L638.467 278.87C639.259 280.532 641.244 281.233 642.878 280.428L648.139 277.837C649.774 277.032 650.463 275.014 649.672 273.352Z" stroke="#333740" stroke-width="2"/>
<path fill-rule="evenodd" clip-rule="evenodd" d="M478.619 222.005L453.825 249.869C452.609 251.235 452.755 253.328 454.149 254.52L458.636 258.356C460.03 259.548 462.166 259.405 463.381 258.039L488.175 230.175C489.391 228.809 489.245 226.716 487.851 225.524L483.364 221.687C481.97 220.496 479.834 220.639 478.619 222.005Z" stroke="#333740" stroke-width="2"/>
<path fill-rule="evenodd" clip-rule="evenodd" d="M481.003 237.568L469 251.928L473.848 256.34C475.243 257.61 477.38 257.458 478.596 256.002L486.175 246.935C487.391 245.48 487.246 243.25 485.851 241.98L481.003 237.568Z" stroke="#333740" stroke-width="2"/>
<path fill-rule="evenodd" clip-rule="evenodd" d="M590.077 217.188L554.18 231.219C552.42 231.907 551.545 233.903 552.237 235.653L554.464 241.29C555.156 243.041 557.162 243.91 558.923 243.222L594.82 229.191C596.58 228.503 597.455 226.507 596.763 224.757L594.536 219.12C593.844 217.37 591.838 216.5 590.077 217.188Z" stroke="#333740" stroke-width="2"/>
<path fill-rule="evenodd" clip-rule="evenodd" d="M585.359 232.659L568 238.862L570.404 244.422C571.095 246.022 573.1 246.816 574.86 246.187L585.821 242.271C587.581 241.642 588.455 239.819 587.763 238.22L585.359 232.659Z" stroke="#333740" stroke-width="2"/>
<path fill-rule="evenodd" clip-rule="evenodd" d="M1172.62 92.1342L1147.82 64.2705C1146.61 62.9043 1146.75 60.8113 1148.15 59.6196L1152.64 55.7828C1154.03 54.5908 1156.17 54.7337 1157.38 56.1001L1182.18 83.9638C1183.39 85.3299 1183.25 87.4232 1181.85 88.6149L1177.36 92.4517C1175.97 93.6434 1173.83 93.5006 1172.62 92.1342Z" stroke="#333740" stroke-width="2"/>
<path fill-rule="evenodd" clip-rule="evenodd" d="M1175 76.5714L1163 62.2115L1167.85 57.799C1169.24 56.5292 1171.38 56.6814 1172.6 58.137L1180.17 67.2038C1181.39 68.6594 1181.25 70.8891 1179.85 72.1589L1175 76.5714Z" stroke="#333740" stroke-width="2"/>
<path fill-rule="evenodd" clip-rule="evenodd" d="M1114.23 18.4632L1132.6 51.3516C1133.5 52.9644 1132.83 54.9733 1131.1 55.8155L1125.55 58.5273C1123.82 59.3698 1121.67 58.7393 1120.77 57.1266L1102.4 24.2382C1101.5 22.6254 1102.17 20.6168 1103.9 19.7743L1109.45 17.0625C1111.18 16.22 1113.33 16.8505 1114.23 18.4632Z" stroke="#333740" stroke-width="2"/>
<path fill-rule="evenodd" clip-rule="evenodd" d="M1106.53 32.3956L1115 47.8425L1109.28 50.6848C1107.64 51.5025 1105.59 50.8907 1104.73 49.3247L1099.38 39.5717C1098.52 38.006 1099.16 36.0556 1100.81 35.238L1106.53 32.3956Z" stroke="#333740" stroke-width="2"/>
<path fill-rule="evenodd" clip-rule="evenodd" d="M1237.2 48.9968L1203.07 67.3213C1201.4 68.2202 1199.28 67.6093 1198.37 65.9643L1195.42 60.6684C1194.51 59.0234 1195.13 56.9422 1196.8 56.0436L1230.93 37.7188C1232.6 36.8201 1234.72 37.4308 1235.64 39.0757L1238.58 44.3719C1239.49 46.0169 1238.87 48.0981 1237.2 48.9968Z" stroke="#333740" stroke-width="2"/>
<path fill-rule="evenodd" clip-rule="evenodd" d="M1159.6 -1.89325L1162.99 35.1256C1163.15 36.9409 1161.79 38.5606 1159.95 38.7249L1154.04 39.2538C1152.2 39.4181 1150.57 38.0671 1150.4 36.2518L1147.01 -0.767017C1146.85 -2.58229 1148.21 -4.20204 1150.05 -4.36636L1155.96 -4.89495C1157.8 -5.05927 1159.43 -3.70852 1159.6 -1.89325Z" stroke="#333740" stroke-width="2"/>
<path fill-rule="evenodd" clip-rule="evenodd" d="M1147.37 8.83517L1149 27.8487L1142.66 28.4545C1140.83 28.6292 1139.21 27.1948 1139.04 25.2676L1138.01 13.2626C1137.85 11.335 1139.21 9.61539 1141.03 9.44094L1147.37 8.83517Z" stroke="#333740" stroke-width="2"/>
<path fill-rule="evenodd" clip-rule="evenodd" d="M1059.39 63.2094L1077.64 30.2617C1078.54 28.646 1080.7 28.002 1082.44 28.8304L1088.06 31.4971C1089.81 32.3255 1090.5 34.3251 1089.61 35.9408L1071.36 68.8885C1070.46 70.5042 1068.3 71.1479 1066.56 70.3199L1060.94 67.6528C1059.19 66.8248 1058.5 64.8251 1059.39 63.2094Z" stroke="#333740" stroke-width="2"/>
<path fill-rule="evenodd" clip-rule="evenodd" d="M1075 62.4557L1083.39 46.1392L1089.16 49.086C1090.82 49.9342 1091.48 51.9812 1090.63 53.6351L1085.33 63.9375C1084.48 65.5914 1082.43 66.2509 1080.77 65.4027L1075 62.4557Z" stroke="#333740" stroke-width="2"/>
<path fill-rule="evenodd" clip-rule="evenodd" d="M979.366 66.9321L1009.97 44.826C1011.47 43.7421 1013.61 44.0449 1014.73 45.4994L1018.33 50.1814C1019.45 51.6358 1019.13 53.7124 1017.63 54.7967L987.034 76.9028C985.533 77.987 983.39 77.6839 982.272 76.2294L978.671 71.5474C977.552 70.093 977.865 68.0161 979.366 66.9321Z" stroke="#333740" stroke-width="2"/>
<path fill-rule="evenodd" clip-rule="evenodd" d="M994 70.9514L1009.29 59.8828L1013.31 65.1142C1014.46 66.6195 1014.14 68.7691 1012.59 69.891L1002.93 76.88C1001.38 78.0019 999.171 77.6887 998.016 76.1834L994 70.9514Z" stroke="#333740" stroke-width="2"/>
<path fill-rule="evenodd" clip-rule="evenodd" d="M952.568 15.2334L985.389 35.06C986.998 36.0325 987.485 38.0893 986.47 39.6313L983.203 44.5957C982.188 46.1377 980.041 46.6036 978.432 45.6314L945.611 25.8045C944.002 24.8325 943.515 22.7754 944.53 21.2334L947.797 16.2691C948.812 14.7271 950.959 14.2609 952.568 15.2334Z" stroke="#333740" stroke-width="2"/>
<path fill-rule="evenodd" clip-rule="evenodd" d="M953.07 32.3956L969 41.5292L965.461 46.6326C964.443 48.1009 962.289 48.5446 960.674 47.6191L950.617 41.8519C949.002 40.9262 948.514 38.9673 949.532 37.4989L953.07 32.3956Z" stroke="#333740" stroke-width="2"/>
<path fill-rule="evenodd" clip-rule="evenodd" d="M998.031 19.7444L981.338 -13.388C980.52 -15.0124 981.238 -16.9834 982.935 -17.7673L988.396 -20.2912C990.093 -21.0751 992.151 -20.3872 992.969 -18.7625L1009.66 14.3696C1010.48 15.9943 1009.76 17.965 1008.07 18.7489L1002.6 21.2731C1000.91 22.057 998.85 21.3691 998.031 19.7444Z" stroke="#333740" stroke-width="2"/>
<path fill-rule="evenodd" clip-rule="evenodd" d="M1005.63 5.89014L997 -10.606L1003.3 -13.41C1005.11 -14.2168 1007.31 -13.509 1008.19 -11.837L1013.64 -1.42137C1014.51 0.25067 1013.75 2.27883 1011.93 3.08588L1005.63 5.89014Z" stroke="#333740" stroke-width="2"/>
<path fill-rule="evenodd" clip-rule="evenodd" d="M851.307 70.9181L886.842 59.0666C888.585 58.4854 890.47 59.4847 891.032 61.2877L892.84 67.0916C893.402 68.8945 892.436 70.8449 890.693 71.4264L855.158 83.2777C853.416 83.8591 851.53 82.8595 850.968 81.0566L849.16 75.2526C848.598 73.4497 849.564 71.4993 851.307 70.9181Z" stroke="#333740" stroke-width="2"/>
<path fill-rule="evenodd" clip-rule="evenodd" d="M863 80.0856L880.812 74.6081L882.834 80.5942C883.416 82.3166 882.415 84.1801 880.61 84.7351L869.364 88.1935C867.558 88.749 865.605 87.7938 865.023 86.0717L863 80.0856Z" stroke="#333740" stroke-width="2"/>
<path fill-rule="evenodd" clip-rule="evenodd" d="M908.444 59.9934L892.327 26.8613C891.536 25.2366 892.23 23.2659 893.868 22.482L899.141 19.9578C900.779 19.1739 902.766 19.8618 903.556 21.4865L919.673 54.6187C920.464 56.2433 919.77 58.214 918.132 58.9979L912.859 61.5221C911.221 62.3061 909.234 61.6181 908.444 59.9934Z" stroke="#333740" stroke-width="2"/>
<path fill-rule="evenodd" clip-rule="evenodd" d="M916.123 46.1393L908 29.6435L913.931 26.8392C915.637 26.0322 917.707 26.7405 918.531 28.4122L923.66 38.8281C924.483 40.4998 923.76 42.5283 922.054 43.335L916.123 46.1393Z" stroke="#333740" stroke-width="2"/>
<path fill-rule="evenodd" clip-rule="evenodd" d="M867.672 23.117L851.532 57.0091C850.741 58.6708 848.756 59.3722 847.122 58.5673L841.861 55.9761C840.226 55.1712 839.537 53.1534 840.328 51.4911L856.467 17.599C857.259 15.9373 859.244 15.2359 860.878 16.0408L866.139 18.632C867.774 19.4369 868.463 21.4553 867.672 23.117Z" stroke="#333740" stroke-width="2"/>
<path fill-rule="evenodd" clip-rule="evenodd" d="M852 26.5512L843.861 42.2125L837.94 39.5403C836.236 38.7717 835.517 36.8438 836.342 35.2561L841.481 25.3678C842.306 23.7804 844.375 23.1107 846.079 23.8793L852 26.5512Z" stroke="#333740" stroke-width="2"/>
<path fill-rule="evenodd" clip-rule="evenodd" d="M696.619 74.4639L671.825 46.6002C670.609 45.2341 670.755 43.141 672.149 41.9494L676.636 38.1125C678.03 36.9205 680.166 37.0634 681.381 38.4298L706.175 66.2935C707.391 67.6596 707.245 69.7529 705.851 70.9446L701.364 74.7815C699.97 75.9731 697.834 75.8303 696.619 74.4639Z" stroke="#333740" stroke-width="2"/>
<path fill-rule="evenodd" clip-rule="evenodd" d="M699.003 58.9011L687 44.5412L691.848 40.1287C693.243 38.8589 695.38 39.0111 696.596 40.4667L704.175 49.5335C705.391 50.9891 705.246 53.2188 703.851 54.4886L699.003 58.9011Z" stroke="#333740" stroke-width="2"/>
<path fill-rule="evenodd" clip-rule="evenodd" d="M638.226 0.7929L656.6 33.6814C657.501 35.2941 656.827 37.303 655.102 38.1452L649.548 40.857C647.823 41.6995 645.674 41.069 644.773 39.4563L626.4 6.56786C625.499 4.95513 626.173 2.94652 627.898 2.10404L633.452 -0.607834C635.177 -1.45031 637.325 -0.819833 638.226 0.7929Z" stroke="#333740" stroke-width="2"/>
<path fill-rule="evenodd" clip-rule="evenodd" d="M630.526 14.7253L639 30.1722L633.284 33.0146C631.639 33.8322 629.591 33.2204 628.732 31.6544L623.381 21.9014C622.522 20.3357 623.165 18.3853 624.81 17.5677L630.526 14.7253Z" stroke="#333740" stroke-width="2"/>
<path fill-rule="evenodd" clip-rule="evenodd" d="M808.077 79.2807L772.18 65.2496C770.42 64.5616 769.545 62.5662 770.237 60.8157L772.464 55.1789C773.156 53.4283 775.162 52.5588 776.923 53.2468L812.82 67.2781C814.58 67.9661 815.455 69.9615 814.763 71.7121L812.536 77.3486C811.844 79.0991 809.838 79.9687 808.077 79.2807Z" stroke="#333740" stroke-width="2"/>
<path fill-rule="evenodd" clip-rule="evenodd" d="M803.359 63.8096L786 57.6073L788.404 52.047C789.095 50.4469 791.1 49.6528 792.86 50.2815L803.821 54.1977C805.581 54.8264 806.455 56.6497 805.763 58.2493L803.359 63.8096Z" stroke="#333740" stroke-width="2"/>
<path fill-rule="evenodd" clip-rule="evenodd" d="M761.197 31.3265L727.07 49.651C725.396 50.5499 723.279 49.939 722.365 48.294L719.422 42.9981C718.508 41.3531 719.129 39.2719 720.802 38.3733L754.93 20.0485C756.604 19.1499 758.721 19.7605 759.635 21.4055L762.578 26.7017C763.492 28.3466 762.871 30.4279 761.197 31.3265Z" stroke="#333740" stroke-width="2"/>
<path fill-rule="evenodd" clip-rule="evenodd" d="M746 24.8633L730.401 33.3773L727.399 27.8863C726.535 26.3062 727.122 24.3076 728.703 23.4446L738.553 18.0687C740.134 17.2057 742.134 17.7921 742.998 19.372L746 24.8633Z" stroke="#333740" stroke-width="2"/>
<path fill-rule="evenodd" clip-rule="evenodd" d="M812.917 27.1863L775.19 30.4197C773.34 30.5782 771.694 29.2222 771.533 27.4064L771.013 21.5606C770.851 19.745 772.233 18.1295 774.083 17.971L811.81 14.7379C813.66 14.5794 815.305 15.9353 815.467 17.7509L815.987 23.5967C816.149 25.4125 814.767 27.0281 812.917 27.1863Z" stroke="#333740" stroke-width="2"/>
<path fill-rule="evenodd" clip-rule="evenodd" d="M804 14.2984L784.61 15.707L784.014 10.0239C783.842 8.38844 785.31 6.93382 787.275 6.79107L799.518 5.90149C801.483 5.75899 803.232 6.97983 803.403 8.615L804 14.2984Z" stroke="#333740" stroke-width="2"/>
<path fill-rule="evenodd" clip-rule="evenodd" d="M683.599 -19.5634L686.986 17.4554C687.152 19.2707 685.786 20.8904 683.951 21.0548L678.041 21.5836C676.205 21.748 674.567 20.3969 674.401 18.5816L671.014 -18.4372C670.848 -20.2525 672.213 -21.8722 674.049 -22.0365L679.959 -22.5651C681.795 -22.7294 683.433 -21.3787 683.599 -19.5634Z" stroke="#333740" stroke-width="2"/>
<path fill-rule="evenodd" clip-rule="evenodd" d="M671.372 -8.83512L673 10.1784L666.659 10.7842C664.835 10.9589 663.207 9.52455 663.042 7.59731L662.014 -4.40771C661.848 -6.33524 663.206 -8.0549 665.03 -8.22935L671.372 -8.83512Z" stroke="#333740" stroke-width="2"/>
<path fill-rule="evenodd" clip-rule="evenodd" d="M583.391 45.5392L601.642 12.5914C602.537 10.9758 604.697 10.3317 606.443 11.1601L612.063 13.8269C613.808 14.6552 614.504 16.6548 613.609 18.2705L595.359 51.2182C594.463 52.8339 592.303 53.4776 590.557 52.6496L584.937 49.9825C583.192 49.1545 582.496 47.1548 583.391 45.5392Z" stroke="#333740" stroke-width="2"/>
<path fill-rule="evenodd" clip-rule="evenodd" d="M599 44.7853L607.392 28.4688L613.159 31.4156C614.818 32.2638 615.48 34.3108 614.629 35.9647L609.33 46.2671C608.479 47.921 606.426 48.5805 604.767 47.7323L599 44.7853Z" stroke="#333740" stroke-width="2"/>
</g>
<defs>
<linearGradient id="paint0_linear" x1="-600" y1="120.5" x2="-506.951" y2="583.813" gradientUnits="userSpaceOnUse">
<stop stop-color="#333740"/>
<stop offset="1" stop-color="#21252B"/>
</linearGradient>
</defs>
</svg>
