<?xml version="1.0" encoding="UTF-8"?>
<svg width="566px" height="305px" viewBox="0 0 566 305" version="1.1" xmlns="http://www.w3.org/2000/svg" xmlns:xlink="http://www.w3.org/1999/xlink">
    <!-- Generator: Sketch 59.1 (86144) - https://sketch.com -->
    <title>undraw_fitting_piece_iilo</title>
    <desc>Created with Sketch.</desc>
    <g id="Page-2" stroke="none" stroke-width="1" fill="none" fill-rule="evenodd">
        <g id="Blocks-homepage-Copy-2" transform="translate(-966.000000, -377.000000)" fill-rule="nonzero">
            <g id="undraw_fitting_piece_iilo" transform="translate(966.000000, 367.000000)">
                <circle id="Oval" fill="#EDEFF2" cx="498" cy="87" r="68"></circle>
                <circle id="Oval" fill="#6BDE78" cx="487" cy="78" r="68"></circle>
                <path d="M354,211.819312 C354,165.225979 391.906667,127.319312 438.5,127.319312 C485.093333,127.319312 523,165.225979 523,211.819312 C523,258.412645 485.093333,296.319312 438.5,296.319312 C391.906667,296.319312 354,258.412645 354,211.819312 Z M355.104575,211.819312 C355.104575,257.803726 392.515586,295.214737 438.5,295.214737 C484.484414,295.214737 521.895425,257.803726 521.895425,211.819312 C521.895425,165.834898 484.484414,128.423887 438.5,128.423887 C392.515586,128.423887 355.104575,165.834898 355.104575,211.819312 Z" id="Shape" stroke="#333740" fill="#333740"></path>
                <path d="M371.426773,79.5048492 L0.275743707,24.3193117 L0,314.319312 L482,314.319312 L371.426773,79.5048492 Z M98.9919908,187.116648 C98.8058142,187.116648 98.6242866,187.098392 98.4405034,187.088795 L98.4405034,209.190863 L38.8798627,209.190863 L38.8798627,149.590482 L62.0423341,149.590482 C62.0423341,143.799637 66.7336113,139.10523 72.520595,139.10523 C78.3075786,139.10523 82.9988558,143.799637 82.9988558,149.590482 L98.4405034,149.590482 L98.4405034,166.174001 C98.6242866,166.164399 98.8058142,166.146143 98.9919908,166.146143 C104.778975,166.146143 109.470252,170.840551 109.470252,176.631395 C109.470252,182.42224 104.778975,187.116648 98.9919908,187.116648 L98.9919908,187.116648 Z M327.03212,170.836914 C327.049292,183.221454 324.385173,195.46274 319.222975,206.71855 C318.665973,207.938151 318.079558,209.141196 317.46373,210.327685 C314.996937,215.109052 312.085062,219.646996 308.766773,223.881253 C307.068192,226.050044 305.272182,228.130539 303.378741,230.122737 C301.989015,231.590672 300.547795,233.007101 299.05508,234.372023 C286.002488,246.348396 269.562913,253.984703 251.996659,256.231015 C248.349434,256.694681 244.676541,256.926411 241,256.926411 C194.860388,256.979719 156.894175,220.600512 154.947807,174.471183 C153.001439,128.341853 187.768045,88.8896817 233.747941,85.0509958 C233.940961,85.0344401 234.139497,85.0178845 234.338032,85.0013288 C235.838078,84.8854392 237.354668,84.8081794 238.876773,84.7750681 C239.582677,84.7585124 240.288581,84.7474633 241,84.7474633 C245.811919,84.7449346 250.615605,85.1455088 255.360732,85.9450015 C256.017002,86.049854 256.667757,86.1712622 257.318513,86.2926704 C257.721098,86.3699301 258.118169,86.4527084 258.51524,86.5354867 C298.424762,94.8465755 327.030107,130.039603 327.03212,170.831395 L327.03212,170.836914 Z" id="Shape" fill="#333740"></path>
                <rect id="Rectangle" stroke="#333740" fill="#333740" x="359" y="52.3193117" width="99" height="1"></rect>
                <rect id="Rectangle" stroke="#333740" fill="#333740" x="359" y="60.3193117" width="99" height="1"></rect>
                <rect id="Rectangle" stroke="#333740" fill="#333740" x="359" y="67.3193117" width="99" height="1"></rect>
                <path d="M483,315.319312 L0,315.319312 L0,0.319311663 L483,0.319311663 L483,315.319312 Z M1.10273973,314.217913 L481.89726,314.217913 L481.89726,1.42071026 L1.10273973,1.42071026 L1.10273973,314.217913 Z" id="Shape"></path>
                <path d="M239.56754,31.45479 L239.567496,31.45479 C222.811951,35.9488865 213.312419,54.5170465 218.34971,72.9280011 L224.749632,96.3193117 L232.015609,94.37047 L233.850979,84.5755328 L235.170536,93.5242706 L281.873592,80.997856 L283.542124,72.0933667 L284.741743,80.2285773 L290,78.8182412 L284.974923,60.4518703 C279.178363,39.2657562 258.848772,26.2832975 239.56754,31.45479 Z" id="Path" fill="#F9E089"></path>
                <polygon id="Path" fill="#FFB8B8" points="300.507246 227.465653 295 257.319312 313.173913 254.555084 314 223.319312"></polygon>
                <circle id="Oval" fill="#FFB8B8" cx="246" cy="64.3193117" r="20"></circle>
                <polygon id="Path" fill="#FFB8B8" points="239.972973 79.2658765 238.864865 90.258243 230 95.2048078 253.27027 146.319312 271 103.998701 259.364865 95.2048078 258.256757 74.3193117"></polygon>
                <path d="M349,201.503856 C348.303158,212.96333 328.708636,222.015212 314.318305,227.13892 C310.170438,228.620938 306.453949,229.772395 303.74401,230.560234 C302.057211,231.050567 300.763076,231.403166 299.999869,231.607012 C299.496595,231.739237 299.225601,231.805349 299.225601,231.805349 L299.225601,219.684752 L252.216446,223.541306 L252.216446,256.625027 C248.558893,257.087921 244.875601,257.319312 241.188651,257.319312 C226.652528,257.341869 212.348429,253.688989 199.615966,246.702665 C199.300728,242.565134 198.952308,238.333944 198.570704,234.009094 C198.161448,229.348174 197.984472,224.918646 198,220.720512 C198.133795,187.890222 210.151548,169.141861 214.913298,163.004432 C215.508207,162.214451 216.145124,161.456749 216.821317,160.734574 L219.586561,153.572403 L217.584525,140.856795 L210.826267,97.9278426 L210.737779,97.3769064 C213.060585,95.349461 219.216019,94.0547608 224.525288,93.2889594 C228.086923,92.7710794 231.272484,92.4901019 232.677229,92.3744053 C233.119668,92.3413491 233.385131,92.324821 233.434905,92.3193117 L233.440436,92.3193117 L256.087788,133.187762 L263.885777,97.9553894 L285.399378,107.844695 C285.399378,107.844695 282.081085,121.618101 282.081085,133.187762 C282.078227,134.734762 281.877513,136.275095 281.483792,137.771552 C280.56316,141.090359 279.002121,144.19864 276.887956,146.922603 C275.036174,149.398765 272.878924,151.63292 270.467059,153.572403 L266.042668,165.693 L270.467059,182.221088 L300.923461,173.174715 L311.6692,169.984794 C312.574103,169.71606 313.496075,169.508075 314.428914,169.362236 C323.249114,167.962092 332.021475,172.130965 336.478973,179.841043 L349,201.503856 Z" id="Path" fill="#21252B"></path>
                <path d="M296.989615,251.927733 C296.989615,251.927733 312.691514,253.486969 315.815333,246.319312 L331.560138,259.148989 C331.560138,259.148989 360.075547,266.879443 344.181123,273.5915 C329.365453,279.848018 314.549416,273.168279 314.549246,274.702462 C314.549246,274.702462 310.159338,270.814094 305.220692,273.5915 C300.282045,276.368906 285.466107,273.5915 286.014845,269.14765 C286.563584,264.703801 288.758538,248.594846 296.989615,251.927733 Z" id="Path" fill="#21252B"></path>
                <path d="M251.030114,37.8692517 C246.961745,34.7701196 241.846578,33.5020067 236.880319,34.8615605 L236.290524,35.0230266 C224.918844,38.136136 218.487839,51.0586948 221.926432,63.8864071 L221.926432,63.8864571 L225.736783,62.8433357 L225.083298,57.9414165 L227.25439,62.4278793 L249.853383,56.2411867 L250.673285,51.7182586 L251.273398,55.8524403 L255.719265,54.6353422 C260.584881,64.4793568 260.395045,75.7073467 255.149755,88.3193117 L262.723177,86.2460127 L264.362926,77.2001788 L265.563207,85.4685256 L280,81.5163147 L277.902059,62.3176334 C274.203993,48.521869 263.136242,38.9947534 251.030114,37.8692517 Z" id="Path" fill="#F9E089"></path>
                <circle id="Oval" fill="#F9E089" cx="256" cy="25.3193117" r="10"></circle>
                <path d="M256.850898,35.441568 C252.567316,35.4443074 248.895519,31.9732545 248.129219,27.1967203 C247.36292,22.4201861 249.721624,17.7064048 253.731887,16 C250.345564,16.4925036 247.510274,19.1465368 246.443692,22.8222696 C245.37711,26.4980024 246.269056,30.5412658 248.736464,33.215596 C251.203872,35.8899262 254.807619,36.7193734 258,35.3477143 C257.619157,35.4070942 257.235318,35.4384445 256.850898,35.441568 L256.850898,35.441568 Z" id="Path" fill="#E1C978"></path>
                <ellipse id="Oval" fill="#FFB8B8" cx="258.5" cy="63.8193117" rx="2.5" ry="3.5"></ellipse>
                <path d="M204.43124,131.319312 L202.77856,153.339557 C202.77856,153.339557 195.066053,165.450692 193.413373,191.32448 L192.86248,207.289158 C192.86248,207.289158 181.29372,229.859909 190.658907,229.309403 C200.024093,228.758897 199.4732,207.839664 199.4732,207.839664 L216,159.94563 L216,136.824373 L204.43124,131.319312 Z" id="Path" fill="#FFB8B8"></path>
                <path d="M214.468085,98.3193117 L210.595745,98.3193117 C210.595745,98.3193117 204.510638,102.218046 199.531915,118.926907 C194.553191,135.635767 194,136.192729 194,136.192729 L220,142.319312 L214.468085,98.3193117 Z" id="Path" fill="#333740"></path>
                <circle id="Oval" fill="#D0CDE1" cx="340" cy="101.319312" r="5"></circle>
                <circle id="Oval" fill="#D0CDE1" cx="369" cy="194.319312" r="2"></circle>
                <circle id="Oval" fill="#D0CDE1" cx="338" cy="298.319312" r="2"></circle>
                <circle id="Oval" fill="#D0CDE1" cx="39" cy="292.319312" r="2"></circle>
                <circle id="Oval" fill="#D0CDE1" cx="144" cy="101.319312" r="2"></circle>
                <polygon id="Path" fill="#D0CDE1" points="371 141.519193 369.800119 141.519193 369.800119 140.319312 369.199881 140.319312 369.199881 141.519193 368 141.519193 368 142.11943 369.199881 142.11943 369.199881 143.319312 369.800119 143.319312 369.800119 142.11943 371 142.11943"></polygon>
                <polygon id="Path" fill="#D0CDE1" points="409 246.519193 407.800119 246.519193 407.800119 245.319312 407.199881 245.319312 407.199881 246.519193 406 246.519193 406 247.11943 407.199881 247.11943 407.199881 248.319312 407.800119 248.319312 407.800119 247.11943 409 247.11943"></polygon>
                <polygon id="Path" fill="#D0CDE1" points="282 292.519193 280.800119 292.519193 280.800119 291.319312 280.199881 291.319312 280.199881 292.519193 279 292.519193 279 293.11943 280.199881 293.11943 280.199881 294.319312 280.800119 294.319312 280.800119 293.11943 282 293.11943"></polygon>
                <polygon id="Path" fill="#D0CDE1" points="209 76.5191932 207.800119 76.5191932 207.800119 75.3193117 207.199881 75.3193117 207.199881 76.5191932 206 76.5191932 206 77.1194302 207.199881 77.1194302 207.199881 78.3193117 207.800119 78.3193117 207.800119 77.1194302 209 77.1194302"></polygon>
                <polygon id="Path" fill="#D0CDE1" points="11 119.519193 9.80011851 119.519193 9.80011851 118.319312 9.19988149 118.319312 9.19988149 119.519193 8 119.519193 8 120.11943 9.19988149 120.11943 9.19988149 121.319312 9.80011851 121.319312 9.80011851 120.11943 11 120.11943"></polygon>
                <polygon id="Path" fill="#D0CDE1" points="33 80.5191932 31.8001185 80.5191932 31.8001185 79.3193117 31.1998815 79.3193117 31.1998815 80.5191932 30 80.5191932 30 81.1194302 31.1998815 81.1194302 31.1998815 82.3193117 31.8001185 82.3193117 31.8001185 81.1194302 33 81.1194302"></polygon>
                <polygon id="Path" fill="#D0CDE1" points="189 294.519193 187.800119 294.519193 187.800119 293.319312 187.199881 293.319312 187.199881 294.519193 186 294.519193 186 295.11943 187.199881 295.11943 187.199881 296.319312 187.800119 296.319312 187.800119 295.11943 189 295.11943"></polygon>
                <polygon id="Path" fill="#D0CDE1" points="105 63.5191932 103.800119 63.5191932 103.800119 62.3193117 103.199881 62.3193117 103.199881 63.5191932 102 63.5191932 102 64.1194302 103.199881 64.1194302 103.199881 65.3193117 103.800119 65.3193117 103.800119 64.1194302 105 64.1194302"></polygon>
                <polygon id="Path" fill="#D0CDE1" points="13 192.519193 11.8001185 192.519193 11.8001185 191.319312 11.1998815 191.319312 11.1998815 192.519193 10 192.519193 10 193.11943 11.1998815 193.11943 11.1998815 194.319312 11.8001185 194.319312 11.8001185 193.11943 13 193.11943"></polygon>
                <polygon id="Path" fill="#D0CDE1" points="98 129.519193 96.8001185 129.519193 96.8001185 128.319312 96.1998815 128.319312 96.1998815 129.519193 95 129.519193 95 130.11943 96.1998815 130.11943 96.1998815 131.319312 96.8001185 131.319312 96.8001185 130.11943 98 130.11943"></polygon>
                <polygon id="Path" fill="#D0CDE1" points="99 289.519193 97.8001185 289.519193 97.8001185 288.319312 97.1998815 288.319312 97.1998815 289.519193 96 289.519193 96 290.11943 97.1998815 290.11943 97.1998815 291.319312 97.8001185 291.319312 97.8001185 290.11943 99 290.11943"></polygon>
                <polygon id="Path" fill="#D0CDE1" points="149 253.519193 147.800119 253.519193 147.800119 252.319312 147.199881 252.319312 147.199881 253.519193 146 253.519193 146 254.11943 147.199881 254.11943 147.199881 255.319312 147.800119 255.319312 147.800119 254.11943 149 254.11943"></polygon>
                <polygon id="Path" fill="#D0CDE1" points="426 296.519193 424.800119 296.519193 424.800119 295.319312 424.199881 295.319312 424.199881 296.519193 423 296.519193 423 297.11943 424.199881 297.11943 424.199881 298.319312 424.800119 298.319312 424.800119 297.11943 426 297.11943"></polygon>
                <rect id="Rectangle" fill="#D2D7E0" x="265" y="274.319312" width="99" height="1"></rect>
                <rect id="Rectangle" fill="#6BDE78" x="260" y="198.319312" width="60" height="60"></rect>
                <path d="M295.011142,129.319312 L303.948055,150.747404 C303.948055,150.747404 313.443525,161.736169 315.119196,173.823811 L317.911981,188.109206 C317.911981,188.109206 324.614666,213.383366 314.002082,212.28449 C303.389498,211.185613 306.182283,187.01033 306.182283,187.01033 L304.506612,179.867632 L295.011142,164.483361 L281,138.285979 L295.011142,129.319312 Z" id="Path" fill="#FFB8B8"></path>
                <polygon id="Path" fill="#333740" points="278.490196 106.319312 285.627451 108.519312 301 131.619312 273 150.319312"></polygon>
                <circle id="Oval" fill="#6BDE78" cx="290.5" cy="196.819312" r="10.5"></circle>
                <circle id="Oval" fill="#6BDE78" cx="319.5" cy="225.819312" r="10.5"></circle>
            </g>
        </g>
    </g>
</svg>