<svg width="246" height="153" viewBox="0 0 246 153" fill="none" xmlns="http://www.w3.org/2000/svg">
<path d="M170.598 69.2138L172.125 68.6488C172.271 68.5944 172.415 68.5358 172.568 68.4793C166.749 66.4557 163.192 60.8937 164.003 55.0875C164.815 49.2813 169.778 44.7814 175.954 44.253L174.89 49.3172L178.927 44.3116H178.962C186.219 45.2539 191.293 51.5726 190.297 58.4263C190.264 58.6628 190.211 58.893 190.164 59.1253C191.407 58.1982 192.573 57.175 193.446 55.9863C195.218 53.5715 195.819 50.5958 196.43 46.9525C197.642 39.7372 198.734 32.4423 199.718 25.1516C193.478 23.3734 189.532 17.5742 190.413 11.4743C190.468 11.0934 190.546 10.723 190.634 10.3568C190.656 10.2647 190.678 10.1727 190.703 10.0827C190.798 9.72902 190.904 9.38164 191.029 9.03636C191.048 8.97986 191.075 8.92754 191.095 8.87313C191.206 8.58645 191.317 8.30394 191.461 8.03609C191.509 7.93146 191.558 7.82682 191.609 7.72847C191.762 7.42923 191.924 7.13626 192.101 6.85166C192.161 6.7575 192.225 6.66751 192.285 6.57335C192.422 6.36408 192.566 6.15482 192.715 5.96021C192.794 5.85558 192.872 5.75095 192.954 5.64841L193.014 5.5668C196.896 0.768047 203.852 -0.728355 209.551 2.00935L208.168 8.599L212.157 3.65205C216.56 7.17519 218.025 12.9935 215.772 18.0116H215.788C215.75 18.0953 215.704 18.1748 215.666 18.2585C215.593 18.4134 215.518 18.5661 215.445 18.7189C215.343 18.9135 215.223 19.1039 215.123 19.2923C215.039 19.4346 214.957 19.5769 214.866 19.7108C214.736 19.9201 214.594 20.1084 214.452 20.303C214.368 20.416 214.29 20.5332 214.204 20.6441C213.982 20.935 213.734 21.2133 213.482 21.4812C213.393 21.5753 213.298 21.6611 213.205 21.7532C213.025 21.9332 212.846 22.111 212.655 22.2805C212.538 22.3852 212.414 22.4898 212.292 22.5861C212.117 22.7325 211.937 22.8748 211.753 23.0046C211.623 23.1029 211.49 23.1971 211.357 23.2892C211.164 23.421 210.969 23.5445 210.772 23.6679C210.639 23.7496 210.506 23.8312 210.371 23.9086C210.149 24.0362 209.917 24.1534 209.684 24.2685C209.567 24.325 209.462 24.3878 209.332 24.4422C208.982 24.6033 208.623 24.7519 208.257 24.8838C208.188 24.9089 208.115 24.9277 208.047 24.9507C207.741 25.0554 207.433 25.16 207.121 25.2332C206.985 25.2688 206.848 25.2981 206.711 25.3295C206.456 25.3881 206.199 25.4425 205.94 25.4885C205.792 25.5136 205.639 25.5367 205.481 25.5576C205.226 25.5932 204.969 25.6204 204.71 25.6413C204.557 25.6538 204.406 25.6664 204.251 25.6748C203.972 25.6873 203.691 25.6894 203.409 25.6873C203.391 25.6863 203.372 25.6863 203.354 25.6873C202.937 28.7565 202.5 31.8257 202.042 34.8948C204.214 32.1258 207.498 30.3248 211.121 29.9161C214.743 29.5074 218.384 30.5272 221.185 32.7353L217.711 38.2974L223.297 34.8258C225.409 37.4657 226.325 40.7893 225.845 44.0668C225.681 45.2176 225.345 46.3406 224.848 47.4024C222.666 52.107 217.663 55.0759 212.229 54.8912C206.794 54.7066 202.03 51.4059 200.212 46.5654C200.161 46.8751 200.113 47.1932 200.062 47.4987C199.521 50.7109 198.85 54.7099 196.466 57.9618C194.85 60.1716 192.626 61.8038 190.464 63.2394C189.057 64.1741 187.619 65.0648 186.148 65.9116C184.603 67.2641 182.74 68.2497 180.713 68.7869C178.349 69.9295 175.935 70.9625 173.47 71.8861L171.93 72.4553C170.545 72.9659 169.127 73.489 167.72 74.0456C167.942 74.0645 168.163 74.0812 168.385 74.1084C174.105 74.8503 178.661 79.0004 179.654 84.3727L170.279 89.2088L179.625 88.8133C179.251 90.7705 178.383 92.6138 177.095 94.1871C172.7 99.5595 164.575 100.649 158.771 96.6438L159.237 97.4621C159.547 98.0019 159.853 98.5397 160.15 99.0734C164.211 106.343 164.505 112.621 160.98 116.754L158.1 114.567C161.532 110.545 158.809 104.152 156.882 100.699C156.589 100.176 156.288 99.653 155.995 99.1173C153.388 94.5491 150.43 89.372 151.615 83.8621C153.388 75.5544 162.926 72.0388 170.598 69.2138Z" fill="#F2F2F2"/>
<path d="M60.2431 108.601L59.0511 108.159C58.9358 108.117 58.8295 108.069 58.7099 108.027C63.2525 106.445 66.0286 102.102 65.3947 97.568C64.7609 93.0344 60.8863 89.5203 56.0644 89.106L56.8953 93.061L53.7447 89.152H53.7159C50.9925 89.5033 48.5286 90.8623 46.8665 92.9298C45.2043 94.9973 44.4802 97.604 44.8534 100.176C44.88 100.362 44.9221 100.54 44.9576 100.722C43.9801 100.028 43.1169 99.2008 42.3963 98.2675C41.016 96.3841 40.5418 94.0571 40.0633 91.2133C39.1261 85.5778 38.2753 79.8817 37.5109 74.194C42.3825 72.803 45.4609 68.2737 44.7714 63.5112C44.7271 63.214 44.6673 62.9252 44.5964 62.6386L44.5432 62.4293C44.4679 62.1531 44.3859 61.881 44.2884 61.6174C44.2729 61.5734 44.253 61.5316 44.2353 61.4897C44.1489 61.2658 44.0536 61.0461 43.9517 60.8305C43.9118 60.751 43.8741 60.6694 43.8342 60.5899C43.7146 60.3576 43.5883 60.1295 43.4509 59.9077C43.4044 59.8324 43.3535 59.7612 43.3069 59.6984C43.1984 59.5352 43.0854 59.3741 42.9702 59.2192C42.9081 59.1376 42.8483 59.0539 42.784 58.9744L42.7375 58.9116C39.7061 55.1647 34.2764 53.9928 29.8227 56.1242L30.9039 61.2721L27.7866 57.4091C24.3484 60.1608 23.2039 64.7042 24.9617 68.6234H24.9506C24.9794 68.6883 25.0148 68.7511 25.0459 68.816C25.1035 68.9373 25.1611 69.0566 25.2231 69.1759C25.3029 69.3266 25.3871 69.4751 25.4757 69.6216C25.5399 69.7346 25.6042 69.8455 25.6751 69.9544C25.777 70.1113 25.8967 70.2641 25.9986 70.4168C26.065 70.5047 26.1249 70.5968 26.1935 70.6826C26.3708 70.9086 26.5591 71.1262 26.7563 71.3376C26.825 71.4108 26.9003 71.4778 26.9779 71.5468C27.1175 71.687 27.2593 71.8252 27.4077 71.9654C27.4985 72.0491 27.596 72.1265 27.6913 72.2039C27.8287 72.3197 27.9683 72.4306 28.1101 72.5366C28.212 72.612 28.3161 72.6852 28.4202 72.7585C28.5709 72.861 28.7238 72.9677 28.8767 73.0535C28.9808 73.1184 29.0849 73.1812 29.1913 73.2419C29.3663 73.3423 29.5458 73.4323 29.7274 73.5223C29.8205 73.5683 29.9091 73.6164 30.0022 73.6604C30.2769 73.7859 30.5561 73.901 30.8419 74.0036C30.8951 74.0245 30.9527 74.0371 31.0059 74.0559C31.2429 74.1375 31.4844 74.2128 31.7304 74.2777C31.8345 74.3049 31.9519 74.3279 32.0494 74.3509C32.2488 74.397 32.4482 74.4409 32.6521 74.4765L33.0088 74.5309C33.2082 74.5581 33.4098 74.579 33.6114 74.5958C33.7311 74.6062 33.8485 74.6146 33.9703 74.6209C34.1919 74.6314 34.4135 74.6334 34.635 74.6314H34.6771C35.0021 77.0337 35.3433 79.4339 35.7007 81.8321C34.0078 79.6664 31.4441 78.256 28.6144 77.9336C25.7847 77.6112 22.9394 78.4053 20.7498 80.1287L23.4395 84.4478L19.0792 81.7379C17.4274 83.7987 16.7102 86.395 17.0852 88.9553C17.2138 89.8551 17.4771 90.733 17.8673 91.5627C19.5715 95.2366 23.4783 97.5551 27.7224 97.4111C31.9664 97.267 35.687 94.6898 37.1076 90.9098C37.1475 91.1505 37.1852 91.3953 37.2251 91.6381C37.646 94.1492 38.1711 97.2714 40.0323 99.816C41.2952 101.54 43.0322 102.815 44.7205 103.936C45.8194 104.667 46.9427 105.365 48.0904 106.029C49.2971 107.085 50.752 107.855 52.3355 108.276C54.1789 109.168 56.0666 109.98 57.9942 110.696L59.1951 111.141C60.2763 111.539 61.3841 111.947 62.4764 112.382C62.3036 112.397 62.1285 112.409 61.9535 112.432C57.4882 113.01 53.9305 116.248 53.1531 120.441L60.4646 124.208L53.1664 123.9C53.8195 127.205 56.2228 129.962 59.5315 131.203C62.8403 132.443 66.5915 131.993 69.4666 130.01C69.3448 130.22 69.2251 130.429 69.1033 130.649C68.8618 131.067 68.6225 131.486 68.3899 131.904C65.2193 137.582 64.9889 142.487 67.7429 145.716L69.9873 144.008C67.3064 140.869 69.4334 135.874 70.94 133.177C71.1616 132.768 71.4031 132.356 71.6402 131.942C73.6763 128.384 75.985 124.331 75.0655 120.027C73.6896 113.552 66.2341 110.815 60.2431 108.601Z" fill="#F2F2F2"/>
<path d="M123.255 153C191.045 153 246 150.798 246 148.082C246 145.366 191.045 143.165 123.255 143.165C55.465 143.165 0.510254 145.366 0.510254 148.082C0.510254 150.798 55.465 153 123.255 153Z" fill="#3F3D56"/>
<path opacity="0.1" d="M123.255 153C191.045 153 246 150.798 246 148.082C246 145.366 191.045 143.165 123.255 143.165C55.465 143.165 0.510254 145.366 0.510254 148.082C0.510254 150.798 55.465 153 123.255 153Z" fill="black"/>
<path d="M123.255 150.28C191.045 150.28 246 148.078 246 145.362C246 142.646 191.045 140.444 123.255 140.444C55.465 140.444 0.510254 142.646 0.510254 145.362C0.510254 148.078 55.465 150.28 123.255 150.28Z" fill="#3F3D56"/>
<path d="M19.343 143.612C18.6783 142.459 19.4316 141.047 20.2912 140.017C21.1509 138.988 22.1989 137.925 22.1767 136.608C22.1457 134.725 20.0276 133.614 18.3371 132.616C17.0827 131.874 15.9256 130.996 14.8896 129.998C14.4566 129.613 14.0981 129.16 13.8305 128.658C13.4804 127.922 13.4915 127.085 13.5137 126.277C13.5875 123.59 13.7279 120.906 13.9346 118.225" stroke="#3F3D56" stroke-width="4"/>
<path d="M10.7265 118.076C10.7751 117.077 11.3599 116.17 12.2774 115.672L12.9732 116.971L12.9532 115.397C13.285 115.304 13.6311 115.264 13.9768 115.28C15.6861 115.359 17.0048 116.731 16.9237 118.345C16.8425 119.96 15.3923 121.207 13.6827 121.133C11.9732 121.059 10.6503 119.691 10.7265 118.076Z" fill="#6BDE78"/>
<path d="M16.2721 137.956C16.9077 139.151 18.3192 139.788 19.7027 139.504C21.0861 139.22 22.0904 138.087 22.1435 136.751C22.1656 136.345 22.0969 135.939 21.9419 135.56C21.4854 134.411 20.3193 133.653 19.0201 133.66C17.7209 133.667 16.564 134.438 16.1215 135.591L18.0646 137.083L15.9287 136.615C15.9275 137.081 16.0453 137.541 16.2721 137.956Z" fill="#6BDE78"/>
<path d="M17.8074 132.254C19.4138 132.368 20.8459 131.303 21.1034 129.801C21.3609 128.299 20.3582 126.86 18.7956 126.49L18.8111 127.702L18.1066 126.386C16.3904 126.31 14.9342 127.563 14.854 129.184C14.7739 130.805 16.1001 132.18 17.8163 132.256L17.8074 132.254Z" fill="#6BDE78"/>
<path d="M10.259 127.509C11.3672 127.558 12.4191 127.046 13.0184 126.164C13.6178 125.282 13.6735 124.165 13.1647 123.234C12.6558 122.303 11.6597 121.699 10.5515 121.65C9.96996 121.623 9.39219 121.752 8.88534 122.022L9.43481 123.445L8.30264 122.42C7.6971 122.944 7.33617 123.673 7.29896 124.448C7.28395 124.718 7.31082 124.99 7.37873 125.253C7.69649 126.529 8.87276 127.45 10.259 127.509Z" fill="#6BDE78"/>
<path opacity="0.1" d="M11.1453 118.859C11.8631 118.934 12.561 119.146 13.2811 119.188C14.0012 119.229 14.7921 119.066 15.2486 118.539C15.4945 118.252 15.6164 117.892 15.8224 117.583C16.0198 117.293 16.289 117.054 16.6067 116.886C17.1186 117.896 16.9755 119.094 16.2381 119.971C15.5007 120.849 14.2981 121.252 13.1399 121.011C11.9817 120.769 11.0707 119.925 10.793 118.836C10.9104 118.84 11.0278 118.849 11.1453 118.859Z" fill="black"/>
<path opacity="0.1" d="M10.2587 127.509C11.3496 127.562 12.3893 127.068 12.9957 126.21C13.6022 125.352 13.6861 124.256 13.2165 123.324C12.9697 123.482 12.7575 123.683 12.5917 123.916C12.3701 124.232 12.235 124.597 11.9758 124.887C11.4905 125.425 10.6641 125.601 9.91302 125.568C9.16193 125.534 8.43743 125.335 7.69741 125.27C7.59328 125.27 7.48914 125.254 7.38501 125.252C7.70124 126.526 8.87426 127.448 10.2587 127.509Z" fill="black"/>
<path opacity="0.1" d="M17.8076 132.253C18.8884 132.306 19.9201 131.822 20.5297 130.978C21.1393 130.133 21.2387 129.049 20.792 128.118C20.5336 128.277 20.3083 128.479 20.1273 128.715C19.8858 129.037 19.7351 129.407 19.4626 129.705C18.9397 130.257 18.0579 130.452 17.2625 130.433C16.4671 130.414 15.7515 130.238 14.9849 130.184C15.3683 131.368 16.4982 132.196 17.8076 132.253Z" fill="black"/>
<path opacity="0.1" d="M16.272 137.957C16.9076 139.151 18.3191 139.788 19.7025 139.504C21.0859 139.22 22.0902 138.087 22.1433 136.751C22.1655 136.345 22.0968 135.94 21.9417 135.561C21.6855 135.719 21.4556 135.912 21.2593 136.134C20.9624 136.475 20.7697 136.86 20.4262 137.18C19.7904 137.77 18.7645 138.017 17.8517 138.036C17.324 138.038 16.7965 138.012 16.272 137.957Z" fill="black"/>
<path d="M24.0377 142.286C24.0377 142.286 21.5828 142.215 20.845 141.717C20.1072 141.218 17.0785 140.624 16.8857 141.424C16.693 142.223 13.1967 145.4 15.9685 145.412C18.7402 145.425 22.407 144.994 23.1448 144.575C23.8826 144.157 24.0377 142.286 24.0377 142.286Z" fill="#656380"/>
<path opacity="0.2" d="M15.9179 145.134C18.6896 145.154 22.3564 144.715 23.0964 144.296C23.657 143.974 23.8808 142.813 23.9561 142.277H24.0381C24.0381 142.277 23.883 144.146 23.1518 144.579C22.4207 145.012 18.745 145.433 15.9755 145.416C15.1756 145.416 14.8987 145.142 14.9142 144.742C15.0183 144.979 15.3241 145.134 15.9179 145.134Z" fill="black"/>
<path d="M234.257 145.496C233.593 144.343 234.346 142.93 235.206 141.901C236.065 140.871 237.113 139.808 237.091 138.492C237.06 136.609 234.942 135.498 233.251 134.499C231.997 133.758 230.84 132.879 229.804 131.881C229.371 131.497 229.012 131.044 228.745 130.542C228.395 129.806 228.406 128.969 228.428 128.161C228.5 125.474 228.641 122.79 228.849 120.108" stroke="#3F3D56" stroke-width="4"/>
<path d="M225.641 119.959C225.689 118.961 226.274 118.054 227.192 117.555L227.887 118.855L227.868 117.281C228.199 117.188 228.545 117.148 228.891 117.164C230.6 117.244 231.918 118.616 231.836 120.23C231.754 121.844 230.303 123.091 228.594 123.016C226.885 122.942 225.563 121.574 225.639 119.959H225.641Z" fill="#6BDE78"/>
<path d="M231.186 139.839C231.822 141.034 233.234 141.671 234.617 141.387C236 141.103 237.005 139.97 237.058 138.634C237.08 138.228 237.011 137.822 236.856 137.443C236.4 136.294 235.234 135.536 233.934 135.543C232.635 135.55 231.478 136.321 231.036 137.475L232.979 138.967L230.843 138.498C230.842 138.965 230.96 139.425 231.186 139.839Z" fill="#6BDE78"/>
<path d="M232.722 134.137C234.328 134.251 235.76 133.186 236.018 131.684C236.275 130.182 235.273 128.743 233.71 128.374L233.725 129.585L233.021 128.269C231.305 128.193 229.848 129.446 229.768 131.067C229.688 132.688 231.014 134.063 232.731 134.139L232.722 134.137Z" fill="#6BDE78"/>
<path d="M225.173 129.393C226.886 129.469 228.341 128.219 228.421 126.601C228.502 124.983 227.179 123.61 225.466 123.534C224.884 123.506 224.306 123.635 223.8 123.906L224.349 125.329L223.217 124.304C222.611 124.827 222.25 125.557 222.213 126.331C222.198 126.602 222.225 126.874 222.293 127.137C222.611 128.413 223.787 129.334 225.173 129.393Z" fill="#6BDE78"/>
<path opacity="0.1" d="M226.06 120.742C226.777 120.817 227.475 121.028 228.195 121.07C228.915 121.112 229.706 120.949 230.163 120.421C230.409 120.135 230.531 119.775 230.737 119.465C230.934 119.176 231.203 118.937 231.521 118.768C232.033 119.779 231.89 120.977 231.152 121.854C230.415 122.731 229.212 123.135 228.054 122.893C226.896 122.652 225.985 121.808 225.707 120.719C225.825 120.723 225.942 120.731 226.06 120.742Z" fill="black"/>
<path opacity="0.1" d="M225.173 129.393C226.264 129.445 227.304 128.951 227.91 128.093C228.517 127.235 228.601 126.139 228.131 125.208C227.884 125.365 227.672 125.566 227.506 125.8C227.285 126.116 227.15 126.48 226.89 126.771C226.405 127.309 225.579 127.484 224.828 127.451C224.076 127.417 223.352 127.219 222.612 127.154C222.508 127.154 222.404 127.137 222.3 127.135C222.616 128.409 223.789 129.331 225.173 129.393Z" fill="black"/>
<path opacity="0.1" d="M232.722 134.137C233.803 134.189 234.834 133.706 235.444 132.861C236.054 132.017 236.153 130.933 235.706 130.002C235.448 130.161 235.223 130.363 235.042 130.598C234.8 130.921 234.649 131.291 234.377 131.588C233.854 132.141 232.972 132.335 232.177 132.316C231.381 132.298 230.666 132.122 229.899 132.067C230.283 133.251 231.412 134.08 232.722 134.137Z" fill="black"/>
<path opacity="0.1" d="M231.186 139.839C231.822 141.034 233.233 141.671 234.617 141.387C236 141.103 237.004 139.97 237.057 138.634C237.08 138.228 237.011 137.822 236.856 137.443C236.6 137.602 236.37 137.795 236.173 138.017C235.876 138.358 235.684 138.743 235.34 139.063C234.704 139.653 233.679 139.9 232.766 139.919C232.238 139.921 231.711 139.894 231.186 139.839Z" fill="black"/>
<path d="M238.952 144.169C238.952 144.169 236.497 144.098 235.759 143.6C235.022 143.102 231.993 142.507 231.8 143.307C231.607 144.106 228.111 147.283 230.883 147.295C233.655 147.308 237.321 146.877 238.059 146.458C238.797 146.04 238.952 144.169 238.952 144.169Z" fill="#656380"/>
<path opacity="0.2" d="M230.832 147.017C233.604 147.038 237.27 146.599 238.011 146.18C238.571 145.858 238.795 144.697 238.87 144.161H238.952C238.952 144.161 238.797 146.03 238.066 146.463C237.335 146.896 233.659 147.317 230.89 147.3C230.09 147.3 229.813 147.026 229.828 146.626C229.932 146.862 230.238 147.017 230.832 147.017Z" fill="black"/>
<path d="M165.699 69.2887C164.234 68.8144 162.757 68.375 161.268 67.9704C161.513 67.0231 161.742 66.071 161.953 65.114C165.307 49.7311 163.114 37.3386 155.623 33.2601C148.44 29.3469 136.693 33.4275 124.826 43.177C123.656 44.1424 122.513 45.1329 121.398 46.1486C120.649 45.4719 119.889 44.8086 119.116 44.1585C106.684 33.731 94.2304 29.3386 86.7372 33.4296C79.5608 37.3533 77.4316 49.0029 80.4559 63.5822C80.7513 65.0261 81.0903 66.4616 81.4729 67.8888C79.7115 68.3617 78.0077 68.866 76.377 69.4038C61.8005 74.1938 52.4905 81.7273 52.4905 89.5306C52.4905 97.5893 62.4851 105.673 77.6687 110.574C78.9006 110.969 80.1413 111.336 81.3909 111.675C80.9862 113.209 80.6258 114.756 80.3097 116.316C77.4294 130.642 79.6805 142.018 86.8369 145.916C94.2304 149.947 106.638 145.803 118.717 135.83C119.672 135.041 120.629 134.204 121.598 133.329C122.806 134.43 124.046 135.498 125.318 136.535C137.02 146.046 148.582 149.888 155.729 145.977C163.114 141.94 165.513 129.719 162.398 114.853C162.162 113.718 161.886 112.559 161.572 111.378C162.445 111.135 163.298 110.883 164.133 110.622C179.917 105.684 190.188 97.6981 190.188 89.5306C190.188 81.698 180.577 74.1248 165.706 69.2887H165.699Z" fill="#53C1DE"/>
<path fill-rule="evenodd" clip-rule="evenodd" d="M156.197 63.9943C159.093 50.7125 157.3 40.5842 152.689 38.0731C148.36 35.7147 138.86 39.0127 128.694 47.3685C127.618 48.2572 126.562 49.1716 125.528 50.1119C129.729 54.4333 133.617 59.0167 137.167 63.8311C143.361 64.3621 149.511 65.28 155.576 66.5787C155.799 65.7194 156.006 64.8579 156.197 63.9943ZM89.6838 38.2411C85.3589 40.6016 83.6418 50.0247 86.2297 62.5155V62.5176C86.5074 63.8611 86.8227 65.1968 87.1757 66.525C93.2323 65.252 99.3699 64.351 105.55 63.8276C109.134 59.0175 113.051 54.4372 117.277 50.1167C116.588 49.4952 115.899 48.8926 115.212 48.3171C104.475 39.3126 94.2901 35.73 89.6838 38.2411ZM79.572 105.317C72.8565 103.149 67.313 100.332 63.511 97.2603C60.0968 94.4981 58.373 91.7547 58.373 89.5302C58.373 84.7946 65.8485 78.7532 78.3135 74.6496C79.8792 74.1348 81.459 73.6654 83.0527 73.2413C84.9042 78.8492 87.1462 84.3355 89.7638 89.6641C87.1136 95.0692 84.8443 100.634 82.9708 106.321C81.8275 106.013 80.6946 105.678 79.572 105.317ZM162.277 105.348C161.523 105.585 160.752 105.811 159.963 106.033C158.039 100.398 155.709 94.893 152.991 89.5576C155.606 84.2933 157.845 78.8697 159.693 73.3231C161.1 73.7081 162.469 74.1141 163.785 74.5431C176.527 78.6843 184.3 84.8094 184.3 89.5304C184.3 94.5527 175.905 101.084 162.277 105.348ZM156.622 115.933C158 122.506 158.195 128.449 157.287 133.092C156.467 137.267 154.819 140.05 152.78 141.166C148.44 143.536 139.161 140.454 129.153 132.32C128.005 131.387 126.851 130.393 125.69 129.338C129.862 124.975 133.718 120.351 137.231 115.498C143.506 114.995 149.737 114.086 155.88 112.777C156.161 113.849 156.409 114.895 156.627 115.916L156.622 115.933ZM89.7747 141.103C91.8152 142.214 95.1918 142.174 99.4325 140.76C104.15 139.18 109.505 136.058 114.847 131.646C115.74 130.907 116.615 130.146 117.47 129.363C113.214 125.016 109.265 120.41 105.65 115.573C99.4107 115.123 93.2113 114.275 87.0938 113.035C86.7201 114.466 86.3855 115.905 86.0901 117.352C83.6263 129.594 85.4321 138.736 89.7747 141.103ZM145.633 76.3659C144.287 74.17 142.892 72.0021 141.448 69.862C145.841 70.3872 150.049 71.082 154.001 71.9358C152.733 75.736 151.262 79.4733 149.594 83.1334C148.323 80.8524 147.002 78.5966 145.633 76.3659ZM129.505 63.3226C126.97 60.1171 124.266 57.0342 121.403 54.0858V54.0878C118.647 56.894 115.906 59.9911 113.232 63.3226C118.658 63.0812 124.083 63.0812 129.505 63.3226ZM97.0311 76.4038C95.6795 78.6178 94.3834 80.8597 93.1427 83.1295C91.43 79.2937 89.9655 75.5207 88.769 71.8775C92.6973 71.0404 96.887 70.3687 101.252 69.8518C99.7865 72.0058 98.3781 74.1898 97.0266 76.4038H97.0311ZM101.371 109.603L101.376 109.603H101.371L101.371 109.603ZM101.371 109.603C97.1123 109.166 92.8802 108.523 88.6914 107.676C89.9078 103.97 91.4055 100.115 93.1559 96.1957C94.401 98.4683 95.7016 100.712 97.0576 102.926C98.437 105.184 99.8749 107.41 101.371 109.603ZM121.569 125.367L121.566 125.364C124.43 122.367 127.128 119.233 129.651 115.975C126.917 116.092 124.147 116.151 121.34 116.151C118.606 116.151 115.921 116.101 113.284 116.002C115.996 119.393 118.775 122.532 121.566 125.364L121.564 125.367H121.569ZM154.274 107.435C152.94 103.549 151.393 99.7306 149.639 95.9964C148.365 98.3206 147.036 100.617 145.65 102.885C144.287 105.117 142.878 107.324 141.423 109.504C145.742 109.027 150.031 108.336 154.274 107.435ZM140.554 100.111C138.469 103.531 136.267 106.886 133.95 110.176C129.864 110.452 125.643 110.595 121.341 110.595C117.038 110.595 112.888 110.469 108.873 110.222C106.497 106.944 104.252 103.584 102.14 100.142C100.028 96.7003 98.0701 93.207 96.2666 89.6621C98.079 86.1005 100.031 82.6058 102.122 79.1781C104.211 75.7518 106.436 72.4036 108.798 69.1335C112.895 68.8406 117.091 68.6878 121.336 68.6878C125.581 68.6878 129.804 68.8427 133.897 69.1356C136.232 72.3959 138.447 75.7309 140.543 79.1404C142.639 82.55 144.618 86.0286 146.479 89.5763C144.64 93.1505 142.667 96.6591 140.561 100.102L140.554 100.111Z" fill="white"/>
<path d="M121.336 77.9165C126.31 77.9165 130.794 80.7462 132.697 85.086C134.6 89.4259 133.548 94.4213 130.031 97.7429C126.515 101.064 121.226 102.058 116.631 100.261C112.036 98.4629 109.04 94.228 109.04 89.5305C109.039 86.4501 110.335 83.4957 112.641 81.3176C114.947 79.1394 118.075 77.9159 121.336 77.9165" fill="#53C1DE"/>
<path d="M124.421 4.2609C124.421 6.17939 122.774 7.73464 120.743 7.73464C118.712 7.73464 117.065 6.17939 117.065 4.2609C117.065 2.3424 118.712 0.78715 120.743 0.78715C121.72 0.782671 122.658 1.14722 123.349 1.79964C124.04 2.45207 124.426 3.33824 124.421 4.2609Z" fill="#3F3D56"/>
<path d="M117.804 5.13742C117.212 4.12704 117.19 2.90503 117.745 1.87589C118.299 0.846754 119.358 0.144707 120.572 0.00213777C119.19 -0.0435529 117.899 0.646121 117.228 1.78748C116.557 2.92884 116.62 4.32914 117.391 5.41242C118.163 6.49569 119.512 7.07901 120.884 6.92243C119.598 6.87755 118.43 6.20052 117.804 5.13742Z" fill="#3F3D56"/>
<rect x="116.145" y="9.09839" width="9.85282" height="14.5165" fill="#3F3D56"/>
<rect opacity="0.1" x="116.145" y="9.09839" width="9.85282" height="14.5165" fill="black"/>
<path d="M100.581 61.7656C100.581 61.7656 99.5281 64.4965 97.0356 64.869C94.543 65.2415 93.094 65.8609 93.094 65.8609L99.0052 69.4581L102.158 69.0856C102.158 69.0856 102.552 65.2394 103.866 64.3709C105.18 63.5025 100.581 61.7656 100.581 61.7656Z" fill="#A0616A"/>
<path d="M143.271 61.7656C143.271 61.7656 144.323 64.4965 146.816 64.869C149.308 65.2415 150.757 65.8609 150.757 65.8609L144.846 69.4581L141.693 69.0856C141.693 69.0856 141.299 65.2394 139.985 64.3709C138.671 63.5025 143.271 61.7656 143.271 61.7656Z" fill="#A0616A"/>
<path d="M114.504 37.6963C114.504 37.6963 112.928 38.4413 112.403 39.9312C112.403 39.9312 109.523 40.7996 107.936 43.1559C107.936 43.1559 105.965 45.1418 105.703 46.1337C105.442 47.1256 102.428 53.0812 102.428 53.0812C102.428 53.0812 99.4064 62.3871 97.8311 63.379C97.8311 63.379 102.823 62.3871 103.742 67.1018C103.742 67.1018 104.923 67.1018 106.237 62.7596C107.551 58.4174 110.704 53.0812 110.704 53.0812C110.704 53.0812 111.754 49.3605 112.673 48.739C113.593 48.1175 115.037 45.2653 116.351 46.0186C117.665 46.772 126.335 45.8931 126.335 45.8931C126.335 45.8931 131.453 48.1196 131.581 49.6075C131.71 51.0953 132.632 51.2209 132.762 52.4618C132.893 53.7027 137.754 63.5025 137.754 63.5025C137.754 63.5025 138.674 66.2229 138.937 66.8507C138.937 66.8507 141.818 60.2756 145.637 63.9984C145.637 63.9984 145.504 61.5166 144.323 60.0224C143.143 58.5283 138.018 46.8724 138.018 46.8724C138.018 46.8724 137.493 45.1355 136.968 44.6396C136.443 44.1436 132.368 40.1719 130.923 40.1719C130.923 40.1719 130.137 38.3115 129.217 38.0625L114.504 37.6963Z" fill="#3F3D56"/>
<path d="M102.681 68.2175C100.594 69.0089 98.2207 68.7078 96.4287 67.4244C95.5727 66.8035 94.6351 66.29 93.6393 65.8968C92.2457 65.3653 90.5795 64.9718 90.0721 65.8612C89.1527 67.4746 101.237 71.4443 101.237 71.4443C101.237 71.4443 102.814 70.5759 102.681 68.2175Z" fill="#3F3D56"/>
<path d="M141.17 68.2175C143.257 69.0089 145.631 68.7078 147.423 67.4244C148.279 66.8035 149.216 66.29 150.212 65.8968C151.606 65.3653 153.272 64.9718 153.779 65.8612C154.699 67.4746 142.615 71.4443 142.615 71.4443C142.615 71.4443 141.037 70.5759 141.17 68.2175Z" fill="#3F3D56"/>
<path d="M118.797 17.2916C118.748 17.7227 118.598 18.1894 118.208 18.4174C117.889 18.6058 117.486 18.5911 117.118 18.6623C116.335 18.8475 115.691 19.3734 115.385 20.079C115.09 20.7811 115.032 21.5522 115.219 22.2867C115.306 22.6464 115.418 23.0002 115.556 23.3456C115.941 24.3751 116.407 25.3963 117.127 26.2522C117.741 26.9326 118.432 27.548 119.187 28.0874C119.655 28.4474 120.138 28.8136 120.714 28.9831C121.104 29.0805 121.506 29.1311 121.91 29.1337C122.409 29.1547 122.94 29.1693 123.372 28.9349C124.037 28.5729 124.234 27.7735 124.595 27.1311C124.901 26.587 125.358 26.1246 125.643 25.57C125.846 25.1329 125.995 24.6751 126.087 24.2056L126.7 21.6317C126.922 20.6963 127.126 19.6416 126.57 18.8402C126.529 18.7749 126.473 18.7197 126.406 18.679C126.299 18.6392 126.182 18.6283 126.069 18.6476C125.362 18.691 124.658 18.539 124.042 18.2103C123.945 18.1631 123.858 18.0992 123.787 18.0219C123.698 17.8879 123.645 17.7358 123.632 17.5783C123.572 17.2594 123.477 16.9473 123.348 16.6471C123.312 16.5389 123.245 16.442 123.155 16.3667C123.061 16.3108 122.954 16.2771 122.843 16.2683C121.894 16.123 120.938 16.0287 119.978 15.9858C119.663 15.9712 119.189 15.8519 118.972 16.1156C118.755 16.3792 118.824 16.9777 118.797 17.2916Z" fill="#A0616A"/>
<path opacity="0.1" d="M118.797 17.2916C118.748 17.7227 118.598 18.1894 118.208 18.4174C117.889 18.6058 117.486 18.5911 117.118 18.6623C116.335 18.8475 115.691 19.3734 115.385 20.079C115.09 20.7811 115.032 21.5522 115.219 22.2867C115.306 22.6464 115.418 23.0002 115.556 23.3456C115.941 24.3751 116.407 25.3963 117.127 26.2522C117.741 26.9326 118.432 27.548 119.187 28.0874C119.655 28.4474 120.138 28.8136 120.714 28.9831C121.104 29.0805 121.506 29.1311 121.91 29.1337C122.409 29.1547 122.94 29.1693 123.372 28.9349C124.037 28.5729 124.234 27.7735 124.595 27.1311C124.901 26.587 125.358 26.1246 125.643 25.57C125.846 25.1329 125.995 24.6751 126.087 24.2056L126.7 21.6317C126.922 20.6963 127.126 19.6416 126.57 18.8402C126.529 18.7749 126.473 18.7197 126.406 18.679C126.299 18.6392 126.182 18.6283 126.069 18.6476C125.362 18.691 124.658 18.539 124.042 18.2103C123.945 18.1631 123.858 18.0992 123.787 18.0219C123.698 17.8879 123.645 17.7358 123.632 17.5783C123.572 17.2594 123.477 16.9473 123.348 16.6471C123.312 16.5389 123.245 16.442 123.155 16.3667C123.061 16.3108 122.954 16.2771 122.843 16.2683C121.894 16.123 120.938 16.0287 119.978 15.9858C119.663 15.9712 119.189 15.8519 118.972 16.1156C118.755 16.3792 118.824 16.9777 118.797 17.2916Z" fill="black"/>
<path d="M117.019 18.771C116.505 18.6262 115.974 18.5474 115.439 18.5366C114.171 18.5073 112.816 18.9195 112.084 19.8968C111.586 20.6022 111.404 21.4651 111.577 22.297C111.753 23.1212 112.15 23.8891 112.729 24.5278C113.064 24.8635 113.361 25.2309 113.615 25.6243C113.965 26.2521 113.977 27.0033 114.072 27.7169C114.293 29.4161 115.06 31.0128 115.363 32.7015C115.667 34.3903 115.406 36.3469 113.994 37.4204C113.757 37.6003 113.469 37.7908 113.449 38.0775C113.418 38.5357 114.05 38.7304 114.535 38.7743C115.986 38.904 117.475 39.0317 118.884 38.678C119.467 38.5316 120.03 38.3035 120.623 38.1988C122.13 37.9331 123.645 38.4792 125.154 38.7408C126.246 38.9111 127.351 38.9958 128.458 38.994C128.715 39.0158 128.975 38.9836 129.218 38.8999C129.465 38.8084 129.621 38.5765 129.603 38.3265C129.554 38.1687 129.464 38.0249 129.342 37.908C128.58 37.0186 128.347 35.8363 128.139 34.7083L127.441 30.9186C127.066 28.893 126.718 26.6915 127.733 24.873C128.462 23.5651 129.807 22.6444 130.576 21.3574C130.844 20.9684 130.965 20.5054 130.919 20.0433C130.804 19.3967 130.186 18.9342 129.552 18.6642C128.333 18.1477 126.949 18.0996 125.693 18.5303C125.715 19.4364 125.471 20.353 125.314 21.2507L125.046 22.7155C124.909 23.5788 124.709 24.4319 124.445 25.2685C124.35 25.6032 124.186 25.9173 123.964 26.1935C123.728 26.4419 123.439 26.6408 123.116 26.7773C122.417 27.1003 121.648 27.2664 120.869 27.2628C120.532 27.2677 120.197 27.2189 119.877 27.1184C119.361 26.905 118.896 26.5962 118.51 26.2102C118.374 26.1008 118.253 25.9764 118.149 25.8398C118.038 25.6659 117.955 25.4777 117.903 25.2811C117.723 24.7693 117.582 24.2462 117.479 23.7158C117.413 23.3098 117.391 22.8976 117.36 22.4874C117.273 21.2758 117.273 19.9365 117.019 18.771Z" fill="#6BDE78"/>
<path d="M115.687 42.7837C115.687 42.7837 115.162 49.3608 118.445 50.4762C121.729 51.5915 118.84 45.0165 118.84 45.0165L117.787 43.0327L115.687 42.7837Z" fill="#A0616A"/>
<path d="M126.851 42.7837C126.851 42.7837 127.376 49.3608 124.093 50.4762C120.809 51.5915 123.698 45.0165 123.698 45.0165L124.751 43.0327L126.851 42.7837Z" fill="#A0616A"/>
<path opacity="0.1" d="M112.795 20.8322L111.745 22.4456C111.745 22.4456 112.664 28.0288 112.795 29.0207C112.908 29.7364 113.085 30.442 113.322 31.13C113.322 31.13 113.453 34.1078 113.453 35.2253C113.453 36.3427 114.118 38.2031 114.118 38.2031C114.21 39.2578 114.434 40.2986 114.782 41.3043C115.308 42.6687 115.833 44.2821 115.833 44.2821C115.833 44.2821 116.497 42.5452 119.116 45.1506C119.727 44.5656 119.727 43.6261 119.116 43.0412C119.116 43.0412 118.33 39.693 118.33 37.954C118.33 36.2151 116.883 27.9095 116.883 27.9095C116.883 27.9095 115.943 18.4676 112.795 20.8322Z" fill="black"/>
<path d="M112.534 20.7005L111.484 22.3139C111.484 22.3139 112.403 27.897 112.534 28.8889C112.648 29.6047 112.825 30.3103 113.063 30.9982C113.063 30.9982 113.194 33.976 113.194 35.0914C113.194 36.2068 113.859 38.0692 113.859 38.0692C113.951 39.124 114.174 40.1649 114.523 41.1704C115.049 42.5369 115.576 44.1482 115.576 44.1482C115.576 44.1482 116.241 42.4114 118.859 45.0167C119.468 44.432 119.468 43.4941 118.859 42.9094C118.859 42.9094 118.071 39.5612 118.071 37.8223C118.071 36.0833 116.626 27.7777 116.626 27.7777C116.626 27.7777 115.687 18.3421 112.534 20.7005Z" fill="#6BDE78"/>
<path opacity="0.1" d="M129.873 19.832L130.538 20.5707C130.538 20.5707 131.311 24.7936 129.603 30.1298L129.078 34.9679C129.078 34.9679 128.158 39.0632 128.027 40.0551C127.897 41.047 127.897 41.1704 127.633 41.5429C127.468 41.7231 127.468 41.9906 127.633 42.1707L126.844 44.8911C126.844 44.8911 125.663 43.5267 123.299 45.2636C123.299 45.2636 122.635 44.2717 123.166 43.4033C123.698 42.5348 123.691 42.1623 123.561 41.9133C123.43 41.6643 124.086 40.4255 124.086 40.1765C124.086 39.9274 125.012 34.225 125.012 34.225C125.012 34.225 125.406 28.6419 125.801 26.7816C126.042 25.6369 126.038 23.086 125.996 21.2906C125.954 19.4198 128.351 18.4069 129.762 19.7211C129.796 19.7546 129.835 19.786 129.873 19.832Z" fill="black"/>
<path d="M130.268 19.5762L130.932 20.3149C130.932 20.3149 131.706 24.5399 129.997 29.874L129.472 34.7121C129.472 34.7121 128.553 38.8073 128.422 39.7992C128.291 40.7912 128.289 40.9167 128.028 41.2892C127.861 41.469 127.861 41.7372 128.028 41.917L127.243 44.6458C127.243 44.6458 126.062 43.2793 123.698 45.0161C123.698 45.0161 123.034 44.0242 123.568 43.1558C124.102 42.2874 124.093 41.9149 123.962 41.668C123.831 41.421 124.487 40.178 124.487 39.9311C124.487 39.6842 125.407 33.9755 125.407 33.9755C125.407 33.9755 125.801 28.3924 126.195 26.53C126.59 24.6675 126.326 19.0865 126.326 19.0865C126.326 19.0865 128.429 17.7221 130.268 19.5762Z" fill="#6BDE78"/>
<path d="M121.465 17.848C124.367 17.848 126.72 15.6257 126.72 12.8843C126.72 10.143 124.367 7.92065 121.465 7.92065C118.562 7.92065 116.209 10.143 116.209 12.8843C116.209 15.6257 118.562 17.848 121.465 17.848Z" fill="#A0616A"/>
<path opacity="0.1" d="M124.205 5.43262C123.688 6.7965 122.329 7.71391 120.795 7.73441C119.261 7.75492 117.875 6.87421 117.317 5.52469C119.369 4.74415 121.465 5.4389 121.465 5.4389C122.513 5.09152 123.421 5.12291 124.205 5.43262Z" fill="black"/>
<path d="M121.465 5.6877C121.465 5.6877 111.35 2.33951 113.847 18.5908C113.847 18.5908 116.081 19.9552 117.787 19.0867C117.787 19.0867 116.606 7.79706 121.203 8.29301C125.801 8.78896 125.012 18.8398 125.012 18.8398C125.012 18.8398 127.64 19.5827 128.428 18.212C129.217 16.8414 128.165 3.46324 121.465 5.6877Z" fill="#3F3D56"/>
<path opacity="0.1" d="M121.204 7.54798C118.049 7.20898 117.614 12.4175 117.659 15.7197C117.696 12.4363 118.281 7.97697 121.204 8.29296C124.485 8.64661 125.023 13.8719 125.061 16.8308C125.099 14.1146 124.784 7.93512 121.204 7.54798Z" fill="black"/>
<path opacity="0.1" d="M113.848 17.8462C113.619 16.4236 113.488 14.9886 113.456 13.55C113.445 15.2376 113.576 16.9233 113.848 18.5912C113.848 18.5912 116.081 19.9556 117.787 19.0871C117.787 19.0871 117.761 18.8193 117.73 18.3693C116.03 19.1792 113.848 17.8462 113.848 17.8462Z" fill="black"/>
<path opacity="0.1" d="M128.429 17.4838C127.693 18.7561 125.364 18.1974 125.05 18.1116C125.034 18.572 125.012 18.8482 125.012 18.8482C125.012 18.8482 127.64 19.5911 128.429 18.2204C128.59 17.94 128.675 17.1469 128.65 16.0859C128.628 16.766 128.551 17.2745 128.429 17.4838Z" fill="black"/>
<path d="M183.681 140.817C184.731 138.979 183.539 136.728 182.17 135.089C180.801 133.451 179.128 131.741 179.164 129.649C179.215 126.646 182.587 124.875 185.283 123.283C187.282 122.102 189.126 120.702 190.776 119.112C191.44 118.474 192.076 117.792 192.464 116.976C193.022 115.804 193.007 114.464 192.971 113.184C192.855 108.899 192.633 104.621 192.307 100.348" stroke="#3F3D56" stroke-width="4"/>
<path d="M197.42 100.121C197.343 98.5282 196.411 97.0826 194.948 96.2874L193.84 98.3591L193.873 95.8479C191.805 95.2702 189.579 96.0215 188.367 97.7061C187.156 99.3907 187.236 101.622 188.566 103.225C189.897 104.828 192.172 105.434 194.193 104.725C196.215 104.016 197.518 102.153 197.418 100.119L197.42 100.121Z" fill="#6BDE78"/>
<path d="M188.584 131.802C187.513 133.769 185.129 134.759 182.869 134.175C180.61 133.59 179.093 131.59 179.233 129.382C179.374 127.173 181.133 125.359 183.45 125.034C185.767 124.708 188.009 125.96 188.824 128.035L185.722 130.414L189.127 129.667C189.129 130.409 188.943 131.141 188.584 131.802Z" fill="#6BDE78"/>
<path d="M186.136 122.713C183.627 122.813 181.434 121.125 181.034 118.783C180.633 116.441 182.15 114.186 184.565 113.535L184.539 115.464L185.66 113.372H185.673C187.45 113.281 189.141 114.097 190.106 115.509C191.07 116.921 191.159 118.713 190.338 120.205C189.518 121.696 187.914 122.657 186.136 122.723V122.713Z" fill="#6BDE78"/>
<path d="M198.167 115.153C196.065 115.246 194.13 114.075 193.341 112.233C192.552 110.39 193.08 108.278 194.659 106.964C196.238 105.65 198.523 105.421 200.358 106.393L199.472 108.659L201.273 107.027C202.748 108.305 203.265 110.295 202.583 112.071C201.901 113.848 200.155 115.064 198.156 115.153H198.167Z" fill="#6BDE78"/>
<path opacity="0.1" d="M196.756 101.369C195.611 101.488 194.498 101.825 193.351 101.892C192.203 101.959 190.942 101.7 190.218 100.846C189.826 100.392 189.631 99.8184 189.3 99.3225C188.987 98.862 188.559 98.4812 188.053 98.2134C187.181 99.8335 187.38 101.784 188.564 103.217C189.749 104.649 191.704 105.305 193.58 104.898C195.456 104.491 196.912 103.096 197.317 101.319C197.128 101.338 196.942 101.35 196.756 101.369Z" fill="black"/>
<path opacity="0.1" d="M198.168 115.152C196.43 115.228 194.778 114.438 193.813 113.071C192.848 111.705 192.711 109.961 193.453 108.475C193.847 108.725 194.186 109.045 194.45 109.419C194.802 109.921 195.017 110.503 195.431 110.965C196.202 111.821 197.523 112.101 198.719 112.051C199.916 112.001 201.068 111.679 202.264 111.574C202.43 111.561 202.597 111.551 202.765 111.547C202.258 113.584 200.381 115.056 198.168 115.152Z" fill="black"/>
<path opacity="0.1" d="M186.136 122.713C184.417 122.789 182.779 122.017 181.809 120.673C180.84 119.33 180.678 117.607 181.382 116.124C181.79 116.377 182.146 116.7 182.43 117.076C182.815 117.588 183.055 118.178 183.507 118.654C184.342 119.532 185.747 119.842 187.014 119.813C188.241 119.788 189.422 119.503 190.643 119.415C190.028 121.303 188.225 122.622 186.136 122.713Z" fill="black"/>
<path opacity="0.1" d="M188.585 131.802C187.391 134.036 184.548 134.989 182.131 133.965C179.713 132.941 178.576 130.302 179.549 127.974C179.958 128.227 180.325 128.536 180.637 128.891C181.109 129.433 181.419 130.048 181.966 130.552C182.979 131.492 184.614 131.879 186.07 131.915C186.91 131.923 187.749 131.886 188.585 131.802Z" fill="black"/>
<path d="M176.208 138.701C176.208 138.701 180.119 138.588 181.304 137.795C182.489 137.001 187.322 136.056 187.614 137.326C187.906 138.596 193.492 143.65 189.076 143.683C184.661 143.717 178.816 143.034 177.639 142.356C176.463 141.678 176.208 138.701 176.208 138.701Z" fill="#656380"/>
<path opacity="0.2" d="M189.147 143.25C184.731 143.284 178.887 142.6 177.71 141.924C176.824 141.407 176.458 139.559 176.339 138.705H176.208C176.208 138.705 176.456 141.685 177.633 142.361C178.809 143.037 184.654 143.721 189.07 143.688C190.344 143.688 190.785 143.25 190.76 142.616C190.583 142.995 190.098 143.234 189.147 143.25Z" fill="black"/>
<path d="M72.0747 8.96098L68.0312 11.3821L70.4861 7.16551C69.7934 6.64236 68.9358 6.35224 68.0489 6.34102H67.9824C67.702 6.34473 67.4217 6.32512 67.1449 6.28243L65.7735 7.10273L66.3606 6.09409C65.3901 5.77379 64.5512 5.17261 63.9633 4.37605L61.5106 5.84089L63.0616 3.17908C61.6258 1.55311 59.6938 0.554932 57.5646 0.554932C55.0145 0.554932 52.7435 1.98838 51.2767 4.2212C50.3937 5.58016 48.8076 6.38827 47.1202 6.33893H46.9829C44.1668 6.33893 41.887 9.35439 41.887 13.0751C41.887 16.7957 44.169 19.8091 46.9829 19.8091C47.6009 19.8074 48.2092 19.6638 48.7554 19.3906C50.5921 18.4887 53.0027 18.4719 54.9258 19.2776C56.5934 19.986 58.5016 19.9898 60.1724 19.2881C62.0823 18.4991 64.464 18.5159 66.2897 19.4011C66.8313 19.6717 67.4339 19.8153 68.0467 19.8196C70.8627 19.8196 73.1426 16.8041 73.1426 13.0855C73.1595 11.6477 72.7922 10.2292 72.0747 8.96098Z" fill="#F2F2F2"/>
<path opacity="0.03" d="M64.4504 18.8149C62.9792 18.5507 61.4581 18.7066 60.0812 19.2627C58.411 19.9638 56.5038 19.96 54.8368 19.2522C52.9114 18.4466 50.5009 18.4633 48.6641 19.3652C48.118 19.6384 47.5097 19.7821 46.8916 19.7838C44.3902 19.7838 42.3097 17.4024 41.8755 14.2634C42.3752 13.9196 42.7996 13.4875 43.1251 12.9911C44.6007 10.7604 46.8628 9.32275 49.413 9.32275C51.9632 9.32275 54.2076 10.7395 55.6743 12.9472C56.5645 14.3038 58.141 15.1221 59.8308 15.1047H59.8884C61.8825 15.1068 63.6106 16.6155 64.4504 18.8149Z" fill="black"/>
<path d="M177.775 13.8911L175.765 15.0985L176.991 13.0059C176.644 12.7416 176.215 12.5943 175.77 12.5874H175.739C175.598 12.5892 175.458 12.5794 175.32 12.5581L174.635 12.9766L174.923 12.4618C174.439 12.3025 174.02 12.003 173.727 11.6059L172.504 12.3384L173.277 11.0116C172.618 10.2085 171.612 9.72751 170.536 9.70166C169.262 9.70166 168.13 10.4173 167.399 11.5306C166.957 12.2056 166.165 12.6049 165.325 12.5769H165.257C163.852 12.5769 162.713 14.0815 162.713 15.9251C162.713 17.7687 163.852 19.2838 165.257 19.2838C165.566 19.2827 165.87 19.2109 166.143 19.0745C167.11 18.6305 168.235 18.6099 169.22 19.018C170.053 19.3681 171.004 19.3681 171.837 19.018C172.815 18.6181 173.928 18.6387 174.888 19.0745C175.161 19.211 175.465 19.2828 175.774 19.2838C177.179 19.2838 178.318 17.7813 178.318 15.9251C178.32 15.2149 178.133 14.5155 177.775 13.8911Z" fill="#F2F2F2"/>
<path opacity="0.03" d="M173.975 18.8061C173.241 18.6753 172.483 18.7532 171.797 19.03C170.964 19.3802 170.013 19.3802 169.18 19.03C168.195 18.6218 167.069 18.6425 166.101 19.0865C165.828 19.2235 165.523 19.2954 165.214 19.2958C163.965 19.2958 162.928 18.1093 162.711 16.544C162.959 16.374 163.171 16.161 163.335 15.9162C164.067 14.8029 165.201 14.0894 166.473 14.0894C167.745 14.0894 168.863 14.7946 169.595 15.8953C170.038 16.5725 170.825 16.9807 171.668 16.9709H171.702C172.696 16.9562 173.549 17.7096 173.975 18.8061Z" fill="black"/>
<path d="M45.784 45.163L49.0321 47.105L47.0646 43.7254C47.6225 43.3059 48.3124 43.074 49.0254 43.0662H49.0764C49.299 43.0693 49.5214 43.0539 49.7411 43.0202L50.8378 43.6772L50.3614 42.8695C51.1384 42.6115 51.8102 42.1299 52.2824 41.4925L54.2476 42.6686L53.0202 40.5362C54.1701 39.2346 55.7188 38.4436 57.4226 38.4436C59.4676 38.4436 61.2866 39.5904 62.4631 41.3733C63.1687 42.4608 64.4367 43.1083 65.7865 43.0704H65.8973C68.1528 43.0704 69.9807 45.4853 69.9807 48.4652C69.9807 51.445 68.1528 53.862 65.8973 53.862C65.4006 53.8602 64.9117 53.7446 64.4727 53.5251C62.9187 52.812 61.1116 52.7791 59.5296 53.4351C58.1903 54.0006 56.6593 54.0006 55.32 53.4351C53.7498 52.7927 51.9616 52.8255 50.419 53.5251C49.9844 53.7388 49.5021 53.8514 49.0121 53.8536C46.7544 53.8536 44.9265 51.4388 44.9265 48.4568C44.9159 47.3084 45.2107 46.1758 45.784 45.163Z" fill="#F2F2F2"/>
<path opacity="0.03" d="M51.8882 53.0589C53.0671 52.8491 54.2854 52.9743 55.3888 53.4188C56.7282 53.9843 58.2591 53.9843 59.5985 53.4188C61.1812 52.7627 62.989 52.7956 64.5438 53.5088C64.982 53.7283 65.4701 53.8439 65.9662 53.8457C67.9713 53.8457 69.6374 51.9393 69.9853 49.424C69.5852 49.1474 69.2452 48.8007 68.9838 48.4028C67.8074 46.6157 65.9883 45.4731 63.9433 45.4731C61.8983 45.4731 60.1037 46.6073 58.9272 48.3777C58.2152 49.4624 56.955 50.1171 55.6038 50.1041H55.5528C53.9443 50.0895 52.5617 51.299 51.8882 53.0589Z" fill="black"/>
</svg>
