<svg id="primary" xmlns="http://www.w3.org/2000/svg" viewBox="0 0 1929.29 300"><defs><style>.cls-1{fill:#6bde78;}.cls-2{fill:#5bd26a;}.cls-3{fill:#333740;}</style></defs><title>Logo-MijnWebWinkel-Primary-RGB</title><path class="cls-1" d="M349.77,305a5,5,0,0,0-5-5H255.31a5,5,0,0,0-5,5c0,.14,0,.27,0,.4a50,50,0,0,0,99.42,0C349.76,305.28,349.77,305.14,349.77,305Z" transform="translate(-150.13 -150)"/><path class="cls-2" d="M399.91,244.77a100,100,0,0,0-199.73,0,1.48,1.48,0,0,0,0,.21,5,5,0,0,0,5,5h40.17a5,5,0,0,0,4.9-4.5h0a50,50,0,0,1,99.6,0h0a5,5,0,0,0,5,4.51h40.09a5,5,0,0,0,5-5Z" transform="translate(-150.13 -150)"/><path class="cls-2" d="M445,300H404.89a5,5,0,0,0-5,4.71h0a100,100,0,0,1-199.78.06h0a5,5,0,0,0-4.91-4.77H155.09a5,5,0,0,0-5,5v.06a150,150,0,0,0,299.83,0V305A5,5,0,0,0,445,300Z" transform="translate(-150.13 -150)"/><path class="cls-2" d="M300,350a50,50,0,0,0,49.71-44.58c0-.14,0-.28,0-.42a5,5,0,0,0-5-5H300v50Z" transform="translate(-150.13 -150)"/><path class="cls-1" d="M300,200a50,50,0,0,1,49.8,45.49h0a5,5,0,0,0,5,4.51h40.09a5,5,0,0,0,5-5v-.23A100,100,0,0,0,300,150h0v50Z" transform="translate(-150.13 -150)"/><path class="cls-1" d="M200.15,304.77h0a5,5,0,0,0-4.91-4.77H155.09a5,5,0,0,0-5,5v.06A150,150,0,0,0,300,450V400A100,100,0,0,1,200.15,304.77Z" transform="translate(-150.13 -150)"/><path class="cls-3" d="M673.66,350.12a7,7,0,0,1-5-1.78,6.52,6.52,0,0,1-1.83-4.89V285.66a20.93,20.93,0,0,0-1.15-6.89,18.3,18.3,0,0,0-3.43-6,17.15,17.15,0,0,0-5.84-4.33,22.9,22.9,0,0,0-17.17,0,17.11,17.11,0,0,0-5.83,4.33,16.56,16.56,0,0,0-3.32,6,23.14,23.14,0,0,0-1,6.89v57.79a6.55,6.55,0,0,1-1.83,4.89,7,7,0,0,1-5,1.78h-6.87a6.92,6.92,0,0,1-5-1.78,6.48,6.48,0,0,1-1.84-4.89V285.66a21.19,21.19,0,0,0-1.14-6.89,18.47,18.47,0,0,0-3.43-6,17.24,17.24,0,0,0-5.84-4.33,19.52,19.52,0,0,0-8.36-1.67,20.29,20.29,0,0,0-8.47,1.67,16.85,16.85,0,0,0-5.95,4.33,18.12,18.12,0,0,0-3.43,6,20.93,20.93,0,0,0-1.15,6.89v57.79a6.52,6.52,0,0,1-1.83,4.89,6.94,6.94,0,0,1-5,1.78h-6.87a7,7,0,0,1-5-1.78,6.52,6.52,0,0,1-1.83-4.89V285.66a39.23,39.23,0,0,1,2.86-15,34.92,34.92,0,0,1,8-12,37.46,37.46,0,0,1,12.48-7.89,44,44,0,0,1,16.25-2.89A36.59,36.59,0,0,1,605.09,251a52.27,52.27,0,0,1,11.34,6.89q2.28,2,4.35,0a36.08,36.08,0,0,1,11.1-7.11,40.32,40.32,0,0,1,15.91-2.89A44.09,44.09,0,0,1,664,250.77a37.56,37.56,0,0,1,12.48,7.89,34.92,34.92,0,0,1,8,12,39.23,39.23,0,0,1,2.86,15v57.79a6.52,6.52,0,0,1-1.83,4.89,7,7,0,0,1-5,1.78Z" transform="translate(-150.13 -150)"/><path class="cls-3" d="M740,234.55a7,7,0,0,1-5-1.78,6.52,6.52,0,0,1-1.83-4.89V216.77a6.49,6.49,0,0,1,1.83-4.89,6.91,6.91,0,0,1,5-1.78h6.87a6.9,6.9,0,0,1,5,1.78,6.49,6.49,0,0,1,1.83,4.89v11.11a6.52,6.52,0,0,1-1.83,4.89,6.94,6.94,0,0,1-5,1.78Zm0,115.57a7,7,0,0,1-5-1.78,6.52,6.52,0,0,1-1.83-4.89V256.77a6.52,6.52,0,0,1,1.83-4.89,7,7,0,0,1,5-1.78h6.87a6.94,6.94,0,0,1,5,1.78,6.52,6.52,0,0,1,1.83,4.89v86.68a6.52,6.52,0,0,1-1.83,4.89,6.94,6.94,0,0,1-5,1.78Z" transform="translate(-150.13 -150)"/><path class="cls-3" d="M787,401.23a6.91,6.91,0,0,1-5-1.78,6.48,6.48,0,0,1-1.83-4.88V389a6.49,6.49,0,0,1,1.83-4.89,6.91,6.91,0,0,1,5-1.78h2.28c4.13,0,7.25-1.26,9.39-3.78s3.21-6.07,3.21-10.67V256.77a6.48,6.48,0,0,1,1.83-4.89,6.92,6.92,0,0,1,5-1.78h6.87a7,7,0,0,1,5,1.78,6.52,6.52,0,0,1,1.83,4.89V367.89q0,15.35-8.82,24.34t-23.46,9Zm21.74-166.68a6.92,6.92,0,0,1-5-1.78,6.48,6.48,0,0,1-1.83-4.89V216.77a6.45,6.45,0,0,1,1.83-4.89,6.88,6.88,0,0,1,5-1.78h6.87a6.92,6.92,0,0,1,5,1.78,6.49,6.49,0,0,1,1.83,4.89v11.11a6.52,6.52,0,0,1-1.83,4.89,7,7,0,0,1-5,1.78Z" transform="translate(-150.13 -150)"/><path class="cls-3" d="M939.19,350.12a6.94,6.94,0,0,1-5-1.78,6.52,6.52,0,0,1-1.83-4.89V287.89A22.16,22.16,0,0,0,927,273.11q-5.38-6.35-16.37-6.34t-16.37,6.34a22.11,22.11,0,0,0-5.38,14.78v55.56a6.52,6.52,0,0,1-1.83,4.89,6.94,6.94,0,0,1-5,1.78H875.1a7,7,0,0,1-5-1.78,6.52,6.52,0,0,1-1.83-4.89V287.89a39.75,39.75,0,0,1,11.68-28.12,40.72,40.72,0,0,1,13.27-8.67,48.62,48.62,0,0,1,34.8,0,41,41,0,0,1,13.28,8.67,39.8,39.8,0,0,1,11.67,28.12v55.56a6.52,6.52,0,0,1-1.83,4.89,7,7,0,0,1-5,1.78Z" transform="translate(-150.13 -150)"/><path class="cls-3" d="M1113.17,256.77a6.52,6.52,0,0,1,1.83-4.89,7,7,0,0,1,5-1.78h6.86a7,7,0,0,1,5,1.78,6.52,6.52,0,0,1,1.83,4.89v57.79a39.23,39.23,0,0,1-2.86,15,35,35,0,0,1-8,12,37.35,37.35,0,0,1-12.48,7.89,44,44,0,0,1-16.25,2.89,40.32,40.32,0,0,1-15.91-2.89,36.2,36.2,0,0,1-11.1-7.11q-2.07-2-4.35,0a52.19,52.19,0,0,1-11.33,6.89,36.67,36.67,0,0,1-15.46,3.11,44,44,0,0,1-16.25-2.89,37.41,37.41,0,0,1-12.47-7.89,34.9,34.9,0,0,1-8-12,39.23,39.23,0,0,1-2.86-15V256.77a6.52,6.52,0,0,1,1.83-4.89,7,7,0,0,1,5-1.78h6.87a6.94,6.94,0,0,1,5,1.78,6.52,6.52,0,0,1,1.83,4.89v57.79a20.83,20.83,0,0,0,1.15,6.88,18.24,18.24,0,0,0,3.43,6,17.06,17.06,0,0,0,5.95,4.33,20.29,20.29,0,0,0,8.47,1.67,19.52,19.52,0,0,0,8.36-1.67,17.38,17.38,0,0,0,5.84-4.33,18.24,18.24,0,0,0,3.43-6,21.09,21.09,0,0,0,1.15-6.88V256.77a6.48,6.48,0,0,1,1.83-4.89,6.92,6.92,0,0,1,5-1.78h6.87a7,7,0,0,1,5,1.78,6.52,6.52,0,0,1,1.83,4.89v57.79a23,23,0,0,0,1,6.88,16.67,16.67,0,0,0,3.32,6,17.18,17.18,0,0,0,5.84,4.33,22.88,22.88,0,0,0,17.16,0,17.28,17.28,0,0,0,5.84-4.33,18.27,18.27,0,0,0,3.44-6,21.08,21.08,0,0,0,1.14-6.88Z" transform="translate(-150.13 -150)"/><path class="cls-3" d="M1251.66,328.33a5.74,5.74,0,0,1,1.95,4.45,7.89,7.89,0,0,1-1.95,4.67q-4.58,5.55-13.5,10.22t-21.29,4.67a47.15,47.15,0,0,1-17.29-3,39,39,0,0,1-13.16-8.34,37.06,37.06,0,0,1-8.47-12.44,38.84,38.84,0,0,1-3-15.12V287.22a44,44,0,0,1,2.64-15.23,35.13,35.13,0,0,1,7.78-12.55A37.19,37.19,0,0,1,1198,251a43.94,43.94,0,0,1,17-3.11A44.81,44.81,0,0,1,1232.2,251a39.55,39.55,0,0,1,12.94,8.45,36.38,36.38,0,0,1,8.24,12.55,41.14,41.14,0,0,1,2.86,15.23v13.33a6.49,6.49,0,0,1-1.83,4.89,6.91,6.91,0,0,1-5,1.78h-51.5a2,2,0,0,0-2.29,2.22v4a20.57,20.57,0,0,0,5.15,14.23q5.14,5.77,16.14,5.78c5.79,0,10.3-1,13.5-3a37.26,37.26,0,0,0,7.33-5.67,6.31,6.31,0,0,1,9.61-.22Zm-16-41.11a22.42,22.42,0,0,0-4.81-14.45q-4.8-6-15.8-6-10.76,0-15.1,6a24,24,0,0,0-4.35,14.45v1.11a2,2,0,0,0,2.29,2.22h35.48a2,2,0,0,0,2.29-2.22Z" transform="translate(-150.13 -150)"/><path class="cls-3" d="M1304.31,350.12a7,7,0,0,1-5-1.78,6.52,6.52,0,0,1-1.83-4.89V205.65a6.52,6.52,0,0,1,1.83-4.89,6.94,6.94,0,0,1,5-1.77h6.87a6.94,6.94,0,0,1,5,1.77,6.52,6.52,0,0,1,1.83,4.89v42.23a2,2,0,0,0,2.29,2.22H1343a41.93,41.93,0,0,1,15.68,2.89,37.73,37.73,0,0,1,12.36,7.89,36.59,36.59,0,0,1,8.13,12,38,38,0,0,1,3,15v24.44a39.16,39.16,0,0,1-2.86,15,34.25,34.25,0,0,1-8.13,12,38.47,38.47,0,0,1-12.7,7.89,45,45,0,0,1-16.37,2.89Zm57.23-62.23q0-8.44-5.38-13.67T1342.08,269h-21.75a2,2,0,0,0-2.29,2.23V329a2,2,0,0,0,2.29,2.22h21.75a19.7,19.7,0,0,0,13.74-5.22,17.64,17.64,0,0,0,5.72-13.67Z" transform="translate(-150.13 -150)"/><path class="cls-3" d="M1540.09,256.77a6.48,6.48,0,0,1,1.84-4.89,6.91,6.91,0,0,1,5-1.78h6.87a7,7,0,0,1,5,1.78,6.55,6.55,0,0,1,1.83,4.89v57.79a39.24,39.24,0,0,1-2.87,15,34.88,34.88,0,0,1-8,12,37.41,37.41,0,0,1-12.47,7.89,44.1,44.1,0,0,1-16.26,2.89,40.35,40.35,0,0,1-15.91-2.89,36.32,36.32,0,0,1-11.1-7.11q-2.05-2-4.35,0a51.94,51.94,0,0,1-11.33,6.89,36.59,36.59,0,0,1-15.45,3.11,44,44,0,0,1-16.25-2.89,37.35,37.35,0,0,1-12.48-7.89,34.88,34.88,0,0,1-8-12,39.23,39.23,0,0,1-2.86-15V256.77a6.48,6.48,0,0,1,1.83-4.89,6.92,6.92,0,0,1,5-1.78h6.87a7,7,0,0,1,5,1.78,6.52,6.52,0,0,1,1.83,4.89v57.79a21.08,21.08,0,0,0,1.14,6.88,18.09,18.09,0,0,0,3.44,6,17,17,0,0,0,6,4.33,20.26,20.26,0,0,0,8.47,1.67,19.47,19.47,0,0,0,8.35-1.67,17.28,17.28,0,0,0,5.84-4.33,18.24,18.24,0,0,0,3.43-6,20.83,20.83,0,0,0,1.15-6.88V256.77a6.52,6.52,0,0,1,1.83-4.89,7,7,0,0,1,5-1.78h6.86a7,7,0,0,1,5,1.78,6.52,6.52,0,0,1,1.83,4.89v57.79a23.35,23.35,0,0,0,1,6.88,16.67,16.67,0,0,0,3.32,6,17.28,17.28,0,0,0,5.84,4.33,22.9,22.9,0,0,0,17.17,0,17.38,17.38,0,0,0,5.84-4.33,18.42,18.42,0,0,0,3.43-6,21.08,21.08,0,0,0,1.14-6.88Z" transform="translate(-150.13 -150)"/><path class="cls-3" d="M1613.34,234.55a6.94,6.94,0,0,1-5-1.78,6.48,6.48,0,0,1-1.83-4.89V216.77a6.45,6.45,0,0,1,1.83-4.89,6.9,6.9,0,0,1,5-1.78h6.87a6.92,6.92,0,0,1,5,1.78,6.49,6.49,0,0,1,1.83,4.89v11.11a6.52,6.52,0,0,1-1.83,4.89,7,7,0,0,1-5,1.78Zm0,115.57a6.94,6.94,0,0,1-5-1.78,6.48,6.48,0,0,1-1.83-4.89V256.77a6.48,6.48,0,0,1,1.83-4.89,6.94,6.94,0,0,1,5-1.78h6.87a7,7,0,0,1,5,1.78,6.52,6.52,0,0,1,1.83,4.89v86.68a6.52,6.52,0,0,1-1.83,4.89,7,7,0,0,1-5,1.78Z" transform="translate(-150.13 -150)"/><path class="cls-3" d="M1743.83,350.12a7,7,0,0,1-5-1.78,6.52,6.52,0,0,1-1.83-4.89V287.89a22.16,22.16,0,0,0-5.38-14.78q-5.38-6.35-16.37-6.34t-16.37,6.34a22.16,22.16,0,0,0-5.38,14.78v55.56a6.52,6.52,0,0,1-1.83,4.89,6.94,6.94,0,0,1-5,1.78h-6.87a7,7,0,0,1-5-1.78,6.52,6.52,0,0,1-1.83-4.89V287.89a39.75,39.75,0,0,1,11.68-28.12,40.72,40.72,0,0,1,13.27-8.67,48.62,48.62,0,0,1,34.8,0,40.87,40.87,0,0,1,13.28,8.67,39.8,39.8,0,0,1,11.67,28.12v55.56a6.52,6.52,0,0,1-1.83,4.89,7,7,0,0,1-5,1.78Z" transform="translate(-150.13 -150)"/><path class="cls-3" d="M1870,350.12q-5.73,0-8.47-6l-21.29-43.78a2.78,2.78,0,0,0-2.18-1.78,3.38,3.38,0,0,0-2.86,1.11l-8.24,8.23a11.94,11.94,0,0,0-2.17,2.78,7.4,7.4,0,0,0-.8,3.66v29.12a6.52,6.52,0,0,1-1.84,4.89,6.94,6.94,0,0,1-5,1.78h-6.87a7,7,0,0,1-5-1.78,6.52,6.52,0,0,1-1.83-4.89V205.65a6.52,6.52,0,0,1,1.83-4.89,6.94,6.94,0,0,1,5-1.77h6.87a6.94,6.94,0,0,1,5,1.77,6.52,6.52,0,0,1,1.84,4.89v74.23a2.42,2.42,0,0,0,1,2.34c.69.37,1.49.11,2.41-.78l28.16-27.78a14.22,14.22,0,0,1,3.66-2.67,11.74,11.74,0,0,1,5-.89h12.14q3.89,0,4.69,2.45c.53,1.63,0,3.19-1.49,4.66l-22,21.12q-4.12,3.78-2.06,8.22l27.69,55.56q1.61,3.34.23,5.67t-4.8,2.34Z" transform="translate(-150.13 -150)"/><path class="cls-3" d="M1993.57,328.33a5.71,5.71,0,0,1,2,4.45,7.89,7.89,0,0,1-2,4.67q-4.58,5.55-13.5,10.22t-21.29,4.67a47.19,47.19,0,0,1-17.29-3,39,39,0,0,1-13.16-8.34,37.06,37.06,0,0,1-8.47-12.44,38.83,38.83,0,0,1-3-15.12V287.22a44,44,0,0,1,2.63-15.23,35.13,35.13,0,0,1,7.78-12.55,37.29,37.29,0,0,1,12.59-8.45,44,44,0,0,1,17.06-3.11,44.85,44.85,0,0,1,17.17,3.11,39.61,39.61,0,0,1,12.93,8.45,36.38,36.38,0,0,1,8.24,12.55,40.93,40.93,0,0,1,2.86,15.23v13.33a6.49,6.49,0,0,1-1.83,4.89,6.91,6.91,0,0,1-5,1.78h-51.5a2,2,0,0,0-2.29,2.22v4a20.57,20.57,0,0,0,5.15,14.23q5.14,5.77,16.14,5.78,8.7,0,13.5-3a37.26,37.26,0,0,0,7.33-5.67,6.31,6.31,0,0,1,9.61-.22Zm-16-41.11a22.37,22.37,0,0,0-4.81-14.45q-4.8-6-15.79-6-10.77,0-15.11,6a24,24,0,0,0-4.35,14.45v1.11a2,2,0,0,0,2.29,2.22h35.48a2,2,0,0,0,2.29-2.22Z" transform="translate(-150.13 -150)"/><path class="cls-3" d="M2069.34,350.12q-14.65,0-21.17-7.78t-6.53-21.12V205.65a6.52,6.52,0,0,1,1.83-4.89,6.94,6.94,0,0,1,5-1.77h6.87a6.94,6.94,0,0,1,5,1.77,6.52,6.52,0,0,1,1.83,4.89v117.8a7.75,7.75,0,0,0,2.06,5.66,8,8,0,0,0,6,2.11h2.29a6.94,6.94,0,0,1,5,1.78,6.52,6.52,0,0,1,1.83,4.89v5.56a6.52,6.52,0,0,1-1.83,4.89,6.94,6.94,0,0,1-5,1.78Z" transform="translate(-150.13 -150)"/></svg>