<?xml version="1.0" encoding="UTF-8"?>
<!-- Generator: Adobe Illustrator 23.0.1, SVG Export Plug-In . SVG Version: 6.00 Build 0)  -->
<svg version="1.1" id="primary" xmlns="http://www.w3.org/2000/svg" xmlns:xlink="http://www.w3.org/1999/xlink" width="300px" height="48px" x="0px" y="0px" viewBox="0 0 1890.1 300" style="enable-background:new 0 0 1890.1 300;" xml:space="preserve">
<style type="text/css">
	.st0{fill:#6BDE78;}
	.st1{fill:#5BD26A;}
	.st2{fill:#FFFFFF;}
</style>
<g>
	<g>
		<path class="st0" d="M199.6,155c0-2.8-2.2-5-5-5v0h-89.5c-2.8,0-5,2.2-5,5c0,0.1,0,0.3,0,0.4c2.7,25.1,23.9,44.6,49.7,44.6    c25.8,0,47-19.5,49.7-44.6C199.6,155.3,199.6,155.1,199.6,155z"/>
		<path class="st1" d="M249.8,94.8C247.1,42,203.4,0,149.9,0C96.4,0,52.8,42,50.1,94.8c0,0.1,0,0.1,0,0.2c0,2.8,2.2,5,5,5    c0,0,0,0,0,0v0h40.2v0c2.6,0,4.7-2,4.9-4.5h0C102.4,70,123.8,50,149.9,50c26.1,0,47.5,20,49.8,45.5h0c0.2,2.5,2.4,4.5,5,4.5h40.1    c2.8,0,5-2.2,5-5C249.8,94.9,249.8,94.8,249.8,94.8z"/>
		<path class="st1" d="M294.9,150L294.9,150l-40.1,0v0c-2.6,0-4.8,2.1-5,4.7h0c-2.5,53-46.2,95.3-99.9,95.3    c-53.6,0-97.4-42.2-99.9-95.2h0c-0.1-2.6-2.3-4.7-4.9-4.8v0H5v0c-2.7,0-5,2.2-5,5c0,0,0,0,0,0.1C2.7,235.5,68.8,300,149.9,300    c81.1,0,147.2-64.5,149.9-144.9c0,0,0,0,0-0.1C299.8,152.3,297.6,150,294.9,150z"/>
	</g>
	<g>
		<path class="st1" d="M149.9,200c25.8,0,47-19.5,49.7-44.6c0-0.1,0-0.3,0-0.4c0-2.8-2.2-5-5-5v0h-44.8L149.9,200L149.9,200z"/>
		<path class="st0" d="M149.9,50c26.1,0,47.5,20,49.8,45.5h0c0.2,2.5,2.4,4.5,5,4.5h40.1c2.8,0,5-2.2,5-5c0-0.1,0-0.2,0-0.2    C247.1,42,203.4,0,149.9,0l0,0V50L149.9,50z"/>
		<path class="st0" d="M50,154.8L50,154.8c-0.1-2.6-2.3-4.7-4.9-4.8v0H5v0c-2.7,0-5,2.2-5,5c0,0,0,0,0,0.1    C2.7,235.5,68.8,300,149.9,300v-50C96.3,250,52.5,207.8,50,154.8z"/>
	</g>
</g>
<g>
	<path class="st2" d="M523.5,200.1c-2.1,0-3.8-0.6-5-1.8c-1.2-1.2-1.8-2.8-1.8-4.9v-57.8c0-2.4-0.4-4.7-1.1-6.9   c-0.8-2.2-1.9-4.2-3.4-6c-1.5-1.8-3.5-3.2-5.8-4.3c-2.4-1.1-5.2-1.7-8.6-1.7c-3.4,0-6.2,0.6-8.6,1.7c-2.4,1.1-4.3,2.6-5.8,4.3   c-1.5,1.8-2.6,3.8-3.3,6c-0.7,2.2-1,4.5-1,6.9v57.8c0,2.1-0.6,3.7-1.8,4.9c-1.2,1.2-2.9,1.8-5,1.8h-6.9c-2.1,0-3.8-0.6-5-1.8   c-1.2-1.2-1.8-2.8-1.8-4.9v-57.8c0-2.4-0.4-4.7-1.1-6.9c-0.8-2.2-1.9-4.2-3.4-6c-1.5-1.8-3.5-3.2-5.8-4.3c-2.4-1.1-5.2-1.7-8.4-1.7   c-3.2,0-6,0.6-8.5,1.7c-2.4,1.1-4.4,2.6-6,4.3c-1.5,1.8-2.7,3.8-3.4,6c-0.8,2.2-1.1,4.5-1.1,6.9v57.8c0,2.1-0.6,3.7-1.8,4.9   c-1.2,1.2-2.9,1.8-5,1.8h-6.9c-2.1,0-3.8-0.6-5-1.8c-1.2-1.2-1.8-2.8-1.8-4.9v-57.8c0-5.3,1-10.3,2.9-15c1.9-4.7,4.6-8.7,8-12   c3.4-3.3,7.6-6,12.5-7.9c4.9-1.9,10.3-2.9,16.3-2.9c5.8,0,10.9,1,15.5,3.1c4.5,2.1,8.3,4.4,11.3,6.9c1.5,1.3,3,1.3,4.3,0   c2.9-2.8,6.6-5.2,11.1-7.1c4.5-1.9,9.8-2.9,15.9-2.9c6,0,11.4,1,16.3,2.9c4.9,1.9,9,4.6,12.5,7.9c3.4,3.3,6.1,7.3,8,12   c1.9,4.7,2.9,9.7,2.9,15v57.8c0,2.1-0.6,3.7-1.8,4.9c-1.2,1.2-2.9,1.8-5,1.8H523.5z"/>
	<path class="st2" d="M640.3,202.3c0-1.5-0.8-2.2-2.3-2.2h-21.3c-5.6,0-10.8-0.9-15.6-2.8c-4.7-1.9-8.8-4.4-12.1-7.7   c-3.4-3.3-6-7.1-7.8-11.7c-1.8-4.5-2.7-9.4-2.7-14.8v-56.5c0-2.1,0.6-3.7,1.8-4.9c1.2-1.2,2.9-1.8,5-1.8h6.9c2.1,0,3.8,0.6,5,1.8   c1.2,1.2,1.8,2.8,1.8,4.9v56.5c0,5.6,1.6,10,4.9,13.2c3.3,3.2,7.8,4.8,13.6,4.8H638c1.5,0,2.3-0.7,2.3-2.2v-72.2   c0-2.1,0.6-3.7,1.8-4.9c1.2-1.2,2.9-1.8,5-1.8h6.9c2.1,0,3.8,0.6,5,1.8c1.2,1.2,1.8,2.8,1.8,4.9v105.1c0,5.6-1,11-3,16   c-2,5-4.8,9.4-8.5,13.2c-3.7,3.8-8.1,6.8-13.3,9c-5.2,2.2-11.1,3.3-17.6,3.3c-7.8,0-14.3-0.8-19.5-2.3c-5.2-1.6-9.8-3.6-13.7-6.1   c-1.7-1-2.8-2.4-3.3-4c-0.5-1.6-0.3-3.3,0.6-4.9l2.7-5.1c2-3.7,5-4.6,8.9-2.7c3.2,1.8,6.7,3.3,10.5,4.4c3.8,1.2,8.4,1.8,13.7,1.8   c7.8,0,13.4-2,16.7-6.1c3.4-4.1,5-9.6,5-16.6V202.3z"/>
	<path class="st2" d="M778.8,202.3c-7.5,0-14.5-1.4-20.9-4.1c-6.5-2.7-12.2-6.5-17.1-11.2c-4.9-4.7-8.7-10.3-11.6-16.6   c-2.8-6.3-4.2-13.1-4.2-20.3c0-7.3,1.4-14,4.2-20.3c2.8-6.3,6.7-11.8,11.6-16.6c4.9-4.7,10.6-8.5,17.1-11.2   c6.5-2.7,13.5-4.1,20.9-4.1c7.5,0,14.5,1.4,20.9,4.1c6.5,2.7,12.2,6.5,17.1,11.2c4.9,4.7,8.7,10.3,11.6,16.6   c2.8,6.3,4.2,13.1,4.2,20.3c0,7.3-1.4,14-4.2,20.3c-2.8,6.3-6.7,11.8-11.6,16.6c-4.9,4.7-10.6,8.5-17.1,11.2   C793.2,201,786.2,202.3,778.8,202.3z M778.8,183.4c4.7,0,9.1-0.9,13.2-2.7c4-1.8,7.6-4.1,10.5-7.1c3-3,5.3-6.5,7-10.6   c1.7-4.1,2.5-8.4,2.5-13c0-4.6-0.8-8.9-2.5-13c-1.7-4.1-4-7.6-7-10.6c-3-3-6.5-5.3-10.5-7.1c-4-1.8-8.4-2.7-13.2-2.7   c-4.7,0-9.1,0.9-13.2,2.7c-4,1.8-7.6,4.1-10.5,7.1c-3,3-5.3,6.5-7,10.6c-1.7,4.1-2.5,8.4-2.5,13c0,4.6,0.8,8.9,2.5,13   c1.7,4.1,4,7.6,7,10.6c3,3,6.5,5.3,10.5,7.1C769.6,182.6,774,183.4,778.8,183.4z"/>
	<path class="st2" d="M940.2,200.1c-2.1,0-3.8-0.6-5-1.8c-1.2-1.2-1.8-2.8-1.8-4.9v-55.6c0-5.6-1.8-10.6-5.4-14.8   c-3.6-4.2-9-6.3-16.4-6.3c-7.3,0-12.8,2.1-16.4,6.3c-3.6,4.2-5.4,9.2-5.4,14.8v55.6c0,2.1-0.6,3.7-1.8,4.9c-1.2,1.2-2.9,1.8-5,1.8   h-6.9c-2.1,0-3.8-0.6-5-1.8c-1.2-1.2-1.8-2.8-1.8-4.9v-55.6c0-5.3,1-10.4,3.1-15.3c2.1-4.9,4.9-9.1,8.6-12.8   c3.7-3.6,8.1-6.5,13.3-8.7c5.2-2.1,11-3.2,17.4-3.2s12.2,1.1,17.4,3.2c5.2,2.1,9.6,5,13.3,8.7c3.7,3.6,6.5,7.9,8.6,12.8   c2.1,4.9,3.1,10,3.1,15.3v55.6c0,2.1-0.6,3.7-1.8,4.9c-1.2,1.2-2.9,1.8-5,1.8H940.2z"/>
	<path class="st2" d="M1025.1,200.1c-9.8,0-16.8-2.6-21.2-7.8c-4.3-5.2-6.5-12.2-6.5-21.1V55.7c0-2.1,0.6-3.7,1.8-4.9   c1.2-1.2,2.9-1.8,5-1.8h6.9c2.1,0,3.8,0.6,5,1.8c1.2,1.2,1.8,2.8,1.8,4.9v117.8c0,2.4,0.7,4.3,2.1,5.7c1.4,1.4,3.4,2.1,6,2.1h2.3   c2.1,0,3.8,0.6,5,1.8c1.2,1.2,1.8,2.8,1.8,4.9v5.6c0,2.1-0.6,3.7-1.8,4.9c-1.2,1.2-2.9,1.8-5,1.8H1025.1z"/>
	<path class="st2" d="M1076.4,84.5c-2.1,0-3.8-0.6-5-1.8c-1.2-1.2-1.8-2.8-1.8-4.9V66.8c0-2.1,0.6-3.7,1.8-4.9   c1.2-1.2,2.9-1.8,5-1.8h6.9c2.1,0,3.8,0.6,5,1.8c1.2,1.2,1.8,2.8,1.8,4.9v11.1c0,2.1-0.6,3.7-1.8,4.9c-1.2,1.2-2.9,1.8-5,1.8   H1076.4z M1076.4,200.1c-2.1,0-3.8-0.6-5-1.8c-1.2-1.2-1.8-2.8-1.8-4.9v-86.7c0-2.1,0.6-3.7,1.8-4.9c1.2-1.2,2.9-1.8,5-1.8h6.9   c2.1,0,3.8,0.6,5,1.8c1.2,1.2,1.8,2.8,1.8,4.9v86.7c0,2.1-0.6,3.7-1.8,4.9c-1.2,1.2-2.9,1.8-5,1.8H1076.4z"/>
	<path class="st2" d="M1204.5,200.1c-2.1,0-3.8-0.6-5-1.8c-1.2-1.2-1.8-2.8-1.8-4.9v-55.6c0-5.6-1.8-10.6-5.4-14.8   c-3.6-4.2-9-6.3-16.4-6.3c-7.3,0-12.8,2.1-16.4,6.3c-3.6,4.2-5.4,9.2-5.4,14.8v55.6c0,2.1-0.6,3.7-1.8,4.9c-1.2,1.2-2.9,1.8-5,1.8   h-6.9c-2.1,0-3.8-0.6-5-1.8c-1.2-1.2-1.8-2.8-1.8-4.9v-55.6c0-5.3,1-10.4,3.1-15.3c2.1-4.9,4.9-9.1,8.6-12.8   c3.7-3.6,8.1-6.5,13.3-8.7c5.2-2.1,11-3.2,17.4-3.2s12.2,1.1,17.4,3.2c5.2,2.1,9.6,5,13.3,8.7c3.7,3.6,6.5,7.9,8.6,12.8   c2.1,4.9,3.1,10,3.1,15.3v55.6c0,2.1-0.6,3.7-1.8,4.9c-1.2,1.2-2.9,1.8-5,1.8H1204.5z"/>
	<path class="st2" d="M1333.9,178.3c1.4,1.3,2,2.8,1.9,4.4c-0.1,1.6-0.7,3.2-1.9,4.7c-3.1,3.7-7.6,7.1-13.5,10.2   c-6,3.1-13,4.7-21.3,4.7c-6.4,0-12.2-1-17.3-3c-5.1-2-9.5-4.8-13.2-8.3s-6.5-7.7-8.5-12.4c-2-4.7-3-9.8-3-15.1v-26.2   c0-5.3,0.9-10.4,2.6-15.2c1.8-4.8,4.3-9,7.8-12.6c3.4-3.6,7.6-6.4,12.6-8.4c5-2.1,10.6-3.1,17.1-3.1s12.1,1,17.2,3.1   c5,2.1,9.3,4.9,12.9,8.4c3.6,3.6,6.3,7.7,8.2,12.6c1.9,4.8,2.9,9.9,2.9,15.2v13.3c0,2.1-0.6,3.7-1.8,4.9c-1.2,1.2-2.9,1.8-5,1.8   h-51.5c-1.5,0-2.3,0.7-2.3,2.2v4c0,5.6,1.7,10.4,5.2,14.2c3.4,3.9,8.8,5.8,16.1,5.8c5.8,0,10.3-1,13.5-3c3.2-2,5.6-3.9,7.3-5.7   c1.7-1.6,3.4-2.4,5-2.3c1.7,0.1,3.2,0.8,4.6,2.1L1333.9,178.3z M1317.9,137.2c0-5.6-1.6-10.4-4.8-14.4s-8.5-6-15.8-6   c-7.2,0-12.2,2-15.1,6c-2.9,4-4.3,8.8-4.3,14.4v1.1c0,1.5,0.8,2.2,2.3,2.2h35.5c1.5,0,2.3-0.7,2.3-2.2V137.2z"/>
	<path class="st2" d="M1405.8,177.9c2.6-3,5.7-2.9,9.4,0.2c1.7,1.3,3.7,2.6,6.1,3.7c2.4,1.1,5.2,1.7,8.6,1.7c4.1,0,7.6-0.9,10.3-2.7   c2.7-1.8,4.1-4.1,4.1-7.1c0-2.8-1.2-5.3-3.5-7.3c-2.4-2.1-6.8-4.7-13.2-7.8c-4.1-1.9-7.8-3.9-11-6c-3.2-2.1-5.9-4.3-8.1-6.8   c-2.2-2.4-3.9-5.1-5.2-8.1c-1.2-3-1.8-6.4-1.8-10.4c0-4,0.8-7.8,2.3-11.3c1.5-3.6,3.7-6.7,6.5-9.3c2.8-2.7,6.3-4.8,10.3-6.3   c4-1.6,8.6-2.3,13.6-2.3c6.1,0,11.5,1.1,16.3,3.3c4.7,2.2,8.2,4.4,10.3,6.7c1.2,1.5,1.9,3.1,1.9,4.8c0.1,1.7-0.6,3.2-1.9,4.6   l-4.1,4.2c-1.4,1.3-2.8,2.2-4.2,2.6c-1.5,0.4-2.9-0.2-4.5-1.7c-4.1-3.7-8.7-5.6-13.7-5.6c-4.4,0-7.7,1-9.7,2.9   c-2.1,1.9-3.1,4.4-3.1,7.6c0,3,1.4,5.5,4.3,7.6c2.9,2.1,6.6,4.1,11,6c4.3,1.8,8.1,3.7,11.6,5.8c3.4,2.1,6.4,4.3,8.8,6.8   c2.4,2.4,4.3,5.2,5.7,8.2c1.4,3,2.1,6.6,2.1,10.6c0,4.9-1,9.2-3,13c-2,3.8-4.6,7-7.9,9.6c-3.3,2.6-7,4.5-11.2,5.8   c-4.2,1.3-8.4,1.9-12.7,1.9c-7,0-12.8-0.9-17.4-2.8c-4.6-1.9-8.2-4.3-11-7.4c-1.2-1.3-1.9-2.9-1.9-4.7c-0.1-1.8,0.6-3.3,1.9-4.7   L1405.8,177.9z"/>
	<path class="st2" d="M1542.4,200.1c-11.4,0-19.9-3-25.3-9.1c-5.4-6.1-8.1-14.5-8.1-25.3v-44.5c0-1.5-0.8-2.2-2.3-2.2h-6.9   c-2.1,0-3.8-0.6-5-1.8c-1.2-1.2-1.8-2.8-1.8-4.9v-5.6c0-2.1,0.6-3.7,1.8-4.9c1.2-1.2,2.9-1.8,5-1.8h6.9c1.5,0,2.3-0.7,2.3-2.2V82.3   c0-2.1,0.6-3.7,1.8-4.9c1.2-1.2,2.9-1.8,5-1.8h6.9c2.1,0,3.8,0.6,5,1.8c1.2,1.2,1.8,2.8,1.8,4.9v15.6c0,1.5,0.8,2.2,2.3,2.2h17.2   c2.1,0,3.8,0.6,5,1.8c1.2,1.2,1.8,2.8,1.8,4.9v5.6c0,2.1-0.6,3.7-1.8,4.9c-1.2,1.2-2.9,1.8-5,1.8h-17.2c-1.5,0-2.3,0.7-2.3,2.2   v43.3c0,5.2,1,9.3,3.1,12.2c2.1,3,6,4.4,11.8,4.4h4.6c2.1,0,3.8,0.6,5,1.8c1.2,1.2,1.8,2.8,1.8,4.9v5.6c0,2.1-0.6,3.7-1.8,4.9   c-1.2,1.2-2.9,1.8-5,1.8H1542.4z"/>
	<path class="st2" d="M1639.5,202.3c-7.5,0-14.5-1.4-20.9-4.1c-6.5-2.7-12.2-6.5-17.1-11.2c-4.9-4.7-8.7-10.3-11.6-16.6   c-2.8-6.3-4.2-13.1-4.2-20.3c0-7.3,1.4-14,4.2-20.3c2.8-6.3,6.7-11.8,11.6-16.6c4.9-4.7,10.6-8.5,17.1-11.2   c6.5-2.7,13.5-4.1,20.9-4.1c7.5,0,14.5,1.4,20.9,4.1c6.5,2.7,12.2,6.5,17.1,11.2c4.9,4.7,8.7,10.3,11.6,16.6   c2.8,6.3,4.2,13.1,4.2,20.3c0,7.3-1.4,14-4.2,20.3c-2.8,6.3-6.7,11.8-11.6,16.6c-4.9,4.7-10.6,8.5-17.1,11.2   C1653.9,201,1647,202.3,1639.5,202.3z M1639.5,183.4c4.7,0,9.1-0.9,13.2-2.7c4-1.8,7.6-4.1,10.5-7.1c3-3,5.3-6.5,7-10.6   c1.7-4.1,2.5-8.4,2.5-13c0-4.6-0.8-8.9-2.5-13c-1.7-4.1-4-7.6-7-10.6c-3-3-6.5-5.3-10.5-7.1c-4-1.8-8.4-2.7-13.2-2.7   c-4.7,0-9.1,0.9-13.2,2.7c-4,1.8-7.6,4.1-10.5,7.1c-3,3-5.3,6.5-7,10.6c-1.7,4.1-2.5,8.4-2.5,13c0,4.6,0.8,8.9,2.5,13   c1.7,4.1,4,7.6,7,10.6c3,3,6.5,5.3,10.5,7.1C1630.4,182.6,1634.7,183.4,1639.5,183.4z"/>
	<path class="st2" d="M1736.8,200.1c-2.1,0-3.8-0.6-5-1.8c-1.2-1.2-1.8-2.8-1.8-4.9v-56.7c0-10.8,3.2-19.6,9.6-26.4   c6.4-6.8,15.3-10.2,26.8-10.2h8.2c2.1,0,3.8,0.6,5,1.8c1.2,1.2,1.8,2.8,1.8,4.9v5.6c0,2.1-0.6,3.7-1.8,4.9c-1.2,1.2-2.9,1.8-5,1.8   h-6.9c-5.8,0-10.1,1.7-12.9,5.2c-2.8,3.5-4.2,8-4.2,13.7v55.6c0,2.1-0.6,3.7-1.8,4.9c-1.2,1.2-2.9,1.8-5,1.8H1736.8z"/>
	<path class="st2" d="M1885.6,178.3c1.4,1.3,2,2.8,1.9,4.4c-0.1,1.6-0.7,3.2-1.9,4.7c-3.1,3.7-7.6,7.1-13.5,10.2   c-6,3.1-13,4.7-21.3,4.7c-6.4,0-12.2-1-17.3-3c-5.1-2-9.5-4.8-13.2-8.3s-6.5-7.7-8.5-12.4c-2-4.7-3-9.8-3-15.1v-26.2   c0-5.3,0.9-10.4,2.6-15.2c1.8-4.8,4.3-9,7.8-12.6c3.4-3.6,7.6-6.4,12.6-8.4c5-2.1,10.6-3.1,17.1-3.1s12.1,1,17.2,3.1   c5,2.1,9.3,4.9,12.9,8.4c3.6,3.6,6.3,7.7,8.2,12.6c1.9,4.8,2.9,9.9,2.9,15.2v13.3c0,2.1-0.6,3.7-1.8,4.9c-1.2,1.2-2.9,1.8-5,1.8   h-51.5c-1.5,0-2.3,0.7-2.3,2.2v4c0,5.6,1.7,10.4,5.2,14.2c3.4,3.9,8.8,5.8,16.1,5.8c5.8,0,10.3-1,13.5-3c3.2-2,5.6-3.9,7.3-5.7   c1.7-1.6,3.4-2.4,5-2.3c1.7,0.1,3.2,0.8,4.6,2.1L1885.6,178.3z M1869.5,137.2c0-5.6-1.6-10.4-4.8-14.4s-8.5-6-15.8-6   c-7.2,0-12.2,2-15.1,6c-2.9,4-4.3,8.8-4.3,14.4v1.1c0,1.5,0.8,2.2,2.3,2.2h35.5c1.5,0,2.3-0.7,2.3-2.2V137.2z"/>
</g>
</svg>