<svg xmlns="http://www.w3.org/2000/svg" width="18" height="18" viewBox="0 0 18 18">
  <path d="M9.00007,2.26722c.4738.56354,1.43323,1.74183,2.39372,3.14161C12.77928,7.428,14.06137,9.556,14.06137,11.43864a5.06137,5.06137,0,0,1-10.12273,0c0-1.88267,1.28209-4.01066,2.66757-6.02981C7.56462,4.01208,8.52807,2.829,9.00007,2.26722M9,0,8.17984.91859A42.31886,42.31886,0,0,0,5.36938,4.56015C3.95869,6.616,2.43864,9.07655,2.43864,11.43864a6.56137,6.56137,0,0,0,13.12273,0c0-2.36209-1.52-4.8226-2.93074-6.87849A42.32358,42.32358,0,0,0,9.82017.91859L9,0Z"/>
</svg>
