<?xml version="1.0" encoding="utf-8"?>
<svg version="1.1" xmlns="http://www.w3.org/2000/svg" xmlns:xlink="http://www.w3.org/1999/xlink" x="0px" y="0px"
	 viewBox="0 0 18 18" style="enable-background:new 0 0 18 18;" xml:space="preserve">
	<g>
		<path d="M2.2,18h9.1c2.5,0,4.5-2,4.5-4.6c-0.1-2.1-0.8-3.5-2.2-4.1l-1.1-0.5l0.9-0.7c1.3-1,1.5-2.5,1.5-3.3
			c0-1.3-0.4-2.5-1.2-3.3C12.8,0.5,11.5,0,10.1,0H2.2V18z M10.5,15.9H4.9v-5.6h5.6c1.5,0,2.8,1.2,2.8,2.8
			C13.2,14.5,12.1,15.9,10.5,15.9z M9.8,7.5H4.9V2h4.9c1.5,0,2.8,1.2,2.8,2.8C12.6,6.3,11.3,7.5,9.8,7.5z"/>
	</g>
</svg>
