<?xml version="1.0" encoding="utf-8"?>
<svg version="1.1" xmlns="http://www.w3.org/2000/svg" xmlns:xlink="http://www.w3.org/1999/xlink" x="0px" y="0px"
	 viewBox="0 0 18 18" style="enable-background:new 0 0 18 18;" xml:space="preserve">
	<path d="M14.4,13.2c0-0.1-0.1-0.3-0.1-0.6c-0.5,0.5-1.1,0.7-1.7,0.7c-0.6,0-1.1-0.2-1.5-0.5c-0.4-0.3-0.6-0.8-0.6-1.3
		c0-0.6,0.2-1.1,0.7-1.5c0.5-0.3,1.1-0.5,2-0.5h1V9.1c0-0.3-0.1-0.6-0.3-0.8C13.7,8,13.4,7.9,13,7.9c-0.4,0-0.7,0.1-0.9,0.3
		c-0.2,0.2-0.4,0.4-0.4,0.6h-1c0-0.3,0.1-0.6,0.3-0.9c0.2-0.3,0.5-0.5,0.9-0.7C12.2,7.1,12.6,7,13,7c0.7,0,1.2,0.2,1.6,0.5
		c0.4,0.3,0.6,0.8,0.6,1.4v2.8c0,0.6,0.1,1,0.2,1.3v0.1H14.4 M12.7,12.4c0.3,0,0.6-0.1,0.9-0.2c0.3-0.1,0.5-0.3,0.6-0.6v-1.1h-0.8
		c-1.3,0-1.9,0.3-1.9,1c0,0.3,0.1,0.5,0.3,0.7C12.1,12.3,12.4,12.4,12.7,12.4 M5,10.1h2.9L6.5,6.2L5,10.1 M5.9,4.6h1.2l3.4,8.5H9.1
		l-0.7-1.8H4.6l-0.7,1.8H2.5L5.9,4.6z"/>
</svg>
