<?xml version="1.0" encoding="utf-8"?>
<svg version="1.1" id="Layer_1" xmlns="http://www.w3.org/2000/svg" xmlns:xlink="http://www.w3.org/1999/xlink" x="0px" y="0px"
	 viewBox="0 0 18 18" style="enable-background:new 0 0 18 18;" xml:space="preserve">
<path d="M16,12c0,0-2,2.2-2,3.5c0,1.1,0.9,2,2,2c1.1,0,2-0.9,2-2C18,14.2,16,12,16,12 M2.2,10.5L7,5.7l4.8,4.8 M13.6,9.4L4.6,0.5
	L3.2,1.9l2.4,2.4L0.4,9.4c-0.6,0.6-0.6,1.5,0,2.1l5.5,5.5c0.3,0.3,0.7,0.4,1.1,0.4c0.4,0,0.8-0.1,1.1-0.4l5.5-5.5
	C14.2,11,14.2,10,13.6,9.4z"/>
</svg>
