<?xml version="1.0" encoding="utf-8"?>
<svg version="1.1" xmlns="http://www.w3.org/2000/svg" xmlns:xlink="http://www.w3.org/1999/xlink" x="0px" y="0px"
	 viewBox="0 0 18 18" style="enable-background:new 0 0 18 18;" xml:space="preserve">
	<g>
		<path d="M13.1,13.2c0-0.1-0.1-0.3-0.1-0.6c-0.5,0.5-1.1,0.7-1.7,0.7c-0.6,0-1.1-0.2-1.5-0.5c-0.4-0.3-0.6-0.8-0.6-1.3
			c0-0.6,0.2-1.1,0.7-1.5c0.5-0.3,1.1-0.5,2-0.5h1V9.1c0-0.3-0.1-0.6-0.3-0.8C12.4,8,12,7.9,11.6,7.9c-0.4,0-0.7,0.1-0.9,0.3
			c-0.2,0.2-0.4,0.4-0.4,0.6h-1c0-0.3,0.1-0.6,0.3-0.9c0.2-0.3,0.5-0.5,0.9-0.7C10.8,7.1,11.2,7,11.7,7c0.7,0,1.2,0.2,1.6,0.5
			c0.4,0.3,0.6,0.8,0.6,1.4v2.8c0,0.6,0.1,1,0.2,1.3v0.1H13.1 M11.3,12.4c0.3,0,0.6-0.1,0.9-0.2c0.3-0.1,0.5-0.3,0.6-0.6v-1.1h-0.8
			c-1.3,0-1.9,0.3-1.9,1c0,0.3,0.1,0.5,0.3,0.7C10.7,12.3,11,12.4,11.3,12.4"/>
		<path d="M7.8,13.2c0-0.1-0.1-0.3-0.1-0.6c-0.5,0.5-1.1,0.7-1.7,0.7c-0.6,0-1.1-0.2-1.5-0.5c-0.4-0.3-0.6-0.8-0.6-1.3
			c0-0.6,0.2-1.1,0.7-1.5s1.1-0.5,2-0.5h1V9.1c0-0.3-0.1-0.6-0.3-0.8C7.1,8,6.7,7.9,6.3,7.9C6,7.9,5.6,8,5.4,8.2C5.1,8.4,5,8.6,5,8.8
			H4c0-0.3,0.1-0.6,0.3-0.9c0.2-0.3,0.5-0.5,0.9-0.7C5.5,7.1,5.9,7,6.4,7C7.1,7,7.6,7.2,8,7.5C8.4,7.9,8.6,8.4,8.6,9v2.8
			c0,0.6,0.1,1,0.2,1.3v0.1H7.8 M6,12.4c0.3,0,0.6-0.1,0.9-0.2c0.3-0.1,0.5-0.3,0.6-0.6v-1.1H6.8c-1.3,0-1.9,0.3-1.9,1
			c0,0.3,0.1,0.5,0.3,0.7C5.4,12.3,5.7,12.4,6,12.4"/>
	</g>
</svg>
