<?xml version="1.0" encoding="utf-8"?>
<svg version="1.1" id="Layer_1" xmlns="http://www.w3.org/2000/svg" xmlns:xlink="http://www.w3.org/1999/xlink" x="0px" y="0px"
	 viewBox="0 0 18 18" style="enable-background:new 0 0 18 18;" xml:space="preserve">
<path d="M7.6,10.4c0.4,0.4,0.4,1,0,1.4c-0.4,0.4-1,0.4-1.4,0c-1.9-1.9-1.9-5,0-6.9l0,0l3.4-3.4c1.9-1.9,5-1.9,6.9,0s1.9,5,0,6.9
	l-1.5,1.5c0-0.8-0.1-1.6-0.4-2.4l0.5-0.5c1.1-1.1,1.1-3,0-4.1c-1.1-1.1-3-1.1-4.1,0L7.6,6.2C6.5,7.4,6.5,9.2,7.6,10.4 M10.4,6.2
	c0.4-0.4,1-0.4,1.4,0c1.9,1.9,1.9,5,0,6.9l0,0l-3.4,3.4c-1.9,1.9-5,1.9-6.9,0s-1.9-5,0-6.9l1.5-1.5C2.9,9,3,9.8,3.3,10.6l-0.5,0.5
	c-1.1,1.1-1.1,3,0,4.1c1.1,1.1,3,1.1,4.1,0l3.4-3.4c1.1-1.1,1.1-3,0-4.1C10,7.2,10,6.6,10.4,6.2z"/>
</svg>
