<?xml version="1.0" encoding="utf-8"?>
<svg version="1.1" id="Layer_1" xmlns="http://www.w3.org/2000/svg" xmlns:xlink="http://www.w3.org/1999/xlink" x="0px" y="0px"
	 viewBox="0 0 18 18" style="enable-background:new 0 0 18 18;" xml:space="preserve">
<path d="M4.4,2.2H18v1.9H4.4V2.2 M4.4,10V8H18V10H4.4 M1.5,1.7c0.8,0,1.5,0.7,1.5,1.5S2.3,4.6,1.5,4.6S0,4,0,3.2S0.7,1.7,1.5,1.7
	 M1.5,7.5c0.8,0,1.5,0.7,1.5,1.5s-0.7,1.5-1.5,1.5S0,9.8,0,9S0.7,7.5,1.5,7.5 M4.4,15.8v-1.9H18v1.9H4.4 M1.5,13.4
	c0.8,0,1.5,0.7,1.5,1.5c0,0.8-0.7,1.5-1.5,1.5S0,15.6,0,14.8C0,14,0.7,13.4,1.5,13.4z"/>
</svg>
