<svg xmlns="http://www.w3.org/2000/svg" width="18" height="18" viewBox="0 0 18 18">
  <path d="M6.214,1.13537A3.76875,3.76875,0,0,1,8.97932.00087a3.76871,3.76871,0,0,1,2.77714,1.1345,3.71856,3.71856,0,0,1,1.12268,2.789l.01182,1.2763a3.7186,3.7186,0,0,1-1.1345,2.80078,3.66848,3.66848,0,0,1-1.19358.8036l.02955-1.41221a1.98936,1.98936,0,0,0,.27771-.27771,2.56538,2.56538,0,0,0,.77405-1.88491l.00591-1.32949a2.45674,2.45674,0,0,0-.76223-1.87309,2.68195,2.68195,0,0,0-3.78165-.01182,2.5069,2.5069,0,0,0-.77405,1.88491L6.32626,5.23018A2.50687,2.50687,0,0,0,7.378,7.3928L7.40757,8.805A3.66848,3.66848,0,0,1,6.214,8.00141,3.71859,3.71859,0,0,1,5.0795,5.20063l.01182-1.2763A3.71859,3.71859,0,0,1,6.214,1.13537ZM8.32344,5.45471H9.65883v7.09058H8.32344ZM6.214,9.99859A3.66869,3.66869,0,0,1,7.40757,9.195L7.378,10.6072a1.997,1.997,0,0,0-.27771.27771,2.56539,2.56539,0,0,0-.77406,1.88491V14.0934a2.45676,2.45676,0,0,0,.76224,1.87309,2.68191,2.68191,0,0,0,3.78164.01182,2.50685,2.50685,0,0,0,.77405-1.88491l.00591-1.32948a2.50691,2.50691,0,0,0-1.05767-2.15672V9.16545a3.67664,3.67664,0,0,1,1.19358.8036,3.71857,3.71857,0,0,1,1.13449,2.80077l-.04136,1.30585a3.71853,3.71853,0,0,1-1.12268,2.789,3.76871,3.76871,0,0,1-2.76532,1.1345A3.76872,3.76872,0,0,1,6.214,16.86463a3.71856,3.71856,0,0,1-1.12267-2.789l-.01182-1.2763A3.71859,3.71859,0,0,1,6.214,9.99859Z"/>
</svg>
