<svg xmlns="http://www.w3.org/2000/svg" width="18" height="18" viewBox="0 0 18 18">
  <path d="M9,18A9,9,0,0,1,9,0c4.95,0,9,3.6,9,8.1a5.4,5.4,0,0,1-5.4,5.4H10.98a.42515.42515,0,0,0-.45.45c0,.09.09.18.09.27a2.444,2.444,0,0,1,.54,1.53A2.10233,2.10233,0,0,1,9,18M9,1.8A7.2,7.2,0,0,0,9,16.2a.42515.42515,0,0,0,.45-.45c0-.18-.09-.27-.09-.36a2.2337,2.2337,0,0,1,1.71-3.69H12.6a3.6,3.6,0,0,0,3.6-3.6c0-3.51-3.24-6.3-7.2-6.3M4.05,7.2a1.35,1.35,0,0,1,0,2.7,1.35,1.35,0,0,1,0-2.7m2.7-3.6A1.38416,1.38416,0,0,1,8.1,4.95,1.38416,1.38416,0,0,1,6.75,6.3,1.38416,1.38416,0,0,1,5.4,4.95,1.38416,1.38416,0,0,1,6.75,3.6m4.5,0A1.38416,1.38416,0,0,1,12.6,4.95a1.35,1.35,0,0,1-2.7,0A1.38416,1.38416,0,0,1,11.25,3.6m2.7,3.6A1.35,1.35,0,1,1,12.6,8.55,1.38416,1.38416,0,0,1,13.95,7.2Z"/>
</svg>
