<svg id="Layer_1" data-name="Layer 1" xmlns="http://www.w3.org/2000/svg" viewBox="0 0 12 12">
  <path class="cls-1" d="M5.47 8.38h1.06v1.06H5.47z"/>
  <path class="cls-1" d="M6 0a6 6 0 1 0 6 6 6 6 0 0 0-6-6zm3.36 9.36A4.76 4.76 0 1 1 10.75 6a4.74 4.74 0 0 1-1.39 3.36z"/>
  <path class="cls-1" d="M8.12 4.68a2 2 0 0 1-.19.88 2 2 0 0 1-.51.64 3.09 3.09 0 0 1-.89.48v1.18H5.47V6.27a.52.52 0 0 1 .41-.51 2.68 2.68 0 0 0 .69-.26A1.15 1.15 0 0 0 7 5.09a.93.93 0 0 0 .08-.41 1.06 1.06 0 0 0-2.12 0H3.88a2.12 2.12 0 1 1 4.24 0z"/>
</svg>
