<svg xmlns="http://www.w3.org/2000/svg" width="18" height="18" viewBox="0 0 18 18">
  <path d="M8.59091,13.09091H2.86364a1.63637,1.63637,0,0,1-1.63637-1.63636V1.63636A1.63636,1.63636,0,0,1,2.86364,0h9.81818V1.63636H2.86364v9.81819H8.59091V9.81818l3.27273,2.45455L8.59091,14.72727V13.09091m6.54545,3.27273V4.90909h-9V9.81818H4.5V4.90909A1.63636,1.63636,0,0,1,6.13636,3.27273h9a1.63636,1.63636,0,0,1,1.63637,1.63636V16.36364A1.63636,1.63636,0,0,1,15.13636,18h-9A1.63636,1.63636,0,0,1,4.5,16.36364V14.72727H6.13636v1.63637Z"/>
</svg>
