<svg xmlns="http://www.w3.org/2000/svg" viewBox="0 0 208 212.13"><defs><style>.a{fill:#f5f6fa;}.b{fill:#d3d5d9;}</style></defs><title>Success_State</title><circle class="a" cx="104" cy="108.13" r="104"/><path class="b" d="M101.56,134.59a16.12,16.12,0,0,0-16,16,8,8,0,1,1-16,0V132.09h15l-14-23c10.51-7,43.53-31,43.53-54V49A49,49,0,0,0,16,49v6c0,23,32.52,47,43.53,54l-14,23H61V150.6a16.13,16.13,0,0,0,16,16,16.46,16.46,0,0,0,16-16,8,8,0,0,1,16,0v36.53h8V150.6C118.07,142.1,110.57,134.59,101.56,134.59Zm-77-85.06a40.53,40.53,0,0,1,81.05,0v6c0,17.51-27.52,39-40.53,48-13-8.5-40.52-30.52-40.52-48ZM65,116.08l5,8.51H60Z"/><path class="b" d="M65,27V19A32.46,32.46,0,0,0,32.51,51.54h8A24.55,24.55,0,0,1,65,27Z"/></svg>